<svg width="597" height="597" viewBox="0 0 597 597" fill="none" xmlns="http://www.w3.org/2000/svg">
<path d="M58.0416 185.733C76.329 135.883 73.7752 68.8998 169.148 61.3585C302.772 56.539 304.532 44.3999 429.505 66.3335C481.35 82.2858 541.989 144.215 541.989 174.125C548.611 261.863 549.38 311.791 541.989 400.355C538.687 441.321 530.823 481.895 504.089 507.538C488.52 522.573 479.585 534.811 460.871 537.18C459.576 537.18 427.985 543.162 418.015 543.162C418.015 543.162 389.086 543.165 379.116 543.163C351.341 543.156 327.086 547.25 295.181 547.25C250.205 547.91 235.714 544.584 190.706 543.163C157.666 542.154 127.435 537.381 95.3222 525.889C58.4761 512.686 45.8158 471.164 44.1174 425.297C40.2016 319.823 41.9224 289.044 58.0416 185.733Z" fill="#D6EEFF"/>
<path d="M253.107 251.001C253.107 251.001 244.647 263.788 252.011 263.857C260.722 263.939 255.315 256.288 253.107 251.001Z" fill="#8ABEBC"/>
<path d="M237.512 189.628C237.512 189.628 238.774 209.763 243.47 219.04C244.662 221.392 244.975 224.09 244.287 226.633C243.42 229.841 242.731 233.695 244.198 234.112C246.686 234.817 248.71 234.478 252.416 238.101C256.12 241.724 260.556 248.993 274.191 246.156C287.824 243.318 299.813 228.792 311.264 252.321C319.72 269.698 333.119 249.383 333.119 249.383L322.4 203.204C322.4 203.204 254.421 168.636 237.512 189.628Z" fill="#F8A694"/>
<path d="M212.612 444.398L212.639 444.474L212.612 444.398ZM212.137 444.756L212.566 444.428L212.573 444.369L212.732 444.388L212.752 444.531L212.671 444.565L212.137 444.756Z" fill="#100F0D"/>
<path d="M216.53 349.88C216.914 349.189 217.304 348.496 217.694 347.811C221.055 341.898 224.632 336.265 228.403 331.125C234.385 322.959 240.862 316.039 247.791 311.201C254.466 307.612 262.752 309.41 273.744 320.634C280.532 327.564 288.354 338.093 297.468 353.172C306.138 367.507 315.977 385.958 327.21 409.345C329.833 413.533 391.85 410.225 391.85 410.225C391.85 410.225 399.164 454.864 352.575 469.302C339.603 473.325 325.522 471.11 314.42 463.281C289.079 445.416 256.185 405.403 254.215 366.577C253.228 366.775 233.152 414.895 218.099 437.314C216.188 440.163 214.353 442.601 212.649 444.469C212.241 444.086 181.686 440.598 181.686 440.598C181.686 440.598 182.727 436.448 184.729 429.587C188.781 415.696 196.769 390.711 208.013 366.647L216.53 349.88Z" fill="#FAD464"/>
<path d="M400.701 411.697C400.475 412.742 399.954 413.499 399.181 414.035C398.897 414.238 398.576 414.408 398.222 414.552C394.41 416.104 386.864 414.507 378.641 414.226C378.281 414.214 377.917 414.204 377.552 414.199C373.809 414.126 369.956 414.367 366.277 415.329C364.688 415.744 363.003 416.161 361.251 416.551C360.898 416.63 360.542 416.709 360.182 416.783C352.796 418.357 344.388 419.38 337.048 417.917C336.482 417.806 335.925 417.68 335.376 417.534C328.973 415.882 323.553 412.127 320.604 404.9C313.14 386.617 291.355 338.132 265.094 313.314L265.072 313.341L265.092 313.311H265.096C265.498 312.624 270.266 304.332 277.863 293.745C278.096 293.42 278.332 293.096 278.572 292.764C283.248 286.308 288.953 279.061 295.338 272.205C295.611 271.913 295.882 271.623 296.157 271.336C302.087 265.054 308.585 259.148 315.388 254.525C315.705 254.309 316.02 254.095 316.339 253.889C321.848 250.255 327.545 247.489 333.298 246.063C333.67 245.971 334.039 245.883 334.41 245.807C335.645 245.534 343.611 237.618 344.848 237.481C344.848 237.481 404.837 315.362 400.701 411.697Z" fill="#8ABEBC"/>
<path d="M212.612 444.398L212.639 444.474L212.612 444.398ZM212.137 444.756L212.566 444.428L212.573 444.369L212.732 444.388L212.752 444.531L212.671 444.565L212.137 444.756Z" fill="#100F0D"/>
<path d="M189.219 436.652L183.111 454.423L198.907 461.215L208.251 439.36L189.219 436.652Z" fill="#F8A694"/>
<path d="M218.099 437.314C216.188 440.163 214.354 442.601 212.649 444.469C212.241 444.086 181.686 440.598 181.686 440.598C181.686 440.598 182.727 436.447 184.729 429.586L218.099 437.314Z" fill="#F9F3DC"/>
<path d="M216.532 349.881C222.813 356.195 233.388 382.202 222.365 385.032C212.959 387.452 209.161 372.664 208.016 366.647L216.532 349.881Z" fill="#F8A694"/>
<path d="M337.048 417.916C336.483 417.806 335.925 417.679 335.376 417.533C332.963 414.343 331.083 410.754 329.852 406.917C328.203 401.791 327.747 396.358 327.301 391.097C327.077 388.47 326.851 385.754 326.473 383.118C325.004 372.764 321.08 361.843 314.124 348.744C309.127 339.327 303.39 330.196 297.087 321.599C295.497 319.433 293.831 317.239 292.218 315.122C287.056 308.334 281.762 301.378 277.863 293.744C278.097 293.42 278.332 293.095 278.572 292.764C282.454 300.511 287.834 307.575 293.077 314.47C294.69 316.593 296.358 318.787 297.953 320.962C304.291 329.599 310.052 338.775 315.074 348.238C322.091 361.453 326.051 372.488 327.54 382.967C327.918 385.631 328.15 388.363 328.371 391.008C328.811 396.204 329.267 401.581 330.877 406.587C332.208 410.729 334.316 414.574 337.048 417.916Z" fill="#F8F2DB"/>
<path d="M361.252 416.553C360.899 416.632 360.543 416.71 360.183 416.785C359.42 414.832 358.88 412.795 358.355 410.82C357.927 409.216 357.488 407.561 356.938 405.98C354.851 400.001 351.041 394.706 347.353 389.584C343.86 384.731 340.248 379.713 338.04 374.059C336.616 370.41 335.794 366.527 334.996 362.774C334.547 360.653 334.082 358.459 333.511 356.342C331.371 348.347 327.602 340.77 323.958 333.442C321.074 327.646 318.093 321.651 315.908 315.451C315.255 313.594 314.66 311.684 314.081 309.837C313.095 306.667 312.072 303.388 310.723 300.305C308.806 295.922 306.134 291.688 303.55 287.598C300.433 282.662 297.248 277.618 295.34 272.207C295.612 271.915 295.883 271.625 296.158 271.338C297.963 276.732 301.149 281.783 304.461 287.023C307.066 291.152 309.757 295.418 311.711 299.875C313.081 303.012 314.115 306.318 315.111 309.518C315.683 311.354 316.273 313.252 316.92 315.093C319.085 321.234 322.052 327.197 324.92 332.964C328.589 340.337 332.38 347.964 334.552 356.064C335.128 358.211 335.596 360.416 336.047 362.551C336.835 366.263 337.648 370.099 339.043 373.668C341.201 379.193 344.771 384.158 348.229 388.957C351.959 394.138 355.817 399.497 357.954 405.627C358.516 407.245 358.962 408.919 359.393 410.542C359.926 412.546 360.474 414.609 361.252 416.553Z" fill="#F8F2DB"/>
<path d="M378.64 414.227C378.28 414.214 377.916 414.205 377.551 414.2C375.361 398.442 370.145 383.159 362.171 369.333C361.781 368.648 361.378 367.969 360.979 367.29C359.471 364.733 357.918 362.088 356.747 359.292C355.328 355.903 354.478 352.276 353.656 348.772C353.294 347.227 352.917 345.628 352.5 344.076C349.751 333.87 344.717 324.184 337.939 316.073C337.234 315.227 336.494 314.379 335.776 313.559C333.994 311.516 332.148 309.41 330.627 307.095C326.76 301.217 325.089 294.351 323.472 287.711L315.387 254.525C315.704 254.31 316.019 254.096 316.338 253.889L324.516 287.456C326.112 294.009 327.762 300.783 331.526 306.502C333.007 308.756 334.828 310.838 336.585 312.849C337.305 313.675 338.05 314.527 338.768 315.384C345.642 323.614 350.748 333.442 353.54 343.798C353.961 345.365 354.339 346.97 354.702 348.526C355.515 351.985 356.356 355.568 357.741 358.879C358.881 361.605 360.418 364.216 361.904 366.741C362.307 367.424 362.71 368.107 363.107 368.796C371.173 382.793 376.444 398.271 378.64 414.227Z" fill="#F8F2DB"/>
<path d="M334.409 245.807C340.894 256.024 345.934 267.234 349.21 278.805C349.716 280.593 350.191 282.423 350.65 284.189C351.715 288.313 352.822 292.571 354.403 296.579C356.914 302.932 360.686 308.813 364.338 314.496C366.769 318.285 369.28 322.199 371.419 326.244C378.259 339.192 381.311 353.432 383.398 365.662C383.498 366.255 383.596 366.848 383.696 367.444C384.284 370.933 384.886 374.538 385.815 377.997C386.816 381.738 388.228 385.424 389.591 388.988L399.18 414.036C398.896 414.239 398.575 414.408 398.221 414.553L388.589 389.373C387.214 385.78 385.792 382.068 384.776 378.275C383.835 374.768 383.226 371.133 382.636 367.622C382.537 367.026 382.438 366.437 382.334 365.842C380.265 353.7 377.237 339.559 370.467 326.747C368.351 322.744 365.85 318.845 363.431 315.079C359.755 309.349 355.952 303.426 353.403 296.974C351.795 292.905 350.683 288.612 349.607 284.46C349.149 282.696 348.677 280.873 348.172 279.094C344.893 267.505 339.825 256.279 333.297 246.064L334.409 245.807Z" fill="#F8F2DB"/>
<path d="M444.867 209.438C444.867 209.438 436.594 221.833 425.639 230.901C424.535 231.816 423.401 232.701 422.242 233.531C418.769 236.029 415.103 238.077 411.396 239.229C410.143 239.62 408.882 239.906 407.621 240.07C406.823 240.18 406.021 240.237 405.223 240.242C401.786 240.267 397.657 240.226 392.999 240.274C391.735 240.289 390.434 240.31 389.096 240.34C383.912 240.463 378.197 240.733 372.137 241.331C370.818 241.463 369.482 241.609 368.131 241.777C363.44 242.345 358.579 243.13 353.631 244.204C352.293 244.491 350.953 244.805 349.604 245.136C344.621 246.373 339.572 247.918 334.538 249.857C333.278 250.342 332.018 250.853 330.758 251.388C324.324 254.123 317.957 257.531 311.815 261.772C311.815 261.772 302.828 267.151 303.988 260.791C304.728 256.738 311.101 244.019 326.493 233.73C327.472 233.076 328.487 232.435 329.542 231.8C335.026 228.509 341.529 225.563 349.166 223.369C350.24 223.059 351.336 222.763 352.459 222.485C355.519 221.728 358.746 221.085 362.155 220.587C364.034 220.313 365.857 220.038 367.621 219.762C368.757 219.589 369.863 219.411 370.952 219.236C377.606 218.16 383.455 217.071 388.619 215.92C389.741 215.667 390.834 215.413 391.891 215.155C395.82 214.202 399.319 213.204 402.449 212.122C403.506 211.758 404.516 211.386 405.489 211.006C410.245 209.142 414.068 207.048 417.235 204.598C418.048 203.974 418.817 203.326 419.545 202.65C422.403 200.004 424.677 196.967 426.638 193.418C426.149 194.441 427.297 211.21 427.297 211.21L444.867 209.438Z" fill="#FAD464"/>
<path d="M425.639 230.899C424.534 231.815 423.401 232.699 422.242 233.529C421.6 226.668 419.993 212.283 417.234 204.596C418.047 203.972 418.816 203.324 419.545 202.648C421.815 208.175 425.544 219.028 425.639 230.899Z" fill="#F8F2DB"/>
<path d="M405.489 211.007C407.836 217.218 410.813 228.328 411.396 239.229C410.143 239.621 408.882 239.906 407.621 240.07C406.753 232.243 405.059 219.718 402.449 212.123L405.489 211.007Z" fill="#F8F2DB"/>
<path d="M392.998 240.276L389.095 240.342C389.364 233.4 389.514 223.381 388.617 215.921C389.74 215.668 390.833 215.415 391.89 215.156C392.994 221.638 393.8 231.11 392.998 240.276Z" fill="#F8F2DB"/>
<path d="M372.137 241.332L368.131 241.777C368.345 235.121 368.389 226.465 367.621 219.763C368.757 219.59 369.863 219.412 370.952 219.237C371.905 225.105 372.601 233.223 372.137 241.332Z" fill="#F8F2DB"/>
<path d="M353.632 244.204C352.294 244.492 350.953 244.805 349.604 245.137C349.822 238.616 349.881 230.088 349.166 223.369C350.24 223.06 351.337 222.764 352.459 222.486C353.391 228.287 354.07 236.24 353.632 244.204Z" fill="#F8F2DB"/>
<path d="M334.537 249.856C333.277 250.34 332.017 250.852 330.757 251.387C329.688 245.958 328.223 239.348 326.492 233.729C327.471 233.075 328.486 232.434 329.542 231.799C331.425 236.834 333.355 243.235 334.537 249.856Z" fill="#F8F2DB"/>
<path d="M348.04 465.07C346.944 465.07 345.845 464.995 344.745 464.844C344.357 464.789 343.95 464.717 343.642 464.475C343.004 463.971 343.082 462.919 343.585 462.279C344.089 461.641 344.88 461.315 345.636 461.014C348.737 459.777 351.838 458.541 354.941 457.305C356.949 456.504 358.975 455.695 360.779 454.498C368.223 449.555 370.076 439.543 375.305 432.295C376.52 430.613 381.856 423.327 384.838 423.327C385.044 423.327 385.239 423.361 385.421 423.436C387.627 424.334 385.347 428.3 384.713 429.768C381.024 438.294 377.465 447.083 371.092 454.014C365.156 460.465 356.705 465.07 348.04 465.07Z" fill="#FAE3A0"/>
<path d="M354.17 175.648C356.051 167.179 350.922 158.657 342.44 156.396C338.182 155.26 333.871 155.917 330.299 157.894C317.519 124.176 285.826 139.75 285.826 139.75C266.502 115.758 251.838 135.051 248.697 140.486C246.973 138.954 244.877 137.788 242.495 137.151C234.352 134.982 225.986 139.806 223.81 147.932C222.951 151.137 223.189 154.377 224.288 157.26C218.021 158.171 212.59 162.69 210.852 169.182C208.523 177.875 209.835 195.139 234.08 191.086C235.938 198.931 243 204.769 251.431 204.769C256.34 204.769 260.786 202.789 264.011 199.586C272.531 205.972 282.702 202.318 283.43 202.797C287.079 217.673 302.123 216.235 306.779 214.903C308.2 219.687 312.006 223.642 317.191 225.023C323.491 226.703 329.925 224.077 333.363 218.958C337.422 223.923 345.633 224.153 351.153 220.46C357.834 215.988 355.255 205.143 355.255 205.143C355.255 205.143 363.764 201.16 365.62 194.231C367.774 181.581 358.436 176.52 354.17 175.648Z" fill="#1A2338"/>
<path d="M351.059 320.08C350.955 320.273 350.85 320.465 350.74 320.656C347.871 325.715 343.158 330.805 337.11 335.462C336.96 335.577 336.811 335.692 336.659 335.806C331.967 339.365 326.497 342.658 320.479 345.481C320.317 345.557 320.155 345.634 319.992 345.709C313.081 348.906 305.461 351.482 297.475 353.119C297.413 353.132 297.351 353.144 297.288 353.157C297.106 353.194 296.924 353.23 296.743 353.265C291.598 354.281 286.303 354.908 280.958 355.058C277.054 355.169 273.331 355.247 269.784 355.286C269.606 355.29 269.428 355.291 269.25 355.293C260.672 355.386 253.144 355.26 246.613 354.857C246.401 354.842 246.191 354.83 245.982 354.816C232.197 353.919 222.937 351.756 217.703 347.755C221.064 341.847 224.639 336.217 228.41 331.083C231.361 330.493 234.63 329.914 238.123 329.287C238.301 329.254 238.481 329.223 238.661 329.191C244.842 328.08 251.708 326.811 258.787 325.065C258.96 325.022 259.134 324.979 259.307 324.935C264.08 323.744 268.943 322.333 273.75 320.604C277.49 319.259 281.195 317.719 284.797 315.942C284.958 315.862 285.118 315.783 285.276 315.701C290.361 313.158 295.233 310.132 299.699 306.495C299.699 306.495 301.822 304.966 305.261 302.954C305.415 302.863 305.572 302.77 305.732 302.678C309.51 300.495 314.733 297.819 320.431 295.909C320.602 295.852 320.773 295.795 320.946 295.74C324.874 294.462 329.01 293.562 333.043 293.446C333.234 293.441 333.424 293.437 333.614 293.435C339.858 293.371 345.814 295.242 350.316 300.567C355.044 306.158 354.839 313.074 351.059 320.08Z" fill="#3B888A"/>
<path d="M238.661 329.191C238.505 334.664 239.127 340.187 241.333 345.281C242.288 347.488 243.543 349.602 244.756 351.646C245.378 352.696 246.014 353.765 246.613 354.857C246.401 354.843 246.191 354.831 245.983 354.817C245.433 353.834 244.86 352.869 244.297 351.919C243.074 349.861 241.811 347.733 240.841 345.494C238.612 340.347 237.977 334.789 238.123 329.288L238.661 329.191Z" fill="white"/>
<path d="M269.781 355.288C269.603 355.292 269.424 355.293 269.246 355.295C269.255 354.475 269.241 353.656 269.184 352.845C268.761 346.808 265.999 341.188 263.326 335.752C262.822 334.726 262.301 333.665 261.806 332.623C260.717 330.331 259.608 327.77 258.783 325.066C258.956 325.024 259.131 324.981 259.304 324.936C260.12 327.601 261.214 330.13 262.289 332.393C262.782 333.434 263.303 334.492 263.805 335.517C266.502 340.999 269.287 346.668 269.718 352.809C269.776 353.632 269.79 354.463 269.781 355.288Z" fill="white"/>
<path d="M297.288 353.157C297.106 353.194 296.924 353.23 296.743 353.266C296.55 352.902 296.349 352.544 296.137 352.191C295.743 351.533 295.302 350.877 294.877 350.243C293.814 348.659 292.717 347.021 292.175 345.148C291.596 343.145 291.701 341.033 291.802 338.992C291.85 338.002 291.902 336.977 291.874 335.982C291.722 330.789 289.405 325.917 287.165 321.205C286.816 320.472 286.47 319.742 286.131 319.013C285.681 318.042 285.226 317.013 284.797 315.942C284.957 315.862 285.118 315.783 285.276 315.701C285.706 316.778 286.164 317.812 286.616 318.788C286.953 319.515 287.301 320.244 287.646 320.975C289.912 325.737 292.253 330.663 292.408 335.966C292.437 336.982 292.385 338.018 292.335 339.019C292.235 341.017 292.134 343.08 292.688 345C293.207 346.791 294.281 348.395 295.322 349.945C295.75 350.585 296.193 351.246 296.594 351.915C296.839 352.323 297.07 352.736 297.288 353.157Z" fill="white"/>
<path d="M320.478 345.485C320.315 345.561 320.153 345.638 319.991 345.713C319.61 344.74 319.271 343.747 318.989 342.735C318.432 340.732 318.1 338.647 317.78 336.633C317.46 334.632 317.131 332.563 316.582 330.586C315.534 326.822 313.657 323.286 311.841 319.87C310.263 316.894 308.628 313.816 307.528 310.575C307.112 309.346 306.755 308.056 306.411 306.811C306.053 305.522 305.693 304.219 305.26 302.958C305.413 302.867 305.57 302.774 305.73 302.681C306.185 303.988 306.558 305.335 306.926 306.666C307.269 307.907 307.623 309.19 308.035 310.403C309.12 313.604 310.744 316.662 312.315 319.619C314.142 323.062 316.033 326.623 317.097 330.443C317.655 332.449 317.986 334.534 318.307 336.549C318.626 338.549 318.954 340.618 319.504 342.591C319.779 343.573 320.107 344.537 320.478 345.485Z" fill="white"/>
<path d="M337.109 335.463C336.959 335.578 336.809 335.693 336.658 335.807C333.872 327.174 330.862 318.502 327.273 310.157C325.199 305.334 322.909 300.567 320.43 295.91C320.601 295.853 320.772 295.796 320.945 295.741C323.415 300.383 325.696 305.136 327.765 309.946C331.336 318.253 334.334 326.876 337.109 335.463Z" fill="white"/>
<path d="M351.059 320.083C350.955 320.275 350.85 320.468 350.74 320.658C350.004 319.106 349.203 317.557 348.193 316.167C347.354 315.011 346.352 313.945 345.384 312.913C345.086 312.598 344.791 312.28 344.499 311.963C339.578 306.603 335.656 300.255 333.043 293.449C333.234 293.443 333.424 293.44 333.613 293.438C336.201 300.112 340.061 306.339 344.893 311.602C345.183 311.919 345.479 312.232 345.775 312.546C346.753 313.591 347.767 314.67 348.626 315.852C349.587 317.176 350.356 318.625 351.059 320.083Z" fill="white"/>
<path d="M188.277 455.139C188.277 455.139 160.342 441.588 153.473 454.254C150.856 459.751 158.781 473.502 185.15 470.054C199.978 467.484 199.518 459.793 199.518 459.793L188.277 455.139Z" fill="#8ABEBC"/>
<path d="M157.64 441.347C157.371 441.347 156.97 441.46 156.438 441.943C155.817 442.507 155.501 443.24 155.472 444.181C155.35 448.219 160.459 454.382 162.675 456.859L162.316 453.858C161.792 449.476 160.154 442.222 157.991 441.415C157.925 441.392 157.808 441.347 157.64 441.347ZM162.856 457.06C162.973 457.191 163.081 457.308 163.176 457.411C167.797 451.176 174.273 441.018 173.195 438.501C173.115 438.314 172.969 438.114 172.495 438.059C168.12 437.551 164.55 449.333 163.545 453.917L162.856 457.06ZM163.292 459.338L162.784 458.818C162.428 458.45 154.055 449.798 154.225 444.143C154.264 442.864 154.726 441.812 155.599 441.019C156.777 439.948 157.787 440.007 158.427 440.248C160.973 441.198 162.416 446.977 163.091 450.682C163.536 449.112 164.167 447.1 164.959 445.122C167.294 439.293 169.878 436.502 172.64 436.821C173.677 436.942 174.138 437.535 174.342 438.011C174.632 438.688 175.515 440.747 169.655 450.112C166.83 454.626 163.76 458.716 163.73 458.757L163.292 459.338Z" fill="#F6AB0D"/>
<path d="M165.051 457.414C165.051 458.625 164.069 459.609 162.856 459.609C161.644 459.609 160.662 458.625 160.662 457.414C160.662 456.202 161.644 455.22 162.856 455.22C164.069 455.22 165.051 456.202 165.051 457.414Z" fill="white"/>
<path d="M171.609 459.771C171.609 460.743 170.821 461.533 169.848 461.533C168.875 461.533 168.086 460.743 168.086 459.771C168.086 458.799 168.875 458.01 169.848 458.01C170.821 458.01 171.609 458.799 171.609 459.771Z" fill="white"/>
<path d="M253.316 218.001C253.316 218.001 244.425 231.44 252.165 231.513C261.321 231.6 255.638 223.557 253.316 218.001Z" fill="#8ABEBC"/>
</svg>
