<svg width="597" height="597" viewBox="0 0 597 597" fill="none" xmlns="http://www.w3.org/2000/svg">
<path d="M481 421.838L500.979 532.898C500.979 532.898 507.307 538.201 512 531.96L498.937 417L481 421.838Z" fill="#4F2C2F"/>
<path d="M122 421.838L102.022 532.898C102.022 532.898 95.6935 538.201 91 531.96L104.063 417L122 421.838Z" fill="#4F2C2F"/>
<path d="M539.431 217.116C511.527 186.674 432.401 242.591 299.761 238.288C165.788 242.591 85.8689 186.674 57.685 217.116C29.5006 247.557 61.1594 335.921 61.1594 335.921C61.1594 335.921 95.907 389.683 116.949 400.15C137.991 410.617 299.761 396.425 299.761 396.425C299.761 396.425 459.923 410.617 480.756 400.15C501.588 389.685 535.991 335.921 535.991 335.921C535.991 335.921 567.335 247.557 539.431 217.116Z" fill="#F7EEE9"/>
<path d="M486.631 393H111.37C106.217 393 102 398.532 102 405.294V410.707C102 417.468 106.217 423 111.37 423H486.631C491.784 423 496 417.468 496 410.707V405.294C496 398.532 491.784 393 486.631 393Z" fill="#EBE2DD"/>
<path d="M480.644 392.774C480.644 392.774 499.329 389.247 512.268 368.293C525.206 347.34 542.16 310.922 562.236 309.189C582.311 307.455 592.564 318.109 589.45 323.351C586.335 328.592 501.56 423 487.73 423C473.9 423 480.644 392.774 480.644 392.774Z" fill="#EBE2DD"/>
<path d="M119.072 393.378C119.072 393.378 98.5453 389.247 85.4822 368.293C72.4201 347.34 55.3026 310.922 35.0327 309.189C14.7623 307.455 4.41069 318.109 7.55532 323.351C10.7005 328.592 96.2931 423 110.257 423C124.222 423 119.072 393.378 119.072 393.378Z" fill="#EBE2DD"/>
<path d="M212.102 516.375L216.082 530.823C216.082 530.823 225.085 539.619 237.859 530.823L234.508 514.071L212.102 516.375Z" fill="#FFB9A4"/>
<path d="M121.848 507.161L124.36 526.217C124.36 526.217 127.711 535.326 143.208 528.52L144.882 507.161C144.882 507.161 123.104 507.161 121.848 507.161Z" fill="#FFB9A4"/>
<path d="M193.535 331.259C193.19 331.259 123.065 363.368 116.922 371.465C110.778 379.563 113.961 507.16 113.961 507.16C113.961 507.16 119.199 514.944 136.298 512.186C149.281 510.093 150.017 507.44 150.017 507.44C150.017 507.44 163.949 399.945 165.624 396.873C167.3 393.803 255.228 356.667 259.975 351.362C264.72 346.057 236.533 307.247 236.533 307.247L193.535 331.259Z" fill="#69373B"/>
<path d="M256.503 339.007C222.573 353.328 172.186 376.49 166.173 387.937C160.164 399.387 205.542 517.211 205.542 517.211C205.542 517.211 226.485 522.796 238.631 515.816C238.631 515.816 228.347 430.657 219.643 403.923C218.277 399.732 283.861 394.849 293.354 386.751C302.847 378.654 306.616 344.94 306.616 344.94C306.616 344.94 263.501 336.053 256.503 339.007Z" fill="#753D42"/>
<path d="M190.213 169.68C190.213 169.68 161.395 184.874 158.668 187.479C155.939 190.085 181.817 289.425 182.771 299.563C183.727 309.703 178.126 317.521 178.134 321.15C178.142 324.781 184.556 335.949 196.008 338.183C207.459 340.416 232.324 329.248 249.208 337.066C266.093 344.882 297.89 365.182 305.707 360.994C313.525 356.806 310.493 341.533 309.653 330.086C308.812 318.639 313.28 224.265 306.579 203.604C299.878 182.943 303.507 175.544 290.942 168.632C278.378 161.722 232.71 152.52 229.856 153.073C227.005 153.626 190.213 169.68 190.213 169.68Z" fill="#839FA6"/>
<path d="M177.256 127.615C177.256 127.615 174.292 121.807 170.064 126.65C165.837 131.495 176.528 149.514 181.838 143.837C184.387 141.111 181.352 135.282 177.256 127.615Z" fill="#FFB9A4"/>
<path d="M194.798 84.884C202.042 85.8694 216.866 89.5337 220.966 98.8477C225.064 108.162 227.988 118.436 227.49 129.595C226.99 140.753 194.323 151.547 187.288 149.483C180.252 147.419 176.931 139.84 176.931 139.84C176.931 139.84 170.649 121.221 170.029 115.575C169.409 109.929 190.325 84.2757 194.798 84.884Z" fill="#FFB9A4"/>
<path d="M190.215 169.681C190.215 169.681 190.496 180.151 195.838 181.408C201.178 182.664 216.885 181.227 225.679 172.628C234.475 164.027 229.496 144.121 229.496 144.121L190.215 169.681Z" fill="#FFB9A4"/>
<path d="M194.516 117.473C194.644 116.926 195.298 116.576 195.779 116.979C196.36 117.465 196.769 118.073 197.008 118.745C197.341 119.593 197.353 120.493 197.045 121.411C196.893 121.861 196.186 122.049 195.839 121.713C194.689 120.601 194.15 119.056 194.516 117.473Z" fill="#4F2C2F"/>
<path d="M158.667 187.48C153.214 190.53 143.589 211.619 141.076 242.164C138.564 272.709 151.756 297.838 174.372 301.607C196.988 305.376 221.069 275.85 221.069 275.85C221.069 275.85 197.322 239.943 173.283 248.892C173.283 248.892 176.655 240.041 175.932 224.546C175.21 209.05 171.021 180.57 158.667 187.48Z" fill="#EBE2DD"/>
<path d="M176.816 122.849C176.943 122.301 177.597 121.951 178.077 122.354C178.659 122.841 179.068 123.448 179.306 124.12C179.639 124.967 179.653 125.869 179.343 126.787C179.192 127.236 178.484 127.424 178.137 127.088C176.987 125.975 176.448 124.431 176.816 122.849Z" fill="#4F2C2F"/>
<path d="M173.283 248.89C173.283 248.89 186.099 252.326 191.404 267.124C196.71 281.921 190.213 299.562 190.213 299.562C190.213 299.562 203.757 295.627 218.731 278.513C218.731 278.513 201.371 239.592 173.283 248.89Z" fill="#DBD3CE"/>
<path d="M187.51 129.98C187.155 128.487 186.8 126.994 186.445 125.502C186.263 124.739 187.434 124.385 187.616 125.152C188.023 126.858 188.42 128.567 188.834 130.269C189.081 131.287 189.125 132.478 190.474 132.622C191.335 132.715 192.478 132.177 193.258 131.858C193.986 131.56 194.331 132.736 193.607 133.031C192.112 133.64 189.759 134.538 188.534 132.973C187.889 132.147 187.746 130.969 187.51 129.98Z" fill="#F29D8A"/>
<path d="M193.526 255.509C193.534 255.823 187.183 253.445 182.39 251.141C177.598 248.835 173.283 248.893 173.283 248.893C173.283 248.893 176.476 242.949 183.002 240.268C189.53 237.588 199.782 240.143 199.782 240.143C199.782 240.143 193.253 245.554 193.526 255.509Z" fill="#FFB9A4"/>
<path d="M173.466 117.347C175.676 118.662 177.806 117.821 179.875 116.728C181.915 115.651 183.327 119.497 181.296 120.57C178.395 122.1 175.209 122.929 172.148 121.11C170.103 119.894 171.403 116.121 173.466 117.347Z" fill="#4F2C2F"/>
<path d="M190.215 257.032C190.215 257.032 192.315 245.684 199.784 240.139C199.784 240.139 219.164 241.41 229.165 242.161C239.165 242.91 256.514 236.067 256.503 234.804C256.493 233.54 269.864 192.037 275.727 181.8C281.59 171.563 283.818 168.086 289.89 168.086C295.964 168.086 314.049 189.99 308.395 219.517C302.741 249.043 289.758 281.082 274.68 288.202C259.603 295.322 243.809 300.139 222.808 282.548C201.807 264.958 190.215 257.032 190.215 257.032Z" fill="#EBE2DD"/>
<path d="M191.093 112.471C193.95 112.676 195.945 110.899 197.787 108.915C199.6 106.958 202.504 109.904 200.699 111.851C198.12 114.633 194.981 116.889 191.024 116.607C188.381 116.418 188.429 112.281 191.093 112.471Z" fill="#4F2C2F"/>
<path d="M213.492 99.2685C205.003 87.5347 197.906 90.4459 196.006 95.1062C194.109 99.7665 190.577 103.1 182.278 106.983C173.977 110.867 175.012 116.077 174.507 117.454C174.004 118.831 162.838 123.978 156.534 111.888C150.229 99.7984 162.092 79.3164 180.125 73.8286C198.157 68.3409 212.818 69.8138 221.328 87.4564C229.839 105.099 228.735 139.974 229.827 148.531C230.917 157.088 226.51 163.984 214.806 168.477C203.101 172.972 188.468 175.981 181.865 165.678C175.263 155.376 182.166 154.454 176.934 139.837C176.934 139.837 177.786 142.834 180.51 141.075C183.234 139.315 183.998 137.329 191.784 138.863C194.446 139.387 194.005 134.518 211.1 133.179C219.813 132.498 216.006 123.688 218.588 115.934C220.761 109.403 216.912 103.997 213.492 99.2685Z" fill="#4F2C2F"/>
<path d="M222.811 111.193C222.811 111.193 222.415 104.652 229.118 106.379C235.822 108.106 235.63 129.23 227.434 127.404C223.5 126.526 223.16 119.928 222.811 111.193Z" fill="#FFB9A4"/>
<path d="M199.053 139.862C197.06 139.644 195.062 139.811 193.154 140.455C191.801 140.911 189.948 141.585 189.089 142.781C188.737 143.27 189.142 143.823 189.589 144.011C189.625 144.025 189.66 144.04 189.696 144.056C190.219 144.275 190.579 143.926 190.666 143.487C191.446 142.632 193.461 142.068 194.47 141.807C195.98 141.418 197.508 141.368 199.053 141.536C200.124 141.655 200.116 139.977 199.053 139.862Z" fill="#F29D8A"/>
<path d="M162.18 566.632C161.568 567.33 160.451 568.586 166.034 570.401C171.619 572.216 198.564 574.59 208.475 571.519C218.387 568.447 224.982 562.165 224.982 562.165C224.982 562.165 227.042 563.141 228.159 562.863C229.276 562.584 244.493 556.72 244.981 556.301C245.47 555.883 244.981 552.602 244.981 552.602C244.981 552.602 243.795 552.532 235.697 554.068C227.6 555.604 162.18 566.632 162.18 566.632Z" fill="#753D42"/>
<path d="M228.344 242.664C228.344 242.664 239.777 235.547 246.407 233.215C253.036 230.883 256.946 231.755 261.143 239.401C265.339 247.047 264.701 255.633 262.804 256.684C259.981 258.246 258.934 255.636 258.934 255.636C258.934 255.636 259.065 260.505 256.647 260.721C253.904 260.966 251.849 256.265 251.849 256.265C251.849 256.265 252.433 259.788 249.959 260.008C247.599 260.218 245.07 255.126 245.07 255.126C245.07 255.126 245.29 260.161 241.966 257.842C238.641 255.522 237.779 250.794 235.161 248.076C232.545 245.359 228.344 242.664 228.344 242.664Z" fill="#FFB9A4"/>
<path d="M254.169 239.031C257.397 243.992 259.323 249.615 259.97 255.735C260.063 256.622 258.877 256.589 258.783 255.708C258.164 249.834 256.241 244.458 253.149 239.709C252.681 238.99 253.705 238.321 254.169 239.031Z" fill="#F29D8A"/>
<path d="M246.874 239.68C250.103 244.64 252.027 250.263 252.674 256.383C252.768 257.271 251.581 257.237 251.488 256.357C250.868 250.483 248.946 245.106 245.854 240.357C245.385 239.639 246.411 238.969 246.874 239.68Z" fill="#F29D8A"/>
<path d="M240.14 242.4C243.232 246.219 245.07 250.539 245.683 255.236C245.772 255.918 244.633 255.886 244.546 255.21C243.959 250.702 242.122 246.571 239.163 242.914C238.715 242.362 239.698 241.853 240.14 242.4Z" fill="#F29D8A"/>
<path d="M216.082 530.823C216.082 530.823 204.983 546.739 188.02 553.02C171.059 559.303 162.302 564.539 162.178 566.631C162.055 568.726 195.35 570.82 204.983 569.146C214.616 567.469 222.992 562.444 230.111 558.675C237.231 554.906 244.979 553.44 244.979 552.601C244.979 551.765 239.953 533.127 237.859 530.823C235.764 528.52 224.667 539.199 216.082 530.823Z" fill="#4F2C2F"/>
<path d="M211.217 546.305C208.38 544.815 203.141 542.819 200.135 544.841C199.245 545.438 200.083 546.891 200.981 546.287C203.408 544.654 208.099 546.558 210.372 547.752C211.326 548.252 212.174 546.807 211.217 546.305Z" fill="#753D42"/>
<path d="M65.6267 540.922C64.5761 541.714 63.005 544.226 68.0305 548.31C73.0574 552.394 91.4849 556.581 101.223 555.953C110.959 555.325 117.66 552.623 117.974 553.135C118.289 553.65 117.556 555.766 117.974 556.015C118.394 556.268 146.674 556.895 146.512 556.478C146.349 556.058 146.349 551.869 146.349 551.869C146.349 551.869 118.917 548.599 109.074 548.769C99.233 548.938 65.6267 540.922 65.6267 540.922Z" fill="#753D42"/>
<path d="M379.504 152.033C379.504 152.033 379.215 164.893 373.473 168.181C373.473 168.181 378.893 182.383 403.56 176.352C403.56 176.352 403.412 168.025 405.026 165.728C406.638 163.431 379.504 152.033 379.504 152.033Z" fill="#FFB9A4"/>
<path d="M379.503 152.033C379.503 152.033 379.393 156.956 377.948 161.49C377.058 164.283 403.507 173.467 403.795 170.625C403.996 168.638 404.361 166.672 405.025 165.728C406.637 163.43 379.503 152.033 379.503 152.033Z" fill="#F29D8A"/>
<path d="M217.623 540.337C214.785 538.846 209.545 536.851 206.54 538.872C205.65 539.471 206.487 540.922 207.386 540.318C209.811 538.686 214.504 540.59 216.777 541.783C217.73 542.284 218.578 540.838 217.623 540.337Z" fill="#753D42"/>
<path d="M124.361 526.217C123.858 525.601 109.494 534.942 96.5105 536.198C83.527 537.456 71.7533 537.352 66.6348 539.95C64.4009 541.084 63.8431 545.552 76.5478 548.762C89.2511 551.973 104.049 554.207 116.334 552.601C128.62 550.997 145.652 554.661 146.349 551.868C147.048 549.078 145.407 529.148 143.208 528.52C140.884 527.856 128.76 531.592 124.361 526.217Z" fill="#4F2C2F"/>
<path d="M117.429 536.636C115.165 534.369 110.758 530.901 107.286 531.936C106.258 532.243 106.626 533.878 107.662 533.57C110.465 532.734 114.377 535.949 116.191 537.767C116.952 538.527 118.191 537.402 117.429 536.636Z" fill="#753D42"/>
<path d="M125.527 533.499C123.263 531.232 118.856 527.765 115.384 528.799C114.357 529.105 114.723 530.741 115.76 530.431C118.563 529.597 122.475 532.811 124.289 534.629C125.05 535.392 126.29 534.264 125.527 533.499Z" fill="#753D42"/>
<path d="M412.406 175.733C412.406 175.733 429.61 184.196 438.798 204.752C447.987 225.309 454.591 248.117 457.462 249.204C460.334 250.29 492.78 232.435 492.78 232.435C492.78 232.435 496.801 244.259 504.554 245.408C504.554 245.408 476.414 287.906 463.492 294.509C450.572 301.114 435.53 287.331 431.996 270.965C428.46 254.597 412.406 175.733 412.406 175.733Z" fill="#2E3345"/>
<path d="M413.553 105.796C421.099 110.607 426.296 117.04 424.75 130.955C423.206 144.871 418.302 155.426 412.945 160.241C407.586 165.055 407.729 168.545 401.843 166.444C395.957 164.343 387.259 162.738 381.405 154.624C375.551 146.509 373.467 122.863 380.829 115.608C388.19 108.353 409.809 103.411 413.553 105.796Z" fill="#FFB9A4"/>
<path d="M415.072 132.818C415.428 132.341 416.209 132.282 416.503 132.874C416.859 133.591 416.997 134.352 416.942 135.102C416.905 136.063 416.537 136.939 415.849 137.695C415.512 138.065 414.748 137.949 414.556 137.477C413.915 135.914 414.048 134.193 415.072 132.818Z" fill="#4F2C2F"/>
<path d="M398.856 130.532C399.216 130.048 400.006 129.987 400.303 130.588C400.663 131.313 400.802 132.083 400.748 132.841C400.71 133.812 400.338 134.7 399.643 135.465C399.301 135.839 398.528 135.72 398.333 135.243C397.686 133.662 397.82 131.921 398.856 130.532Z" fill="#4F2C2F"/>
<path d="M343.628 328.104C343.628 328.104 339.248 358.262 343.628 377.494C347.489 394.435 378.895 395.871 411.209 396.379C436.298 396.774 460.335 397.878 469.525 398.741C478.712 399.603 500.732 377.734 499.774 370.722C498.813 363.711 480.2 345.334 458.208 335.284C436.216 325.233 434.493 313.461 434.493 313.461C434.493 313.461 425.784 298.242 410.326 298.242C394.868 298.242 342.927 316.906 343.628 328.104Z" fill="#AD3232"/>
<path d="M405.352 144.848C408.879 146.228 408.26 139.897 408.208 138.04C408.188 137.287 409.358 137.123 409.378 137.882C409.459 140.739 409.862 147.877 404.887 145.933C404.18 145.657 404.644 144.57 405.352 144.848Z" fill="#F29D8A"/>
<path d="M395.875 127.066C398.122 127.143 400.346 126.682 402.404 125.759C404.757 124.705 403.042 121.854 400.68 122.913C399.252 123.554 397.812 123.815 396.26 123.762C393.686 123.674 393.313 126.98 395.875 127.066Z" fill="#C77524"/>
<path d="M413.329 126.955C414.921 128.541 416.864 129.719 418.999 130.446C421.441 131.276 422.126 128.022 419.676 127.188C418.194 126.685 416.963 125.894 415.862 124.797C414.037 122.98 411.512 125.145 413.329 126.955Z" fill="#C77524"/>
<path d="M408.147 153.046C406.914 151.402 403.451 151.366 401.802 152.228C401.002 152.647 400.352 151.403 401.153 150.985C403.344 149.838 407.574 149.954 409.184 152.103C409.722 152.82 408.689 153.77 408.147 153.046Z" fill="#F29D8A"/>
<path d="M413.819 109.136C420.026 113.791 421.095 117.618 422.496 126.79C424.491 139.842 418.203 151.266 416.039 156.753C413.874 162.239 426.768 148.594 430.31 137.914C432.859 130.228 431.664 122.662 430.754 114.632C429.843 106.604 426.754 95.0903 414.267 89.9652C401.781 84.84 377.833 85.435 368.608 99.1503C360.912 110.593 357.198 117.361 357.643 130.579C358.255 148.799 363.188 148.497 370.09 151.154C377.607 154.048 396.364 163.852 391.511 151.154C386.657 138.457 383.164 127.022 388.381 121.655C393.595 116.288 408.257 104.962 413.819 109.136Z" fill="#C77524"/>
<path d="M493.377 240.67C492.14 232.827 492.036 229.874 500.588 223.845C509.141 217.817 509.141 217.817 509.141 217.817C509.141 217.817 517.076 210.63 517.695 211.79C518.314 212.95 518.234 216.299 514.088 218.796C512.278 219.885 510.866 222.078 510.866 222.078C510.866 222.078 520.191 219.641 528.455 217.893C543.464 214.72 538.893 220.418 538.893 220.418C538.893 220.418 542.072 220.787 541.954 222.286C541.787 224.381 537.873 225.271 537.873 225.271C537.873 225.271 541.78 226.581 539.058 228.412C537.675 229.341 533.553 230.044 533.553 230.044C533.553 230.044 537.974 230.462 534.549 233.291C532.539 234.95 507.069 243.82 506.227 244.541C505.385 245.261 494.615 248.511 493.377 240.67Z" fill="#FFB9A4"/>
<path d="M520.034 223.609C526.417 221.541 531.523 220.349 538.004 219.691C539.03 219.586 539.982 220.842 538.963 220.946C532.631 221.588 526.372 222.937 520.141 224.955C519.131 225.282 519.03 223.933 520.034 223.609Z" fill="#F29D8A"/>
<path d="M518.935 228.223C525.319 226.153 530.424 224.962 536.906 224.301C537.931 224.198 538.883 225.453 537.863 225.557C531.533 226.201 525.274 227.551 519.044 229.57C518.033 229.898 517.932 228.549 518.935 228.223Z" fill="#F29D8A"/>
<path d="M518.823 232.991C523.953 231.108 528.117 230.047 533.511 229.52C534.367 229.437 535.332 230.66 534.485 230.743C529.215 231.257 524.095 232.451 519.088 234.29C518.275 234.588 518.015 233.287 518.823 232.991Z" fill="#F29D8A"/>
<path d="M310.878 219.643C311.499 211.728 311.372 208.776 302.374 203.434C293.376 198.094 293.376 198.094 293.376 198.094C293.376 198.094 284.904 191.548 284.377 192.752C283.852 193.958 284.192 197.291 288.52 199.455C290.41 200.401 291.989 202.476 291.989 202.476C291.989 202.476 282.503 200.776 274.126 199.68C258.914 197.689 263.918 203.012 263.918 203.012C263.918 203.012 260.777 203.628 261.013 205.113C261.343 207.189 265.314 207.769 265.314 207.769C265.314 207.769 261.521 209.383 264.381 210.994C265.83 211.812 269.993 212.191 269.993 212.191C269.993 212.191 265.618 212.953 269.255 215.506C271.389 217.002 297.474 223.854 298.369 224.507C299.266 225.16 310.256 227.557 310.878 219.643Z" fill="#FFB9A4"/>
<path d="M282.969 204.718C276.441 203.154 271.259 202.367 264.747 202.217C263.714 202.193 262.865 203.518 263.888 203.542C270.251 203.688 276.597 204.544 282.966 206.07C283.998 206.317 283.994 204.963 282.969 204.718Z" fill="#F29D8A"/>
<path d="M284.42 209.229C277.894 207.665 272.712 206.876 266.2 206.725C265.168 206.701 264.318 208.026 265.341 208.05C271.704 208.197 278.048 209.054 284.418 210.581C285.451 210.828 285.447 209.475 284.42 209.229Z" fill="#F29D8A"/>
<path d="M284.911 213.976C279.649 212.499 275.415 211.767 269.995 211.664C269.138 211.648 268.268 212.943 269.121 212.959C274.415 213.059 279.612 213.85 284.746 215.291C285.579 215.524 285.74 214.208 284.911 213.976Z" fill="#F29D8A"/>
<path d="M370.314 166.444C367.084 167.952 367.516 170.536 359.547 173.981C351.579 177.428 337.58 183.673 331.766 189.919C325.952 196.163 319.707 226.55 319.059 230.201C318.413 233.851 333.919 270.031 334.35 280.799C334.781 291.566 333.057 325.163 336.718 328.177C340.38 331.193 344.042 332.914 345.764 331.408C347.487 329.901 368.018 314.826 373.472 312.456C378.93 310.087 388.7 314.395 398.459 311.164C408.217 307.934 409.27 304.919 412.406 306.427C415.54 307.934 419.846 323.224 437.721 318.272C437.721 318.272 442.675 309.441 440.52 295.873C438.366 282.306 438.16 259.048 441.064 240.743C443.967 222.437 435.39 205.424 427.852 194.871C420.316 184.319 409.752 172.397 409.752 173.259C409.752 174.119 403.48 175.821 393.788 176.409C384.097 176.996 370.314 166.444 370.314 166.444Z" fill="#202333"/>
<path d="M294.652 225.06C294.652 225.06 306.426 220.925 311.594 209.765C311.594 209.765 340.342 261.817 343.626 269.55C346.913 277.282 348.348 289.342 338.872 297.095C329.397 304.848 315.792 301.402 308.668 280.44C301.544 259.479 294.652 225.06 294.652 225.06Z" fill="#2E3345"/>
<path d="M445.474 366.724C430.996 360.236 420.039 374.448 416.113 402.331C412.15 430.471 414.593 468.146 417.406 488.473C420.217 508.802 416.576 522.138 416.576 522.138C416.576 522.138 426.486 530.849 434.942 522.992C434.942 522.992 445.714 451.549 450.639 429.234C455.563 406.919 458.469 372.551 445.474 366.724Z" fill="#FFB9A4"/>
<path d="M489.914 364.891C475.436 358.401 464.479 372.613 460.552 400.495C456.59 428.636 459.033 466.31 461.845 486.638C464.657 506.966 461.015 520.302 461.015 520.302C461.015 520.302 470.926 529.013 479.382 521.156C479.382 521.156 490.154 449.713 495.079 427.398C500.003 405.084 502.909 370.715 489.914 364.891Z" fill="#FFB9A4"/>
<path d="M486.157 495.402C484.809 515.135 492.889 529.501 501.501 534.694C510.112 539.885 525.856 542.109 523.775 547.51C521.97 552.201 497.132 551.789 491.709 550.247C486.285 548.705 474.378 541.368 474.378 541.368L473.974 549.488L456.6 549.291C456.6 549.291 457.388 520.008 460.298 510.546C462.785 502.462 459.617 496.399 460.822 493.531C460.822 493.531 471.355 497.726 477.708 498.09C482.786 498.378 486.157 495.402 486.157 495.402Z" fill="#4F2C2F"/>
<path d="M440.658 497.288C439.233 518.17 448.929 533.466 458.043 538.962C467.155 544.456 483.817 546.807 481.615 552.524C479.703 557.486 453.418 557.053 447.681 555.421C441.944 553.789 429.34 546.022 429.34 546.022L428.914 554.616L410.527 554.408C410.527 554.408 411.361 523.42 414.443 513.409C417.074 504.852 413.64 498.437 414.915 495.401C414.915 495.401 426.133 500.307 432.867 500.226C439.16 500.149 440.658 497.288 440.658 497.288Z" fill="#613236"/>
</svg>
