<svg width="597" height="597" viewBox="0 0 597 597" fill="none" xmlns="http://www.w3.org/2000/svg">
<path d="M76.7937 187.797C99.767 129.163 113.751 99.5859 211.637 71.5658C342.486 51.8481 337.991 60.6592 445.866 90.2462C507.296 117.228 534.265 154.069 541.747 197.137C548.361 288.189 549.13 321.335 541.747 413.245C538.449 455.758 524.51 490.162 497.806 516.773C482.256 532.376 480.826 533.377 458.852 545.831C443.995 552.04 439.374 557.246 417.917 561.447C417.917 561.447 389.021 561.45 379.062 561.448C351.32 561.441 324.911 561.447 293.043 561.447C248.119 562.131 243.755 563.787 197.154 554.133C163.693 547.201 134.34 536.403 102.265 524.476C70.3011 502.763 62.3103 488.753 53.3213 441.015C49.4101 331.557 53.3212 293.132 76.7937 187.797Z" fill="#303970"/>
<path d="M303.555 195.903C303.555 195.903 285.421 196.586 275.937 213.506C266.452 230.501 287.849 249.621 313.494 245.069C339.063 240.517 328.669 193.93 303.555 195.903Z" fill="#F0A193"/>
<path d="M273.506 209.925C273.506 209.925 278.21 215.464 279.197 222.065C280.183 228.666 288.681 239.288 305.525 239.288C322.369 239.288 326.011 214.402 346.573 209.166C367.134 203.931 376.239 244.599 377.908 249.91C379.578 255.222 364.858 255.373 355.905 259.091C346.952 262.809 367.665 300.442 366.755 317.59C365.92 333.144 350.442 395.663 315.389 422.978C311.747 425.785 307.877 428.213 303.704 430.338C282.915 440.429 201.958 446.044 183.9 414.556C183.596 414.025 183.293 413.494 183.065 412.963C182.837 412.432 182.534 411.9 182.306 411.293C182.079 410.762 181.851 410.155 181.699 409.624C171.456 378.364 191.563 329.881 216.829 302.87C242.095 275.859 220.926 227.907 273.506 209.925Z" fill="#BE2D57"/>
<path d="M232.68 262.962C251.496 263.493 280.025 259.396 283.743 230.64C281.087 227.757 279.57 224.57 279.19 222.066C278.204 215.465 273.5 209.926 273.5 209.926C242.24 220.624 237.004 241.793 232.68 262.962Z" fill="#BE2D57"/>
<path d="M316.823 282.533C333.591 284.203 342.24 271.38 356.353 278.816C373.956 288.148 374.487 381.169 389.054 408.18C389.13 408.332 389.206 408.483 389.282 408.559C389.813 409.546 390.42 410.532 391.027 411.518C392.924 414.478 395.352 418.119 396.642 419.561C409.313 433.901 416.976 435.798 422.363 438.833C423.577 439.668 424.791 440.502 425.929 441.337C426.764 442.171 427.598 443.082 428.357 444.296C432.985 451.58 430.633 452.945 413.713 450.821C399.297 449 379.267 444.751 373.652 436.86C373.576 436.633 373.5 436.329 373.5 436.101C373.121 433.37 372.59 430.563 371.907 427.376C371.376 417.892 369.479 410.608 362.119 395.357C354.077 378.741 330.632 354.613 326.079 319.104C324.865 295.735 305.973 295.887 316.595 282.457L316.823 282.533Z" fill="#F0A193"/>
<path d="M348.171 405.82C348.626 407.414 349.157 408.855 349.84 410.297C350.675 412.345 351.585 414.09 352.496 415.532C363.725 432.755 383.224 437.156 393.392 441.708C395.895 443.378 397.565 444.895 398.096 446.261C401.358 453.924 392.405 452.179 376.472 450.13L375.713 450.055L374.954 449.979C365.774 448.841 354.696 447.93 345.667 445.654C339.597 443.833 334.893 441.026 332.92 436.17C328.899 426.306 330.948 409.007 321.084 390.797C312.283 374.636 293.77 350.964 287.32 319.173C286.562 302.936 286.258 303.619 288.079 295.88C288.079 295.88 295.211 274.483 326.395 282.222C334.21 290.796 337.169 372.436 348.247 405.896L348.171 405.82Z" fill="#FFB3A6"/>
<path d="M264.173 207.189C257.572 200.361 227.753 193.456 194.748 237.766C161.743 282.077 152.866 317.813 173.807 329.498C189.968 338.526 231.851 307.646 273.429 255.066C280.486 246.188 290.501 250.893 295.964 252.334C308.331 255.597 312.428 253.169 306.586 242.85C300.744 232.531 295.281 228.434 279.651 233.745C264.021 239.056 228.209 265.46 228.209 265.46C228.209 265.46 280.789 224.337 264.173 207.114V207.189Z" fill="#FFAC9D"/>
<path d="M256.136 200.585C256.136 200.585 241.644 197.398 226.621 205.365C211.598 213.332 200.748 230.479 194.451 236.625C189.974 241.025 190.885 247.323 202.266 251.875C213.647 256.428 221.158 254.683 228.139 265.457C228.139 265.457 305.454 211.738 256.06 200.509L256.136 200.585Z" fill="#BE2D57"/>
<path d="M180.496 297.93C180.268 297.93 180.116 297.854 179.964 297.702C179.661 297.399 179.585 296.943 179.889 296.564C180.344 296.033 191.573 283.893 227.841 264.773C228.22 264.545 228.675 264.697 228.903 265.076C229.13 265.456 228.979 265.911 228.599 266.139C192.635 285.031 181.178 297.474 181.102 297.55C180.951 297.702 180.723 297.778 180.496 297.778V297.93Z" fill="#ED7E6E"/>
<path d="M305.144 252.259C304.84 252.259 304.537 252.107 304.385 251.728C302.716 247.631 290.121 242.547 285.417 240.954C285.037 240.802 284.81 240.347 284.886 239.968C285.037 239.588 285.493 239.361 285.872 239.436C287.693 240.043 303.551 245.582 305.751 251.121C305.903 251.5 305.751 251.956 305.296 252.183C305.22 252.259 305.068 252.259 304.992 252.259H305.144Z" fill="#ED7E6E"/>
<path d="M304.086 246.643C303.782 246.643 303.479 246.491 303.327 246.188C302.189 243.38 297.106 240.649 295.285 239.89C294.905 239.739 294.678 239.283 294.905 238.828C295.057 238.449 295.512 238.221 295.967 238.449C296.271 238.6 303.251 241.635 304.845 245.657C304.996 246.036 304.845 246.491 304.389 246.719C304.314 246.795 304.162 246.795 304.086 246.795V246.643Z" fill="#ED7E6E"/>
<path d="M397.405 451.192C397.177 451.192 396.95 451.116 396.798 450.889C394.37 447.626 393.308 447.095 393.004 446.943C392.777 447.019 392.473 446.943 392.246 446.792C391.942 446.488 391.866 446.033 392.17 445.654C392.246 445.578 392.473 445.35 393.004 445.35C393.687 445.35 394.977 445.881 398.012 449.902C398.24 450.282 398.24 450.737 397.86 451.041C397.709 451.116 397.557 451.192 397.405 451.192Z" fill="#ED7E6E"/>
<path d="M428.91 449.912C428.682 449.912 428.454 449.836 428.303 449.609C426.026 446.574 425.116 445.663 424.888 445.436C424.509 445.36 424.205 444.98 424.281 444.601C424.281 444.297 424.585 443.994 424.888 443.842C425.419 443.69 425.799 443.539 429.668 448.622C429.896 449.002 429.896 449.457 429.517 449.76C429.365 449.836 429.213 449.912 429.061 449.912H428.91Z" fill="#ED7E6E"/>
<path d="M335.339 422.071C335.263 422.071 335.187 422.071 335.111 422.071C333.215 421.464 331.773 420.326 330.938 418.732C329.345 415.621 330.559 411.828 330.635 411.676C330.787 411.297 331.242 411.069 331.621 411.145C332.001 411.297 332.228 411.752 332.152 412.131C332.152 412.131 331.09 415.47 332.38 417.973C332.987 419.187 334.049 420.022 335.567 420.477C336.022 420.629 336.25 421.084 336.098 421.464C336.022 421.767 335.643 421.995 335.339 421.995V422.071Z" fill="#ED7E6E"/>
<path d="M249.596 188.594C260.673 183.056 278.58 182.828 283.967 175.62C295.651 159.914 314.923 137.987 346.79 148.837C378.657 159.611 373.953 186.546 372.359 202.176C370.766 217.882 392.921 240.492 375.015 255.287C357.109 270.007 333.891 243.679 327.822 230.021C321.752 216.288 304.073 185.711 299.369 198.154C293.223 214.24 299.066 227.366 287.684 231.539C265.454 239.733 271.448 201.189 240.719 200.734C240.795 197.699 242.084 192.464 249.596 188.67V188.594Z" fill="#472722"/>
<path d="M364.027 180.112C370.173 189.444 364.71 207.654 348.928 219.263C335.271 229.278 319.261 237.017 306.591 232.465C293.92 227.912 292.175 198.018 310.84 179.809C327.683 163.268 351.963 161.826 364.027 180.188V180.112Z" fill="#FFAC9D"/>
<path d="M302.321 191.099C313.171 176 322.048 197.472 337.602 195.12C352.17 192.92 354.978 187.457 360.516 188.823C366.055 190.113 364.993 198.307 364.993 198.307C364.993 198.307 378.195 155.135 341.7 160.598C311.73 165.074 299.59 181.387 302.321 191.175V191.099Z" fill="#472722"/>
<path d="M325.944 219.035C322.606 219.035 320.405 213.647 320.102 213.041C319.95 212.661 320.102 212.206 320.557 211.978C320.936 211.827 321.392 211.978 321.619 212.434C322.226 213.875 324.275 217.821 326.323 217.365C327.537 217.138 328.372 214.861 329.358 212.434C330.421 209.702 331.635 206.591 333.911 204.694C334.214 204.391 334.745 204.467 335.049 204.77C335.352 205.074 335.277 205.605 334.973 205.908C333 207.578 331.862 210.461 330.876 213.041C329.738 215.924 328.751 218.503 326.703 218.883C326.475 218.959 326.248 218.959 326.02 218.959L325.944 219.035Z" fill="#ED7E6E"/>
<path d="M343.867 215.159C339.618 215.159 337.342 212.352 337.342 212.352C337.038 211.972 337.114 211.517 337.493 211.214C337.873 210.91 338.328 210.986 338.631 211.365C338.783 211.517 342.197 215.69 348.874 212.276C349.254 212.048 349.709 212.2 349.937 212.655C350.164 213.035 350.012 213.49 349.557 213.717C347.433 214.78 345.536 215.235 343.943 215.235L343.867 215.159Z" fill="#ED7E6E"/>
<path d="M320.166 204.613C315.082 204.613 312.806 200.971 312.806 200.895C312.579 200.515 312.73 200.06 313.11 199.833C313.489 199.605 313.944 199.757 314.172 200.136C314.324 200.364 317.207 204.84 324.187 202.336C324.567 202.185 325.022 202.412 325.174 202.792C325.325 203.171 325.098 203.626 324.718 203.778C323.049 204.385 321.532 204.613 320.166 204.613Z" fill="#ED7E6E"/>
<path d="M321.615 222.055C321.539 222.055 321.387 222.055 321.311 221.979C318.959 220.992 315.545 221.599 315.469 221.599C315.014 221.675 314.634 221.372 314.558 220.916C314.483 220.461 314.786 220.082 315.241 220.006C315.393 220.006 319.187 219.399 321.918 220.537C322.298 220.689 322.525 221.144 322.373 221.599C322.222 221.903 321.918 222.055 321.615 222.055Z" fill="#ED7E6E"/>
<path d="M316.218 197.478C318.342 198.389 323.805 200.362 329.192 199.906C329.344 199.906 329.495 199.831 329.647 199.755C329.951 199.527 330.633 198.92 331.165 198.161C331.392 197.858 331.089 197.478 330.709 197.478C329.723 197.63 328.054 197.858 326.84 197.706C323.577 197.327 318.721 195.961 316.142 196.644C315.762 196.796 315.686 197.327 316.066 197.478H316.218Z" fill="#784A43"/>
<path d="M349.315 209.541C347.873 209.313 344.307 208.327 340.665 204.382C340.514 204.23 340.438 204.078 340.438 203.926C340.362 203.547 340.21 202.712 340.362 201.726C340.438 201.347 340.893 201.195 341.121 201.498C341.803 202.333 342.866 203.547 343.852 204.23C346.583 206.127 349.087 206.961 349.846 208.934C349.998 209.237 349.694 209.617 349.391 209.541H349.315Z" fill="#784A43"/>
<path d="M313.185 234.437C308.556 234.437 304.763 232.996 301.88 230.037C295.506 223.512 296.113 212.206 296.113 211.751C296.113 211.296 296.493 210.992 296.948 210.992C297.403 210.992 297.707 211.372 297.707 211.827C297.707 211.903 297.175 222.905 303.018 228.899C305.749 231.63 309.391 232.996 313.943 232.768C314.399 232.768 314.778 233.072 314.778 233.527C314.778 233.982 314.475 234.362 314.019 234.362C313.716 234.362 313.488 234.362 313.185 234.362V234.437Z" fill="#ED7E6E"/>
<path d="M336.806 214.335C336.806 214.335 333.316 220.025 335.896 220.557C338.931 221.239 336.806 214.335 336.806 214.335Z" fill="#F7FAFC"/>
<path d="M259.021 427.085C258.642 427.085 258.338 426.857 258.262 426.478C258.187 426.023 258.414 425.643 258.869 425.567C259.021 425.492 276.927 420.939 295.137 386.417C295.365 386.037 295.82 385.886 296.199 386.113C296.579 386.341 296.73 386.796 296.503 387.176C277.99 422.457 260.008 426.933 259.249 427.085C259.173 427.085 259.097 427.085 259.097 427.085H259.021Z" fill="#15152A"/>
<path d="M281.182 309.843C280.878 309.843 280.651 309.692 280.499 309.388C275.871 300.207 274.884 290.496 274.809 290.04C274.733 289.585 275.112 289.206 275.491 289.206C275.947 289.13 276.326 289.509 276.326 289.889C276.326 289.965 277.388 299.752 281.865 308.629C282.092 309.009 281.941 309.464 281.485 309.692C281.334 309.768 281.258 309.768 281.106 309.768L281.182 309.843Z" fill="#15152A"/>
<path d="M326.841 263.344C326.461 263.344 326.158 263.041 326.082 262.661C323.351 246.045 311.438 244.3 310.907 244.3C310.452 244.224 310.149 243.845 310.225 243.389C310.3 242.934 310.68 242.631 311.135 242.706C311.287 242.706 324.792 244.603 327.675 262.434C327.751 262.889 327.448 263.268 326.993 263.344C326.917 263.344 326.917 263.344 326.841 263.344Z" fill="#15152A"/>
<path d="M204.394 335.266C204.318 335.266 204.242 335.266 204.091 335.19C203.711 335.038 203.484 334.583 203.635 334.203C203.787 333.748 207.733 323.354 221.693 309.696C221.997 309.393 222.528 309.393 222.831 309.696C223.135 310 223.135 310.531 222.831 310.834C209.174 324.188 205.229 334.659 205.153 334.735C205.001 335.038 204.698 335.266 204.394 335.266Z" fill="#15152A"/>
<path d="M390.503 325.925C390.123 326.759 390.73 328.13 390.275 328.737C379.273 341.939 344.751 338.601 320.016 338.525H318.878C294.143 338.525 289.06 346.188 277.148 341.029C263.566 335.187 267.284 312.95 273.506 313.481C273.202 313.33 273.885 313.481 273.506 313.481L390.503 325.925ZM274.871 314.321C276.009 314.852 276.692 315.915 277.299 316.977L274.871 314.321ZM281.472 320.543C281.472 320.543 278.361 318.191 275.554 315.232C276.844 317.356 277.83 320.543 281.472 320.543ZM275.554 315.232C275.023 314.701 274.568 314.17 274.113 313.638C274.416 313.79 274.644 314.018 274.947 314.321L275.554 315.232ZM274.113 313.638C271.912 311.059 270.243 308.403 271.154 306.658C273.278 302.409 288.377 315.99 293.309 317.053C298.24 318.115 306.586 321.378 331.776 313.866C342.171 310.755 356.891 306.81 356.891 306.81C356.891 306.81 363.871 277.674 346.799 259.313C346.268 258.782 346.42 257.795 347.103 257.492C351.807 254.912 352.49 256.05 356.815 256.126C376.466 256.733 378.363 251.422 378.363 251.422C383.598 266.824 397.104 312.88 391.641 326.537" fill="#FFAC9D"/>
<path d="M364.324 307.636C364.248 307.636 364.172 307.636 364.02 307.56C360.606 306.27 357.116 307.56 357.04 307.56C356.66 307.711 356.205 307.484 356.053 307.104C355.902 306.725 356.129 306.27 356.509 306.118C356.66 306.042 360.606 304.601 364.551 306.118C364.931 306.27 365.158 306.725 365.007 307.104C364.855 307.408 364.551 307.636 364.248 307.636H364.324Z" fill="#ED7E6E"/>
<path d="M334.524 312.801C334.145 312.801 333.765 312.497 333.765 312.118C332.324 296.943 327.012 282.831 327.012 282.755C326.861 282.375 327.088 281.92 327.468 281.768C327.847 281.617 328.302 281.844 328.454 282.224C328.53 282.375 333.841 296.64 335.283 312.042C335.358 312.497 334.979 312.877 334.6 312.877H334.524V312.801Z" fill="#ED7E6E"/>
<path d="M281.466 321.391C281.314 321.391 281.238 321.391 281.086 321.315C277.293 319.494 273.499 314.714 273.347 314.487C273.044 314.107 273.12 313.652 273.499 313.348C273.879 313.045 274.334 313.121 274.637 313.5C274.713 313.576 278.431 318.204 281.845 319.874C282.225 320.025 282.376 320.556 282.225 320.936C282.073 321.239 281.769 321.391 281.542 321.391H281.466Z" fill="#ED7E6E"/>
<path d="M194.5 133L198.654 145.783H212.095L201.221 153.684L205.374 166.467L194.5 158.566L183.626 166.467L187.779 153.684L176.905 145.783H190.346L194.5 133Z" fill="#FFE396"/>
<path d="M464.5 335L468.654 347.783H482.095L471.221 355.684L475.374 368.467L464.5 360.566L453.626 368.467L457.779 355.684L446.905 347.783H460.346L464.5 335Z" fill="#FFE396"/>
<path d="M228.5 475L232.654 487.783H246.095L235.221 495.684L239.374 508.467L228.5 500.566L217.626 508.467L221.779 495.684L210.905 487.783H224.346L228.5 475Z" fill="#FFE396"/>
<path d="M114.5 287L118.654 299.783H132.095L121.221 307.684L125.374 320.467L114.5 312.566L103.626 320.467L107.779 307.684L96.9055 299.783H110.346L114.5 287Z" fill="#FFE396"/>
<path d="M446.316 145.481L434.187 135.987L419.499 131.5L396.999 130.21L416.999 137L431.554 146.644L441.019 159.515L447.262 173.843L449.524 188.805L447.728 202.343L441.019 215.5L431.554 225.5L419.5 235.5L434.187 229L447.728 221L456.356 212.334L462.071 199.74L463.929 184.623L462.224 171.581L456.121 157.733L446.316 145.481Z" fill="#FFE396" stroke="#FFE396"/>
</svg>
