<svg width="597" height="531" viewBox="0 0 597 531" fill="none" xmlns="http://www.w3.org/2000/svg">
<path d="M481.175 369.429C481.175 369.429 480.004 391.891 479.179 395.065C478.359 398.236 474.48 411.748 474.129 416.685C473.774 421.617 468.898 494.956 469.486 499.537C470.073 504.119 462.497 503.978 459.205 493.758C455.916 483.534 447.927 437.006 448.747 425.966C449.572 414.922 457.034 394.123 456.065 386.371C455.096 378.615 447.104 357.938 447.104 357.938L481.175 369.429" fill="#EEA886"/>
<path d="M423.982 360.896C423.982 360.896 407.952 376.679 405.201 378.464C402.454 380.25 390.471 387.601 386.881 391.004C383.291 394.407 330.183 445.218 327.524 448.999C324.862 452.776 319.368 447.553 323.843 437.79C328.318 428.032 353.832 388.31 361.893 380.719C369.954 373.127 389.498 362.823 394.019 356.444C398.536 350.069 409.862 333.741 409.862 333.741L423.982 360.896" fill="#EEA886"/>
<path d="M472.954 167.958C472.954 167.958 486.997 169.817 492.129 169.648C497.131 169.483 502.356 170.122 508.417 165.807C513.506 162.185 526.767 159.86 535.247 152.795C538.21 150.323 578.817 122.907 578.817 122.907L583.361 129.898C583.361 129.898 550.269 160.796 545.846 163.527C532.836 171.553 517.793 181.596 509.913 186.404C502.95 190.657 494.691 197.566 494.691 197.566C494.691 197.566 495.042 212.135 491.399 216.834C487.756 221.534 488.698 230.111 486.23 234.106C483.762 238.1 473.98 256.693 474.248 259.601C474.51 262.509 487.783 334.803 481.175 369.432C481.175 369.432 442.519 365.845 395.416 347.774C395.416 347.774 398.868 322.05 423.982 303.017C449.091 283.984 427.82 244.873 428.876 240.909C429.933 236.943 423.84 200.386 416.615 187.697C411.11 178.027 381.147 196.172 374.567 199.554C362.889 205.558 334.243 223.957 332.072 224.278C329.928 224.595 327.086 217.91 327.086 217.91C327.086 217.91 371.228 183.442 375.887 181.043C387.934 174.841 414.437 164.127 414.437 164.127C414.437 164.127 439.527 163.905 449.046 163.905C458.56 163.905 472.954 167.958 472.954 167.958" fill="#EEA886"/>
<path d="M430.287 160.795C438.348 161.003 446.722 161.99 450.243 161.99C459.762 161.99 472.576 166.038 472.576 166.038C472.576 166.038 482.205 168.046 488.641 169.305C488.641 169.305 489.106 170.564 489.167 170.575C489.202 170.582 489.251 170.59 489.308 170.601C490.855 170.909 492.207 171.209 493.159 171.482C497.253 172.65 501.611 170.319 509.211 164.696C509.211 164.696 517.52 176.646 518.701 184.34C515.731 185.064 513.763 186.211 512.11 186.403C504.13 187.328 495.006 197.345 494.698 197.56L494.691 197.563V197.565C494.691 197.565 495.041 212.135 491.399 216.833C487.756 221.533 488.698 230.109 486.229 234.105C483.761 238.098 475.391 257.22 475.655 260.129C475.918 263.037 487.782 334.802 481.171 369.431C481.171 369.431 434.209 375.18 382.475 348.818C382.475 348.818 388.579 322.316 408.302 297.744C429.38 271.495 425.602 244.633 426.659 240.667C427.602 237.148 423.138 204.732 417.976 192.091C417.297 190.43 417.061 188.864 416.614 187.696C414.982 183.406 405.502 198.851 395.216 192.523C398.94 187.318 388.518 175.28 388.518 175.28L430.287 160.795" fill="#FBD855"/>
<path d="M332.071 224.275C332.071 224.275 327.856 227.776 327.734 230.25C327.612 232.723 326.182 236.009 325.678 237.024C325.002 238.379 324.45 243.298 322.767 242.479C321.081 241.66 323.294 234.332 323.453 232.706C323.614 231.08 317.647 235.262 315.976 235.166C314.306 235.07 308.178 224.773 312.593 222.378C317.01 219.984 323.244 220.353 323.942 219.777C324.636 219.201 327.085 217.907 327.085 217.907L332.071 224.275" fill="#EEA886"/>
<path d="M317.137 234.851C317.137 234.851 303.148 241.282 301.874 240.925C300.599 240.569 300.313 239.786 301.599 239.13C302.881 238.475 314.94 232.524 314.94 232.524C314.94 232.524 297.166 237.338 296.056 237.277C295.403 237.242 294.759 235.762 295.415 235.347C296.071 234.932 313.432 229.145 313.432 229.145C313.432 229.145 296.831 233.609 295.918 233.278C295.125 232.989 294.87 231.474 296.079 231.058C297.292 230.641 312.483 225.619 312.483 225.619C312.483 225.619 300.206 228.102 299.607 227.36C299.241 226.906 298.623 225.654 301.809 225.113C304.994 224.572 312.388 222.501 312.388 222.501L317.137 234.851" fill="#EEA886"/>
<path d="M519.681 186.652C519.681 186.652 503.064 193.335 494.691 197.563V197.565C486.317 201.794 489.076 170.557 489.076 170.557C489.076 170.557 489.106 170.564 489.167 170.575C489.201 170.582 488.583 169.295 488.64 169.305C490.132 169.573 496.308 171.173 510.156 164.126C510.156 164.126 517.828 174.129 519.002 181.823C519.281 183.634 519.746 185.141 519.681 186.652Z" fill="#FBD855"/>
<path d="M430.287 160.796L417.976 192.091C415.512 188.617 393.79 197.576 393.79 197.576L386.32 174.84C386.32 174.84 416.141 160.177 430.287 160.796" fill="#FBD855"/>
<path d="M586.716 125.482L586.366 125.377C586.938 123.129 585.156 120.345 585.135 120.317L585.435 120.104C585.514 120.223 587.332 123.063 586.716 125.482" fill="#A1725B"/>
<path d="M590.345 109.28C590.345 109.28 584.67 114.023 585.278 115.227C585.886 116.431 586.716 116.493 586.716 116.493L585.221 119.732C585.221 119.732 585.314 122.606 587.99 121.854C587.99 121.854 587.84 124.53 590.33 123.442C590.33 123.442 590.91 125.312 592.155 125.049C593.401 124.787 596.929 121.552 596.929 121.552C596.929 121.552 597.387 120.461 595.97 119.009C595.97 119.009 596.406 117.099 594.946 115.893C594.946 115.893 595.075 114.285 593.487 112.998C593.487 112.998 593.551 109.368 590.953 108.834C590.953 108.834 590.581 109.078 590.345 109.28" fill="#EEA886"/>
<path d="M589.4 116.395L589.186 116.075C591.068 114.715 592.506 113.127 592.528 113.111L592.792 113.379C592.778 113.395 591.311 115.012 589.4 116.395" fill="#A1725B"/>
<path d="M588.841 121.398L588.641 121.071C590.938 119.557 594.022 116.34 594.058 116.308L594.316 116.583C594.28 116.616 591.167 119.862 588.841 121.398" fill="#A1725B"/>
<path d="M591.497 123.088L591.461 123.104L591.297 122.756C592.886 121.953 595.247 119.364 595.269 119.339L595.541 119.608C595.441 119.715 593.136 122.238 591.497 123.088" fill="#A1725B"/>
<path d="M593.115 124.811C592.427 125.164 591.826 125.243 591.325 125.042C590.631 124.77 590.323 124.06 590.209 123.697C589.551 123.944 589.007 123.923 588.584 123.632C588.026 123.242 587.869 122.482 587.826 122.093C586.767 122.325 586.094 121.909 585.7 121.505C585.156 120.935 584.935 120.113 585.042 119.678C585.185 119.112 586.123 117.256 586.445 116.614C585.865 116.429 585.464 116.119 585.271 115.69C584.949 115.005 585.278 114.289 585.285 114.26C585.335 114.167 586.409 112.258 588.964 110.573L589.164 110.9C586.688 112.533 585.622 114.425 585.614 114.445C585.614 114.444 585.357 115.019 585.6 115.529C585.772 115.898 586.158 116.159 586.759 116.304L586.996 116.361L586.881 116.585C586.423 117.471 585.521 119.278 585.4 119.782C585.328 120.063 585.486 120.742 585.958 121.233C586.301 121.592 586.924 121.959 587.94 121.667L588.169 121.6L588.176 121.853C588.176 121.863 588.198 122.901 588.785 123.312C589.135 123.554 589.629 123.538 590.252 123.262L590.459 123.172L590.51 123.404C590.51 123.413 590.71 124.395 591.447 124.683C592.091 124.935 592.957 124.614 594.031 123.726L594.26 124.03C593.852 124.366 593.472 124.626 593.115 124.811" fill="#A1725B"/>
<path d="M580.961 115.903C580.961 115.903 589.8 114.775 589.306 117.863C589.306 117.863 588.74 119.439 586.658 119.824C584.582 120.21 582.006 122.043 582.006 122.043C582.006 122.043 578.814 118.354 580.961 115.903Z" fill="#EEA886"/>
<path d="M587.976 119.578C587.619 119.765 587.232 119.902 586.86 119.971C585.178 120.293 582.108 122.147 582.072 122.166L581.886 121.831C582.015 121.753 585.042 119.926 586.796 119.592C587.948 119.372 589.036 118.546 589.164 117.788C589.243 117.388 589.043 117.025 588.578 116.711C586.939 115.593 581.042 116.076 580.977 116.081L580.941 115.697C581.192 115.676 587.032 115.2 588.778 116.389C589.529 116.898 589.601 117.472 589.529 117.865C589.408 118.559 588.749 119.182 587.976 119.578" fill="#A1725B"/>
<path d="M498.211 515.571L496.186 520.733L462.103 521.309L459.967 515.953L498.211 515.571Z" fill="#FBD855"/>
<path d="M458.956 497.424C458.956 497.424 467.803 495.772 468.135 495.471C468.467 495.173 470.478 491.32 471.981 491.957C473.488 492.598 473.591 497.244 475.063 498.007C476.539 498.766 488.213 506.359 489.659 507.751C491.098 509.147 499.822 508.155 500.867 510.604C501.919 513.054 502.105 518.879 489.041 517.738C475.983 516.594 461.135 518.978 458.3 517.486C455.47 515.999 458.125 501.193 458.956 497.424" fill="#86D693"/>
<path d="M497.854 524.237C497.854 527.457 495.242 530.066 492.028 530.066C488.809 530.066 486.199 527.457 486.199 524.237C486.199 521.021 488.809 518.412 492.028 518.412C495.242 518.412 497.854 521.021 497.854 524.237Z" fill="#F47262"/>
<path d="M471.881 524.237C471.881 527.457 469.272 530.066 466.056 530.066C462.836 530.066 460.227 527.457 460.227 524.237C460.227 521.021 462.836 518.412 466.056 518.412C469.272 518.412 471.881 521.021 471.881 524.237Z" fill="#F47262"/>
<path d="M337.969 481.432L332.987 483.869L307.457 461.292L309.494 455.895L337.969 481.432Z" fill="#FBD855"/>
<path d="M321.257 441.544C321.257 441.544 328.898 446.297 329.345 446.302C329.795 446.305 333.877 444.817 334.555 446.305C335.234 447.793 332.171 451.291 332.748 452.848C333.324 454.404 336.81 467.887 336.936 469.889C337.058 471.892 344.162 477.05 343.281 479.564C342.403 482.074 338.607 486.499 329.741 476.84C320.876 467.184 308.313 458.921 307.229 455.908C306.146 452.893 318.098 443.765 321.257 441.544Z" fill="#86D693"/>
<path d="M331.857 487.583C329.682 489.96 325.997 490.124 323.624 487.949C321.247 485.779 321.083 482.093 323.258 479.717C325.429 477.343 329.114 477.18 331.491 479.354C333.864 481.525 334.028 485.21 331.857 487.583Z" fill="#F47262"/>
<path d="M312.691 470.053C310.52 472.425 306.835 472.589 304.459 470.419C302.086 468.245 301.922 464.559 304.097 462.187C306.267 459.81 309.952 459.65 312.325 461.82C314.702 463.991 314.866 467.676 312.691 470.053" fill="#F47262"/>
<path d="M436.976 367.021C433.058 366.327 428.961 365.476 424.715 364.442C426.108 363.523 427.775 362.989 429.568 362.989C432.677 362.989 435.408 364.592 436.976 367.021Z" fill="#FFE68C"/>
<path d="M461.313 369.766C456.456 369.537 450.856 369.071 444.668 368.224C446.046 365.142 449.139 362.99 452.729 362.99C456.899 362.99 460.393 365.882 461.313 369.766Z" fill="#FFE68C"/>
<path d="M481.851 365.298C481.652 366.725 481.427 368.106 481.172 369.43C481.172 369.43 476.029 370.059 467.273 369.945C468.128 365.97 471.665 362.99 475.899 362.99C478.192 362.99 480.279 363.864 481.851 365.298Z" fill="#FFE68C"/>
<path d="M392.061 346.799C392.061 348.951 391.29 350.92 390.013 352.453C387.514 351.312 385 350.104 382.479 348.818C382.479 348.818 383.412 344.758 385.732 338.335C389.391 339.414 392.061 342.794 392.061 346.799" fill="#FFE68C"/>
<path d="M415.227 346.801C415.227 351.673 411.278 355.621 406.407 355.621C401.531 355.621 397.582 351.673 397.582 346.801C397.582 341.926 401.531 337.977 406.407 337.977C411.278 337.977 415.227 341.926 415.227 346.801Z" fill="#FFE68C"/>
<path d="M438.391 346.801C438.391 351.673 434.442 355.621 429.57 355.621C424.695 355.621 420.746 351.673 420.746 346.801C420.746 341.926 424.695 337.977 429.57 337.977C434.442 337.977 438.391 341.926 438.391 346.801Z" fill="#FFE68C"/>
<path d="M461.555 346.801C461.555 351.673 457.606 355.621 452.734 355.621C447.859 355.621 443.91 351.673 443.91 346.801C443.91 341.926 447.859 337.977 452.734 337.977C457.606 337.977 461.555 341.926 461.555 346.801Z" fill="#FFE68C"/>
<path d="M483.169 341.807C483.181 345.317 483.128 348.746 482.986 352.05V352.054C481.377 354.217 478.802 355.621 475.898 355.621C471.023 355.621 467.074 351.673 467.074 346.801C467.074 341.929 471.023 337.977 475.898 337.977C478.916 337.977 481.579 339.495 483.169 341.807" fill="#FFE68C"/>
<path d="M391.75 324.107C391.479 325.115 391.033 326.053 390.441 326.877C390.856 325.973 391.296 325.05 391.75 324.107Z" fill="#FFE68C"/>
<path d="M415.227 321.785C415.227 326.657 411.278 330.609 406.407 330.609C401.531 330.609 397.582 326.657 397.582 321.785C397.582 316.914 401.531 312.965 406.407 312.965C411.278 312.965 415.227 316.914 415.227 321.785Z" fill="#FFE68C"/>
<path d="M438.391 321.785C438.391 326.657 434.442 330.609 429.57 330.609C424.695 330.609 420.746 326.657 420.746 321.785C420.746 316.914 424.695 312.965 429.57 312.965C434.442 312.965 438.391 316.914 438.391 321.785Z" fill="#FFE68C"/>
<path d="M461.555 321.785C461.555 326.657 457.606 330.609 452.734 330.609C447.859 330.609 443.91 326.657 443.91 321.785C443.91 316.914 447.859 312.965 452.734 312.965C457.606 312.965 461.555 316.914 461.555 321.785Z" fill="#FFE68C"/>
<path d="M482.78 327.302C481.166 329.32 478.683 330.609 475.898 330.609C471.023 330.609 467.074 326.66 467.074 321.785C467.074 316.914 471.023 312.965 475.898 312.965C478.294 312.965 480.472 313.923 482.063 315.475V315.479C482.349 319.397 482.598 323.361 482.78 327.302Z" fill="#FFE68C"/>
<path d="M415.226 296.774C415.226 301.645 411.278 305.598 406.406 305.598C405.181 305.598 404.017 305.346 402.961 304.9C404.616 302.512 406.398 300.119 408.305 297.747C410.087 295.522 411.697 293.295 413.143 291.078C414.444 292.616 415.226 294.603 415.226 296.774" fill="#FFE68C"/>
<path d="M438.391 296.773C438.391 301.645 434.442 305.594 429.57 305.594C424.695 305.594 420.746 301.645 420.746 296.773C420.746 291.902 424.695 287.949 429.57 287.949C434.442 287.949 438.391 291.902 438.391 296.773Z" fill="#FFE68C"/>
<path d="M461.555 296.773C461.555 301.645 457.606 305.594 452.734 305.594C447.859 305.594 443.91 301.645 443.91 296.773C443.91 291.902 447.859 287.949 452.734 287.949C457.606 287.949 461.555 291.902 461.555 296.773Z" fill="#FFE68C"/>
<path d="M481.087 303.908C479.629 304.972 477.836 305.598 475.898 305.598C471.023 305.598 467.074 301.645 467.074 296.774C467.074 291.902 471.023 287.954 475.898 287.954C477.172 287.954 478.382 288.224 479.477 288.709C480.033 293.454 480.583 298.578 481.087 303.908Z" fill="#FFE68C"/>
<path d="M438.39 271.763C438.39 276.631 434.441 280.584 429.566 280.584C425.762 280.584 422.523 278.177 421.283 274.804C422.557 271.301 423.508 267.925 424.213 264.749C425.697 263.614 427.555 262.94 429.566 262.94C434.441 262.94 438.39 266.891 438.39 271.763" fill="#FFE68C"/>
<path d="M461.555 271.762C461.555 276.636 457.606 280.584 452.734 280.584C447.859 280.584 443.91 276.636 443.91 271.762C443.91 266.889 447.859 262.94 452.734 262.94C457.606 262.94 461.555 266.889 461.555 271.762Z" fill="#FFE68C"/>
<path d="M478.435 280.21C477.63 280.454 476.779 280.584 475.898 280.584C471.023 280.584 467.074 276.631 467.074 271.763C467.074 266.891 471.023 262.94 475.898 262.94C475.948 262.94 475.997 262.94 476.051 262.943C476.543 266.319 477.443 272.433 478.435 280.21" fill="#FFE68C"/>
<path d="M438.389 246.751C438.389 251.621 434.441 255.57 429.565 255.57C428.229 255.57 426.963 255.273 425.826 254.741C426.581 247.421 426.238 242.243 426.658 240.667C426.764 240.262 426.802 239.474 426.776 238.379C427.653 238.087 428.592 237.929 429.565 237.929C434.441 237.929 438.389 241.878 438.389 246.751Z" fill="#FFE68C"/>
<path d="M461.555 246.749C461.555 251.621 457.606 255.57 452.734 255.57C447.859 255.57 443.91 251.621 443.91 246.749C443.91 241.877 447.859 237.927 452.734 237.927C457.606 237.927 461.555 241.877 461.555 246.749Z" fill="#FFE68C"/>
<path d="M482.711 241.145C480.594 245.771 478.191 251.503 476.806 255.525C476.509 255.554 476.208 255.57 475.898 255.57C471.023 255.57 467.074 251.621 467.074 246.751C467.074 241.878 471.023 237.929 475.898 237.929C478.641 237.929 481.094 239.182 482.711 241.145Z" fill="#FFE68C"/>
<path d="M438.391 221.739C438.391 226.609 434.443 230.559 429.567 230.559C428.311 230.559 427.118 230.295 426.034 229.824C425.511 225.485 424.741 220.303 423.795 215.069C425.344 213.727 427.362 212.917 429.567 212.917C434.443 212.917 438.391 216.867 438.391 221.739" fill="#FFE68C"/>
<path d="M461.555 221.737C461.555 226.609 457.606 230.559 452.734 230.559C447.859 230.559 443.91 226.609 443.91 221.737C443.91 216.864 447.859 212.915 452.734 212.915C457.606 212.915 461.555 216.864 461.555 221.737Z" fill="#FFE68C"/>
<path d="M484.718 221.737C484.718 226.609 480.77 230.559 475.898 230.559C471.023 230.559 467.074 226.609 467.074 221.737C467.074 216.864 471.023 212.915 475.898 212.915C480.77 212.915 484.718 216.864 484.718 221.737Z" fill="#FFE68C"/>
<path d="M413.466 191.442C408.838 192.057 401.888 194.474 397.607 196.084C397.661 195.276 397.832 194.498 398.092 193.765H398.095C399.305 190.35 402.57 187.906 406.405 187.906C408.213 187.906 409.899 188.453 411.299 189.39C412.135 189.945 412.867 190.639 413.466 191.442Z" fill="#FFE68C"/>
<path d="M438.391 196.725C438.391 201.597 434.442 205.547 429.57 205.547C424.695 205.547 420.746 201.597 420.746 196.725C420.746 191.853 424.695 187.903 429.57 187.903C434.442 187.903 438.391 191.853 438.391 196.725Z" fill="#FFE68C"/>
<path d="M461.555 196.725C461.555 201.597 457.606 205.547 452.734 205.547C447.859 205.547 443.91 201.597 443.91 196.725C443.91 191.853 447.859 187.903 452.734 187.903C457.606 187.903 461.555 191.853 461.555 196.725Z" fill="#FFE68C"/>
<path d="M484.718 196.725C484.718 201.597 480.77 205.547 475.898 205.547C471.023 205.547 467.074 201.597 467.074 196.725C467.074 191.853 471.023 187.903 475.898 187.903C480.77 187.903 484.718 191.853 484.718 196.725Z" fill="#FFE68C"/>
<path d="M494.69 197.564C494.69 197.564 494.761 200.561 494.496 204.277C491.942 202.732 490.238 199.928 490.238 196.727C490.238 196.244 490.274 195.772 490.346 195.31C491.026 191.111 494.668 187.905 499.055 187.905C500.995 187.905 502.777 188.527 504.237 189.582C505.174 190.263 505.976 191.127 506.584 192.12C502.34 193.95 497.903 195.938 494.69 197.564" fill="#FFE68C"/>
<path d="M392.05 172.175C392.012 172.864 391.901 173.533 391.711 174.171C391.382 175.315 390.825 176.358 390.1 177.259C389.448 178.059 388.663 178.746 387.777 179.277L386.32 174.84C386.32 174.84 388.536 173.747 392.05 172.175Z" fill="#FFE68C"/>
<path d="M415.227 171.714C415.227 176.583 411.278 180.533 406.407 180.533C401.672 180.533 397.811 176.809 397.593 172.133C397.586 171.993 397.582 171.854 397.582 171.714C397.582 171.014 397.663 170.332 397.819 169.677C401.909 167.968 406.697 166.098 411.507 164.517C412.308 165.084 413.01 165.784 413.582 166.586C414.62 168.03 415.227 169.801 415.227 171.714" fill="#FFE68C"/>
<path d="M438.391 171.713C438.391 176.585 434.442 180.535 429.57 180.535C424.695 180.535 420.746 176.585 420.746 171.713C420.746 166.842 424.695 162.891 429.57 162.891C434.442 162.891 438.391 166.842 438.391 171.713Z" fill="#FFE68C"/>
<path d="M461.555 171.713C461.555 176.585 457.606 180.535 452.734 180.535C447.859 180.535 443.91 176.585 443.91 171.713C443.91 166.842 447.859 162.891 452.734 162.891C457.606 162.891 461.555 166.842 461.555 171.713Z" fill="#FFE68C"/>
<path d="M484.718 171.714C484.718 176.583 480.77 180.533 475.898 180.533C471.023 180.533 467.074 176.583 467.074 171.714C467.074 169.163 468.158 166.866 469.886 165.256C471.557 165.715 472.575 166.037 472.575 166.037C472.575 166.037 478.439 167.26 484.073 168.398C484.489 169.423 484.718 170.542 484.718 171.714" fill="#FFE68C"/>
<path d="M507.879 171.714C507.879 176.583 503.936 180.533 499.055 180.533C494.189 180.533 490.238 176.583 490.238 171.714C490.238 171.406 490.253 171.1 490.288 170.799C490.324 170.386 490.396 169.978 490.496 169.584C493.029 169.809 497.874 169.602 505.897 166.133C506.061 166.335 506.212 166.544 506.355 166.758H506.362C507.321 168.169 507.879 169.876 507.879 171.714" fill="#FFE68C"/>
<path d="M518.543 179.73C518.027 179.492 517.534 179.204 517.076 178.872C514.85 177.276 513.404 174.663 513.404 171.714C513.404 171.623 513.404 171.531 513.411 171.44C513.433 170.732 513.533 170.045 513.712 169.39C515.53 172.352 517.555 176.162 518.543 179.73" fill="#FFE68C"/>
<path d="M464.426 193.228C451.994 193.786 447.378 175.279 446.74 161.824C446.74 161.824 452.413 157.779 450.849 143.922C450.849 143.922 463.218 134.343 471.076 152.447C471.076 152.447 471.045 152.757 470.981 153.284C470.889 154.121 470.748 155.485 470.641 157.066C470.409 160.197 470.253 164.134 470.737 166.118C471.618 169.761 476.84 192.67 464.426 193.228Z" fill="#EEA886"/>
<path d="M462.641 97.6452C462.641 97.6452 481.643 111.64 479.362 133.821C477.08 156.003 468.107 157.52 456.77 149.893C445.435 142.267 438.103 133.529 435.128 123.018C432.152 112.506 445.344 85.2142 462.641 97.6452" fill="#EEA886"/>
<path d="M459.137 110.386C459.137 110.386 453.498 125.895 449.412 131.773C445.33 137.651 446.532 141.627 446.532 141.627C446.532 141.627 423.856 121.114 435.229 104.836C446.597 88.5572 464.989 91.5509 472.031 103.137C479.077 114.724 479.554 130.14 479.554 130.14C479.554 130.14 477.147 115.634 459.137 110.386" fill="#434343"/>
<path d="M444.78 99.6144C444.78 99.6144 427.643 93.2465 422.703 106.035C417.759 118.823 429.291 133.98 439.999 127.884C450.712 121.788 444.78 99.6144 444.78 99.6144Z" fill="#434343"/>
<path d="M470.999 108.65C470.999 108.65 480.041 92.762 468.211 85.8272C456.385 78.8932 439.568 87.839 443.864 99.3883C448.16 110.938 470.999 108.65 470.999 108.65" fill="#434343"/>
<path d="M438.132 156.982C437.75 156.971 437.452 156.655 437.464 156.276C437.472 155.898 437.789 155.598 438.166 155.609C438.544 155.618 438.845 155.933 438.838 156.312C438.826 156.685 438.521 156.982 438.151 156.982H438.132ZM433.581 156.444C433.554 156.065 433.84 155.738 434.218 155.714C434.595 155.686 434.923 155.972 434.95 156.351C434.977 156.729 434.691 157.056 434.313 157.081L434.263 157.083C433.908 157.083 433.607 156.806 433.581 156.444V156.444ZM441.851 157.399C441.482 157.317 441.248 156.949 441.328 156.579C441.416 156.207 441.783 155.977 442.149 156.059C442.523 156.142 442.755 156.51 442.672 156.88C442.599 157.199 442.317 157.416 442.004 157.416C441.95 157.416 441.901 157.41 441.851 157.399ZM429.796 157.279C429.678 156.919 429.872 156.529 430.231 156.408C430.59 156.288 430.979 156.482 431.097 156.842C431.219 157.199 431.028 157.589 430.666 157.71C430.594 157.735 430.521 157.745 430.448 157.745C430.162 157.745 429.891 157.564 429.796 157.279V157.279ZM445.597 158.47C445.227 158.399 444.983 158.039 445.056 157.666C445.129 157.292 445.487 157.05 445.857 157.122C446.231 157.194 446.475 157.553 446.402 157.924C446.342 158.253 446.052 158.482 445.731 158.482C445.689 158.482 445.643 158.478 445.597 158.47V158.47ZM426.565 159.401C426.317 159.116 426.343 158.681 426.63 158.434C426.916 158.185 427.351 158.215 427.599 158.5C427.847 158.786 427.816 159.22 427.53 159.469C427.404 159.582 427.24 159.637 427.08 159.637C426.889 159.637 426.698 159.557 426.565 159.401ZM424.615 162.732C424.261 162.6 424.081 162.202 424.218 161.847H424.215C424.348 161.494 424.749 161.315 425.1 161.45C425.455 161.581 425.634 161.979 425.5 162.333C425.394 162.608 425.134 162.779 424.855 162.779C424.776 162.779 424.696 162.762 424.615 162.732V162.732ZM470.864 165.859C470.487 165.829 470.2 165.502 470.231 165.123C470.258 164.744 470.585 164.462 470.963 164.489C471.341 164.516 471.623 164.846 471.597 165.225C471.574 165.585 471.272 165.859 470.913 165.859H470.864ZM423.868 166.046C423.791 165.676 424.032 165.313 424.406 165.239C424.776 165.165 425.142 165.404 425.215 165.777C425.287 166.148 425.046 166.51 424.676 166.584C424.631 166.592 424.581 166.598 424.539 166.598C424.218 166.598 423.933 166.373 423.868 166.046ZM469.334 169.402C469.017 169.198 468.922 168.772 469.128 168.454C469.33 168.136 469.758 168.042 470.078 168.245C470.395 168.451 470.49 168.875 470.284 169.196C470.154 169.399 469.929 169.511 469.704 169.511C469.578 169.511 469.449 169.476 469.334 169.402ZM425.706 169.802C425.462 169.509 425.505 169.077 425.794 168.836C426.088 168.594 426.523 168.633 426.763 168.926C427.004 169.218 426.965 169.649 426.672 169.893C426.546 169.997 426.389 170.05 426.237 170.05C426.038 170.05 425.844 169.964 425.706 169.802ZM466.404 171.93C466.195 171.615 466.274 171.189 466.588 170.978C466.904 170.763 467.331 170.846 467.541 171.162C467.755 171.475 467.675 171.9 467.358 172.114C467.244 172.194 467.106 172.232 466.976 172.232C466.755 172.232 466.537 172.125 466.404 171.93V171.93ZM428.854 172.428C428.53 172.235 428.423 171.815 428.618 171.488C428.808 171.162 429.227 171.054 429.556 171.247C429.884 171.439 429.99 171.862 429.796 172.186C429.666 172.403 429.441 172.524 429.204 172.524C429.086 172.524 428.964 172.494 428.854 172.428V172.428ZM462.86 173.501C462.73 173.146 462.913 172.751 463.273 172.622C463.627 172.494 464.024 172.678 464.149 173.034C464.28 173.389 464.096 173.784 463.741 173.913C463.661 173.941 463.581 173.954 463.505 173.954C463.226 173.954 462.963 173.781 462.86 173.501ZM432.547 174.05C432.184 173.935 431.99 173.551 432.1 173.188C432.214 172.826 432.604 172.628 432.967 172.743C433.324 172.859 433.527 173.243 433.409 173.606C433.317 173.896 433.046 174.083 432.756 174.083C432.688 174.083 432.615 174.072 432.547 174.05ZM436.434 174.945C436.06 174.887 435.801 174.537 435.858 174.163C435.919 173.79 436.27 173.531 436.644 173.589C437.018 173.647 437.277 173.998 437.22 174.371C437.163 174.712 436.873 174.954 436.541 174.954C436.507 174.954 436.468 174.95 436.434 174.945ZM459.095 174.434C459.014 174.064 459.259 173.702 459.629 173.624C459.999 173.551 460.361 173.79 460.438 174.163C460.514 174.534 460.273 174.896 459.9 174.971C459.858 174.981 459.808 174.983 459.766 174.983C459.446 174.983 459.16 174.759 459.095 174.434V174.434ZM440.336 175.385C439.963 175.349 439.68 175.017 439.719 174.638C439.753 174.262 440.089 173.981 440.467 174.017C440.84 174.053 441.123 174.386 441.084 174.764C441.054 175.122 440.752 175.388 440.402 175.388L440.336 175.385ZM455.242 174.94C455.204 174.564 455.474 174.226 455.856 174.188C456.233 174.149 456.569 174.424 456.608 174.8C456.646 175.179 456.371 175.514 455.997 175.552L455.924 175.558C455.574 175.558 455.28 175.294 455.242 174.94V174.94ZM444.235 175.681C443.858 175.659 443.572 175.336 443.591 174.956C443.614 174.578 443.942 174.289 444.316 174.311C444.697 174.334 444.983 174.657 444.964 175.036C444.941 175.401 444.64 175.684 444.278 175.684L444.235 175.681ZM451.362 175.149C451.351 174.769 451.644 174.454 452.026 174.44C452.403 174.429 452.724 174.726 452.732 175.104C452.747 175.484 452.449 175.799 452.071 175.813H452.049C451.679 175.813 451.373 175.522 451.362 175.149V175.149ZM448.15 175.838C447.772 175.83 447.471 175.517 447.474 175.138C447.482 174.759 447.795 174.457 448.177 174.465C448.554 174.47 448.856 174.784 448.848 175.162C448.844 175.539 448.535 175.838 448.162 175.838H448.15" fill="#128259"/>
<path d="M470.427 161.333L470.419 162.056C470.438 162.097 471.971 165.54 469.298 169.178C466.627 172.806 459.017 176.642 437.92 174.315C427.958 173.216 424.487 168.32 424.54 164.462C424.591 160.913 427.661 157.073 433.437 156.6C439.831 156.075 442.12 156.834 443.963 157.443C445.504 157.952 446.461 158.505 449.43 157.968C449.43 157.968 449.586 157.645 449.628 157.486C446.732 158.009 445.554 157.679 444.05 157.182C442.185 156.565 439.866 155.798 433.415 156.325C427.475 156.813 424.316 160.785 424.266 164.458C424.209 168.432 427.745 173.469 437.893 174.588C442.356 175.081 446.221 175.297 449.571 175.297C462.133 175.296 467.379 172.25 469.519 169.338C472.288 165.57 470.446 161.375 470.427 161.333" fill="#128259"/>
<path d="M220.233 492.804C220.233 492.804 220.588 488.78 221.683 486.357C222.778 483.931 211.619 483.557 211.619 483.557C211.619 483.557 208.438 493.922 208.438 496.421C208.438 498.916 220.233 492.804 220.233 492.804Z" fill="#EEA886"/>
<path d="M32.0619 434.627C32.0619 434.627 35.4305 432.399 38.0112 431.746C40.5925 431.098 33.9412 422.129 33.9412 422.129C33.9412 422.129 23.8454 426.086 21.891 427.638C19.9365 429.191 32.0619 434.627 32.0619 434.627Z" fill="#EEA886"/>
<path d="M212.308 338.299C212.308 338.299 260.537 383.849 263.86 391.17C267.183 398.491 272.741 402.779 263.128 415.025C253.514 427.271 220.64 489.428 220.64 489.428L210.695 486.677C210.695 486.677 220.11 441.111 228.571 425.581C234.832 414.09 242.565 408.822 235.991 404.888C229.419 400.955 183.373 378.039 177.104 371.321C170.84 364.607 189.724 322.46 212.308 338.299Z" fill="#EEA987"/>
<path d="M34.9583 432.846L32.2188 422.816C32.2188 422.816 62.7781 411.91 76.2439 410.811C92.9968 409.445 100.256 407.111 107.222 402.578C113.46 398.519 111.998 400.091 116.86 392.419C121.725 384.751 140.594 341.742 140.594 341.742C140.594 341.742 145.864 320.683 164.828 314.472C183.304 308.422 205.694 337.579 205.694 337.579C205.694 337.579 168.074 389.619 133.87 415.606C124.189 422.958 130.193 418.739 116.475 428.051C109.181 432.999 82.1896 432.381 70.465 431.976L34.9583 432.846Z" fill="#EEA987"/>
<path d="M207.102 394.441C207.102 394.441 235.718 366.905 240.831 364.154C240.831 364.154 215.057 340.578 212.31 338.301L171.994 325.803C171.994 325.803 171.471 366.954 175.893 370.445C180.314 373.94 205.233 390.901 207.102 394.441" fill="#FFE68C"/>
<path d="M207.458 336.801C207.458 336.801 191.409 357.031 178.972 372.734C177.397 374.721 175.875 376.64 174.451 378.433C170.468 383.473 167.252 387.544 165.696 389.527L126.754 369.659C126.754 369.659 141.433 337.686 143.93 333.41C146.425 329.129 153.73 315.582 163.861 314.811C173.99 314.033 176.839 300.986 207.458 336.801" fill="#FFE68C"/>
<path d="M320.169 296.56C320.169 296.56 321.752 298.751 320.345 300.524C318.937 302.298 319.68 303.378 317.888 304.324C316.095 305.274 317.342 307.792 315.431 308.135C313.745 308.437 309.533 306.96 307.378 306.926C307.244 306.926 307.118 306.93 307 306.937C306.867 306.949 306.744 306.968 306.633 306.998C304.901 307.464 298.924 308.059 297.39 307.762C295.856 307.468 293.281 297.018 293.281 297.018C293.281 297.018 297.592 297.869 301.712 295.649C305.44 293.642 310.609 289.167 313.378 288.931C313.668 288.904 313.935 288.927 314.168 289.004C316.617 289.812 321.462 293.386 321.546 294.283C321.626 295.176 320.169 296.56 320.169 296.56" fill="#EFAA88"/>
<path d="M320.169 296.56C320.169 296.56 321.752 298.751 320.344 300.524C318.936 302.298 319.68 303.378 317.887 304.324C316.094 305.274 317.342 307.792 315.43 308.135C313.744 308.437 309.533 306.96 307.377 306.926C308.472 306.888 311.592 306.731 311.909 306.239C315.251 301.028 313.5 289.346 313.5 289.346L313.378 288.931C313.668 288.904 313.935 288.927 314.167 289.004C316.617 289.812 321.462 293.386 321.546 294.283C321.626 295.176 320.169 296.56 320.169 296.56" fill="#E09F80"/>
<path d="M124.063 276.785C124.063 276.785 124.29 279.131 123.743 280.668C123.31 281.884 123.45 284.109 123.415 285.28C123.379 286.451 122.684 291.476 122.208 292.628C122.013 293.101 119.666 295.496 119.376 296.5C119.087 297.503 118.747 299.616 117.881 299.319C117.015 299.025 116.799 297.038 116.799 297.038C116.799 297.038 116.479 297.935 115.643 297.908C114.017 297.858 113.572 296.935 113.572 296.935C113.572 296.935 112.644 297.622 111.969 297.431C110.481 297.007 110.077 296.103 110.077 296.103C110.077 296.103 109.233 296.321 108.303 295.817C107.114 295.172 107.106 293.841 107.106 293.841C107.106 293.841 105.438 293.371 105.337 292.41C105.236 291.449 105.674 290.705 105.8 289.946C105.926 289.187 109.223 283.663 112.821 279.951C116.01 276.662 117.698 271.132 117.698 271.132L124.063 276.785" fill="#EEA886"/>
<path d="M212.518 244.228C212.518 244.228 157.892 241.668 153.745 244.01C137.896 252.957 124.028 279.375 124.028 279.375L115.58 276.247C115.58 276.247 133.624 229.979 148.708 227.078C166.834 223.591 211.785 222.883 211.785 222.883L212.518 244.228Z" fill="#EEA886"/>
<path d="M233.276 231.202C233.276 231.202 227.37 218.624 216.345 224.397C205.32 230.171 212.225 242.682 212.225 242.682L233.276 231.202Z" fill="#EEA987"/>
<path d="M117.274 296.587C117.274 296.587 119.906 291.269 119.066 289.416C118.227 287.557 117.171 289.423 117.171 289.423C117.171 289.423 118.247 287.599 116.869 286.562C115.491 285.527 114.37 287.778 114.37 287.778C114.37 287.778 114.811 286.172 113.096 285.661C111.382 285.154 110.881 287.236 110.881 287.236C110.881 287.236 110.237 284.604 108.436 285.882C105.396 288.038 105.338 292.41 105.338 292.41C105.338 292.41 105.424 293.463 107.106 293.841C107.106 293.841 107.141 296.442 110.077 296.103C110.077 296.103 111.767 298.594 113.572 296.934C113.572 296.934 115.526 299.483 117.274 296.587Z" fill="#DB9C7C"/>
<path d="M242.816 207.114C241.706 208.459 240.764 210.259 239.986 212.201C239.241 214.033 238.642 215.993 238.166 217.816C237.132 221.774 236.686 225.096 236.686 225.096C236.686 225.096 215.055 216.73 219.545 212.082C224.028 207.433 224.336 191.271 224.336 191.271C224.336 191.271 246.475 202.683 242.816 207.114" fill="#EEA987"/>
<path d="M257.409 163.884C257.409 163.884 263.097 169.047 260.19 183.5C260.19 183.5 261.219 195.086 262.944 197.139C264.668 199.192 258.133 199.796 257.416 201.232C256.699 202.669 255.253 209.434 250.618 213.429C245.987 217.424 223.753 204.591 222.807 197.594C221.865 190.597 206.925 160.368 231.635 159.538C256.34 158.708 257.409 163.884 257.409 163.884" fill="#EEA886"/>
<path d="M260.92 178.297C260.92 178.297 264.353 148.229 235.024 152.972C205.694 157.715 219.638 190.97 223.342 201.789C223.342 201.789 226.856 184.853 237.698 184.873C251.776 184.9 254.751 181.446 260.92 178.297" fill="#D88A51"/>
<path d="M235.502 180.593C233.812 177.494 227.746 178.994 228.33 183.67C228.917 188.345 233.652 193.101 235.304 190.881C236.952 188.662 237.985 185.144 235.502 180.593Z" fill="#EEA987"/>
<path d="M229.664 302.68C228.569 303.741 227.471 305.126 226.383 306.725C226.383 306.725 203.532 293.94 185.693 285.246C187.993 280.275 189.599 274.625 190.588 267.056C193.43 245.199 200.525 233.599 207.236 224.511C213.947 215.422 220.027 211.516 220.027 211.516L236.916 223.644V223.647C238.13 229.111 242.833 235.394 247.541 246.968V246.97C248.338 248.928 249.135 251.04 249.914 253.325C255.644 270.118 254.995 278.113 229.664 302.68" fill="#EDDAD3"/>
<path d="M249.913 253.325C244.527 237.545 238.335 230.037 236.916 223.644L220.027 211.517C220.027 211.517 213.946 215.421 207.239 224.51C200.525 233.599 193.429 245.199 190.587 267.057C190.149 270.408 189.591 273.381 188.905 276.09L185.697 285.246H185.693C181.603 294.097 172.093 301.315 162.65 308.36C161.941 308.895 151.217 316.009 150.654 316.754C150.654 316.754 185.12 336.641 212.309 338.301C212.309 338.301 212.527 337.629 212.977 336.321C214.877 330.789 220.42 315.483 226.382 306.725L226.803 306.121C227.752 304.774 228.71 303.608 229.667 302.68C254.994 278.112 255.644 270.119 249.913 253.325" fill="#8B68D8"/>
<path d="M240.192 212.09C239.451 213.922 238.642 215.995 238.166 217.818C231.257 213.268 227.309 202.044 227.309 202.044C231.97 207.526 240.192 212.087 240.192 212.087V212.09Z" fill="#A77860"/>
<path d="M247.539 246.968V246.97C245.429 252.473 220.025 211.516 220.025 211.516L228.712 217.354L236.914 223.644V223.646C238.128 229.111 242.831 235.394 247.539 246.968Z" fill="#EEA987"/>
<path d="M212.519 244.227C212.519 244.227 226.413 244.587 226.196 232.144C225.978 219.7 211.699 220.264 211.699 220.264L212.519 244.227Z" fill="#8B68D8"/>
<path d="M233.783 235.869C233.783 235.869 255.483 281.178 259.435 283.833C274.542 293.988 297.378 297.193 297.378 297.193L299.709 307.867C299.709 307.867 252.579 303.93 243.225 291.749C231.979 277.111 216.967 246.195 216.967 246.195L233.783 235.869" fill="#EFAA88"/>
<path d="M222.282 157.674C222.282 157.674 211.462 137.302 191.941 151.91C172.424 166.517 181.55 182.807 158.717 191.524C158.717 191.524 172.077 201.717 186.234 189.51C200.392 177.303 202.539 168.175 212.866 171.426C223.193 174.676 225.879 162.485 222.282 157.674" fill="#D88A51"/>
<path d="M233.784 235.871C233.784 235.871 230.743 225.989 220.027 227.759C209.312 229.529 216.236 244.712 216.968 246.197C217.696 247.682 233.784 235.871 233.784 235.871" fill="#EFAA88"/>
<path d="M237.389 240.836L218.116 252.047C218.116 252.047 206.118 230.511 217.474 226.282C228.832 222.054 237.389 240.836 237.389 240.836" fill="#8B68D8"/>
<path d="M251.278 514.451L249.039 520.146L211.439 520.779L209.078 514.87L251.278 514.451Z" fill="#FCCCA2"/>
<path d="M207.964 494.428C207.964 494.428 217.726 492.608 218.093 492.277C218.458 491.945 220.675 487.691 222.339 488.401C223.998 489.106 224.108 494.233 225.738 495.073C227.367 495.912 240.25 504.286 241.84 505.827C243.431 507.365 253.057 506.273 254.213 508.974C255.365 511.675 255.57 518.1 241.161 516.841C226.752 515.582 210.367 518.214 207.243 516.57C204.114 514.921 207.049 498.587 207.964 494.428" fill="#8B68D8"/>
<path d="M249.437 523.607C249.437 527.045 246.651 529.83 243.214 529.83C239.777 529.83 236.992 527.045 236.992 523.607C236.992 520.17 239.777 517.385 243.214 517.385C246.651 517.385 249.437 520.17 249.437 523.607Z" fill="#606063"/>
<path d="M222.225 524.011C222.225 527.563 219.349 530.443 215.797 530.443C212.245 530.443 209.369 527.563 209.369 524.011C209.369 520.463 212.245 517.583 215.797 517.583C219.349 517.583 222.225 520.463 222.225 524.011" fill="#606063"/>
<path d="M28.1781 469.758L22.0578 469.723L7.86914 434.897L12.5259 430.559L28.1781 469.758" fill="#FCCCA2"/>
<path d="M31.1841 422.129C31.1841 422.129 36.412 430.572 36.8536 430.794C37.2951 431.018 42.0614 431.545 42.0041 433.349C41.9462 435.153 37.2057 437.111 37.0117 438.934C36.8185 440.754 33.666 455.797 32.8072 457.838C31.9484 459.874 36.4478 468.458 34.3459 470.511C32.244 472.563 26.3269 475.077 22.2899 461.187C18.2521 447.297 9.87607 432.971 10.2797 429.462C10.6833 425.952 26.976 422.778 31.1841 422.129" fill="#8B68D8"/>
<path d="M19.1176 472.846C15.8069 474.132 12.0826 472.487 10.798 469.176C9.51413 465.864 11.1573 462.141 14.4679 460.855C17.7786 459.574 21.5036 461.218 22.7875 464.525C24.0713 467.837 22.4289 471.564 19.1176 472.846Z" fill="#606063"/>
<path d="M8.75653 446.125C5.44518 447.406 1.72089 445.765 0.436995 442.454C-0.847613 439.143 0.796257 435.416 4.10618 434.134C7.41753 432.849 11.1418 434.492 12.4257 437.804C13.7103 441.115 12.0672 444.839 8.75653 446.125Z" fill="#606063"/>
<path d="M298.592 296.811C298.592 296.811 299.713 303.507 298.592 307.867C298.592 307.867 291.796 307.532 287.799 306.486L288.306 295.4C288.306 295.4 295.974 296.048 298.592 296.811Z" fill="#86D693"/>
<path d="M178.974 372.734C177.399 374.721 175.877 376.641 174.453 378.434C165.851 369.454 160.746 357.646 160.594 357.276C169.639 367.103 178.974 372.734 178.974 372.734Z" fill="#B8A564"/>
<path d="M470.981 153.282C470.889 154.119 470.748 155.484 470.641 157.065C467.959 159.187 458.055 154.708 454.428 148.276C454.969 148.679 465.293 156.351 470.981 153.282Z" fill="#B37E65"/>
<path d="M577.5 124.169C577.5 124.169 578.745 117.721 578.96 116.746C579.182 115.771 581.021 114.004 583.304 112.2C585.58 110.397 589.43 109.197 589.888 109.421C590.353 109.647 590.897 109.631 591.634 110.872C592.364 112.113 592.421 113.585 592.421 113.585C592.421 113.585 593.924 114.668 593.881 116.48C593.881 116.48 595.248 117.571 594.905 119.596C594.905 119.596 596.222 120.701 595.864 122.139C595.864 122.139 594.017 123.913 593.516 124.811C593.008 125.71 586.424 129.58 580.513 132.072C580.513 132.072 579.647 132.272 577.5 124.169" fill="#EEA886"/>
<path d="M593.815 174.568L566.756 0.912289L569.941 0.417059L597 174.072L593.815 174.568" fill="#434343"/>
<path d="M569.46 7.81421C569.46 7.81421 541.907 -3.49321 523.149 7.71043C504.392 18.9134 497.414 33.7747 469.695 32.649C441.967 31.5225 433.784 21.0174 411.227 39.8356C397.279 51.4722 368.236 49.696 368.236 49.696C368.236 49.696 385.548 76.5132 417.197 65.8155C448.846 55.1178 451.753 51.1409 481.135 62.9014C510.518 74.6618 540.754 32.9131 575.943 49.4119L569.46 7.81421Z" fill="url(#paint0_linear)"/>
<defs>
<linearGradient id="paint0_linear" x1="368.235" y1="35.5479" x2="575.942" y2="35.5479" gradientUnits="userSpaceOnUse">
<stop stop-color="#F56060"/>
<stop offset="0.185185" stop-color="#F2A266"/>
<stop offset="0.391534" stop-color="#F5F37B"/>
<stop offset="0.597884" stop-color="#88DB8B"/>
<stop offset="0.798942" stop-color="#718BEB"/>
<stop offset="1" stop-color="#935CD1"/>
</linearGradient>
</defs>
</svg>
