<svg width="213" height="16" viewBox="0 0 213 16" fill="none" xmlns="http://www.w3.org/2000/svg">
<path d="M7.9043 3.70117H1.10742V0.996094H11.6055V3.70117L4.50586 12.3047H11.8105V15H0.804688V12.3047L7.9043 3.70117ZM16.6133 15V0.996094H19.6211V15H16.6133ZM32.6172 7.40234H38.1152V12.5977C38.0632 12.6628 37.9785 12.7604 37.8613 12.8906C37.7507 13.0143 37.5 13.2324 37.1094 13.5449C36.7253 13.8509 36.3151 14.1243 35.8789 14.3652C35.4492 14.5996 34.8828 14.8145 34.1797 15.0098C33.4831 15.2051 32.7637 15.3027 32.0215 15.3027C29.8861 15.3027 28.0827 14.5898 26.6113 13.1641C25.1465 11.7318 24.4141 10.0098 24.4141 7.99805C24.4141 5.98633 25.1465 4.26758 26.6113 2.8418C28.0827 1.41602 29.8861 0.703125 32.0215 0.703125C32.7572 0.703125 33.457 0.800781 34.1211 0.996094C34.7852 1.1849 35.3288 1.41602 35.752 1.68945C36.1816 1.96289 36.5592 2.23633 36.8848 2.50977C37.2168 2.7832 37.4544 3.01432 37.5977 3.20312L37.8223 3.49609L35.918 5.40039C35.8789 5.34831 35.8236 5.27669 35.752 5.18555C35.6868 5.08789 35.5339 4.92513 35.293 4.69727C35.0586 4.4694 34.8014 4.27083 34.5215 4.10156C34.2415 3.92578 33.8737 3.76628 33.418 3.62305C32.9622 3.47331 32.4967 3.39844 32.0215 3.39844C30.7129 3.39844 29.6191 3.83789 28.7402 4.7168C27.8613 5.5957 27.4219 6.68945 27.4219 7.99805C27.4219 9.30664 27.8613 10.4004 28.7402 11.2793C29.6191 12.1582 30.7129 12.5977 32.0215 12.5977C32.6465 12.5977 33.2161 12.5065 33.7305 12.3242C34.2448 12.1354 34.6061 11.9466 34.8145 11.7578L35.1172 11.5039V9.59961H32.6172V7.40234ZM50.9062 7.09961L55.75 0.996094H58.4062V15H55.4082V5.66406L50.9062 11.3965L46.4141 5.70312V15H43.4062V0.996094H46.1113L50.9062 7.09961ZM67.8086 11.6504C68.4206 12.2819 69.153 12.5977 70.0059 12.5977C70.8587 12.5977 71.5879 12.2819 72.1934 11.6504C72.7988 11.0189 73.1016 10.2344 73.1016 9.29688V0.996094H76.0996V9.29688C76.0996 11.0026 75.5202 12.4316 74.3613 13.584C73.2025 14.7298 71.7474 15.3027 69.9961 15.3027C68.2513 15.3027 66.7995 14.7298 65.6406 13.584C64.4818 12.4316 63.9023 11.0026 63.9023 9.29688V0.996094H66.9004V9.29688C66.9004 10.2279 67.2031 11.0124 67.8086 11.6504ZM91.1074 0.996094H94.1055V15H91.5078L84.6133 6.10352V15H81.6055V0.996094H84.2129L91.1074 9.90234V0.996094ZM99.6992 0.996094H104.904C106.942 0.996094 108.651 1.67318 110.031 3.02734C111.411 4.38151 112.102 6.03841 112.102 7.99805C112.102 9.95768 111.411 11.6146 110.031 12.9688C108.651 14.3229 106.942 15 104.904 15H99.6992V0.996094ZM104.904 3.70117H102.707V12.3047H104.904C106.063 12.3047 107.053 11.888 107.873 11.0547C108.693 10.2214 109.104 9.20573 109.104 8.00781C109.104 6.80339 108.703 5.78451 107.902 4.95117C107.102 4.11784 106.102 3.70117 104.904 3.70117ZM116.465 14.7461C116.152 14.4466 115.996 14.0983 115.996 13.7012C115.996 13.2975 116.152 12.946 116.465 12.6465C116.777 12.347 117.155 12.1973 117.598 12.1973C118.04 12.1973 118.418 12.347 118.73 12.6465C119.043 12.946 119.199 13.2975 119.199 13.7012C119.199 14.0983 119.043 14.4466 118.73 14.7461C118.418 15.0456 118.04 15.1953 117.598 15.1953C117.155 15.1953 116.777 15.0456 116.465 14.7461ZM127.508 4.73633C126.635 5.62174 126.199 6.71224 126.199 8.00781C126.199 9.29688 126.635 10.3841 127.508 11.2695C128.38 12.1549 129.441 12.5977 130.691 12.5977C131.948 12.5977 133.012 12.1549 133.885 11.2695C134.757 10.3841 135.193 9.29688 135.193 8.00781C135.193 6.71224 134.757 5.62174 133.885 4.73633C133.012 3.8444 131.948 3.39844 130.691 3.39844C129.441 3.39844 128.38 3.8444 127.508 4.73633ZM125.291 13.1641C123.826 11.7318 123.094 10.0098 123.094 7.99805C123.094 5.98633 123.826 4.26758 125.291 2.8418C126.762 1.41602 128.562 0.703125 130.691 0.703125C132.827 0.703125 134.627 1.41602 136.092 2.8418C137.563 4.26758 138.299 5.98633 138.299 7.99805C138.299 10.0098 137.563 11.7318 136.092 13.1641C134.627 14.5898 132.827 15.3027 130.691 15.3027C128.562 15.3027 126.762 14.5898 125.291 13.1641ZM152.604 0.996094H155.602V15H153.004L146.109 6.10352V15H143.102V0.996094H145.709L152.604 9.90234V0.996094ZM170.697 15H161.195V0.996094H164.203V12.3047H170.697V15ZM174.992 15V0.996094H178V15H174.992ZM193.096 0.996094H196.094V15H193.496L186.602 6.10352V15H183.594V0.996094H186.201L193.096 9.90234V0.996094ZM204.695 12.3047H212.195V15H201.688V0.996094H211.99V3.70117H204.695V6.50391H210.389V9.19922H204.695V12.3047Z" fill="#0094FF"/>
</svg>
