<svg width="597" height="597" viewBox="0 0 597 597" fill="none" xmlns="http://www.w3.org/2000/svg">
<g clip-path="url(#clip0)">
<rect x="94.3496" y="433.52" width="391.28" height="327.946" rx="20" transform="rotate(-66.7552 94.3496 433.52)" fill="#D6EEFF"/>
<path d="M307.858 371.367L351.744 365.393C355.288 364.91 357.931 361.884 357.931 358.307H299.742V364.28C299.742 368.614 303.564 371.951 307.858 371.367Z" fill="#222222"/>
<path d="M74.9746 115.805L76.918 115.639L76.4321 110.433L74.4887 110.599L74.9746 115.805Z" fill="#DDD6FF"/>
<path d="M77.8887 147.041L79.832 146.876L79.3461 141.669L77.4028 141.835L77.8887 147.041Z" fill="#DDD6FF"/>
<path d="M68.4971 118.582L65.3507 114.306L66.9471 113.235L70.0934 117.511L68.4971 118.582Z" fill="#DDD6FF"/>
<path d="M87.3779 144.242L84.2315 139.964L85.8278 138.893L88.9743 143.17L87.3779 144.242Z" fill="#DDD6FF"/>
<path d="M64.3435 124.08L59.3801 121.878L60.2018 120.188L65.1652 122.39L64.3435 124.08Z" fill="#DDD6FF"/>
<path d="M94.1267 137.289L89.1632 135.086L89.9849 133.396L94.9483 135.598L94.1267 137.289Z" fill="#DDD6FF"/>
<path d="M58.1738 131.29L63.6251 130.826L63.4519 128.97L58.0006 129.434L58.1738 131.29Z" fill="#DDD6FF"/>
<path d="M90.8789 128.506L96.3295 128.042L96.1562 126.186L90.7057 126.65L90.8789 128.506Z" fill="#DDD6FF"/>
<path d="M62.0537 140.019L60.9319 138.493L65.4094 135.488L66.5311 137.013L62.0537 140.019Z" fill="#DDD6FF"/>
<path d="M88.9209 121.988L87.7992 120.463L92.2767 117.458L93.3984 118.983L88.9209 121.988Z" fill="#DDD6FF"/>
<path d="M69.9798 145.723L68.2103 144.938L70.515 140.197L72.2846 140.982L69.9798 145.723Z" fill="#DDD6FF"/>
<path d="M83.8119 117.279L82.0423 116.494L84.3471 111.753L86.1167 112.538L83.8119 117.279Z" fill="#DDD6FF"/>
<path d="M536.309 175.869C539.588 176.849 542.346 179.051 543.935 181.96C544.961 178.829 547.268 176.195 550.312 174.677C547.035 173.697 544.277 171.494 542.687 168.586C541.661 171.717 539.355 174.351 536.309 175.869ZM543.401 186.731C542.864 180.971 537.519 176.702 531.488 177.215L531.315 175.359C537.346 174.846 541.816 169.741 541.278 163.981L543.221 163.816C543.223 163.832 543.224 163.849 543.226 163.866C543.79 169.6 549.121 173.843 555.135 173.331L555.308 175.187C549.277 175.701 544.807 180.805 545.345 186.565L543.401 186.731Z" fill="#EEEBFF"/>
<path d="M78.4434 344.757C75.8467 344.757 73.7345 346.869 73.7345 349.467C73.7345 352.063 75.8467 354.176 78.4434 354.176C81.0401 354.176 83.1532 352.063 83.1532 349.467C83.1532 346.869 81.0401 344.757 78.4434 344.757ZM78.4434 356.039C74.82 356.039 71.8711 353.09 71.8711 349.467C71.8711 345.842 74.82 342.893 78.4434 342.893C82.0678 342.893 85.0166 345.842 85.0166 349.467C85.0166 353.09 82.0678 356.039 78.4434 356.039Z" fill="#EEEBFF"/>
<path d="M133.557 203.696L145.802 211.805L166.28 212.652C170.725 212.835 173.875 216.871 172.789 220.993C171.702 225.116 166.925 227.251 162.92 225.402L144.463 216.886L129.657 218.492C114.368 220.148 99.0705 216.072 86.9326 207.235C84.5263 205.483 83.4765 202.504 84.2159 199.701C84.9629 196.865 87.4159 194.73 90.4399 194.274C105.482 192.008 120.938 195.34 133.557 203.696Z" fill="#F6AB0D"/>
<path d="M120.753 203.295C111.797 199.644 101.896 198.377 92.2238 199.674L91.9526 197.828C101.974 196.479 112.238 197.798 121.519 201.582L120.753 203.295ZM124.66 205.069C124.041 204.758 123.417 204.459 122.787 204.172L123.626 202.49C124.279 202.787 124.926 203.098 125.567 203.419L124.66 205.069Z" fill="white"/>
<path d="M337.763 52.6205L327.718 63.1328L324.114 82.4041C323.332 86.5874 318.726 89.0318 314.593 87.4549C310.458 85.878 308.879 81.0716 311.331 77.5262L322.623 61.1887L322.928 46.9596C323.244 32.2673 329.509 18.3286 340.295 8.01616C342.434 5.97072 345.664 5.37394 348.475 6.44701C351.319 7.53134 353.207 10.1366 353.277 13.0603C353.627 27.6004 348.113 41.7876 337.763 52.6205Z" fill="#E47F80"/>
<path d="M329.204 41.6044L327.269 41.3698C328.328 33.3867 331.193 25.9289 335.784 19.2034L337.419 20.2213C332.989 26.7085 330.225 33.9033 329.204 41.6044ZM328.862 45.1927L326.914 45.0883C326.947 44.5261 326.99 43.9659 327.041 43.4069L328.984 43.5698C328.935 44.109 328.894 44.6503 328.862 45.1927Z" fill="white"/>
<path d="M483.61 247.164L469.097 250.395L454.699 264.328C451.575 267.353 446.328 266.877 443.857 263.341C441.385 259.805 442.933 254.989 447.056 253.393L466.051 246.037L474.739 234.473C483.711 222.537 497.139 214.438 512.142 211.772C515.119 211.243 518.138 212.499 519.818 214.904C521.5 217.31 521.558 220.454 519.904 222.877C511.573 235.088 498.593 243.827 483.61 247.164Z" fill="#BE2D57"/>
<path d="M507.572 220.321L507.053 218.531C509.345 217.867 511.712 217.352 514.088 217L514.36 218.844C512.067 219.183 509.783 219.68 507.572 220.321ZM482.909 236.296L481.499 235.08L481.708 234.837C487.923 227.623 495.945 222.217 504.907 219.203L505.501 220.968C496.856 223.876 489.117 229.093 483.119 236.054L482.909 236.296ZM480.412 239.197L479 237.981L480.314 236.455L481.726 237.671L480.412 239.197Z" fill="white"/>
<path d="M124.332 157.004L122.61 156.127C148.766 109.258 194.357 74.3291 247.694 60.2959L248.212 62.0927C195.39 75.9904 150.238 110.585 124.332 157.004Z" fill="#DDD6FF"/>
<path d="M490.998 182.085C472.292 132.377 432.33 91.8125 381.357 70.7948L382.129 69.0837C433.596 90.3053 473.947 131.263 492.833 181.454L490.998 182.085Z" fill="#DDD6FF"/>
<path d="M195.968 92.8212L194.896 91.2652C211.426 80.8846 229.432 73.0096 248.417 67.8585L248.95 69.6513C230.157 74.7505 212.331 82.5456 195.968 92.8212Z" fill="#DDD6FF"/>
<path d="M185.364 99.9786L184.185 98.4943C186.822 96.5843 189.543 94.7166 192.271 92.9418L193.369 94.4826C190.667 96.2392 187.974 98.0885 185.364 99.9786Z" fill="#DDD6FF"/>
<path d="M109.944 281.215C108.829 275.458 107.986 269.568 107.439 263.706C106.593 254.643 106.437 245.474 106.974 236.451L108.922 236.556C108.39 245.489 108.545 254.568 109.383 263.541C109.924 269.344 110.758 275.176 111.863 280.876L109.944 281.215Z" fill="#DDD6FF"/>
<path d="M110.914 285.885C110.744 285.119 110.58 284.351 110.42 283.583L112.334 283.219C112.492 283.981 112.655 284.741 112.823 285.499L110.914 285.885Z" fill="#DDD6FF"/>
<path d="M490.013 296.58L488.133 296.085C491.133 285.71 493.182 275.014 494.223 264.295L496.166 264.468C495.114 275.296 493.044 286.1 490.013 296.58Z" fill="#DDD6FF"/>
<path d="M481.1 178.289C474.503 162.649 465.658 147.927 454.811 134.531L456.354 133.39C467.311 146.921 476.246 161.793 482.91 177.592L481.1 178.289Z" fill="#DDD6FF"/>
<path d="M452.876 132.176C451.109 130.064 449.266 127.96 447.399 125.921L448.868 124.694C450.754 126.754 452.615 128.88 454.4 131.012L452.876 132.176Z" fill="#DDD6FF"/>
<path d="M404.572 338.298C403.416 337.757 402.211 337.457 401.008 337.354L401.009 337.34L333.751 332.333L332.768 358.385L385.273 358.386L354.585 446.431C354.584 446.435 354.583 446.437 354.582 446.44C353.572 449.337 354.899 452.585 357.738 453.912C360.767 455.33 364.372 454.022 365.788 450.992C365.806 450.956 365.817 450.919 365.833 450.883L365.838 450.884L409.739 352.12L409.731 352.117C412.056 346.886 409.781 340.734 404.572 338.298Z" fill="#753D42"/>
<path d="M365.787 450.994L354.816 445.863L351.264 453.458L366.635 460.647C367.934 461.255 369.48 460.695 370.088 459.395C370.481 458.554 370.395 457.565 369.862 456.804L365.787 450.994Z" fill="#222222"/>
<path d="M290.598 516.092L288.197 513.242L360.905 451.981L363.306 454.831L290.598 516.092Z" fill="#222222"/>
<path d="M324.641 406.66C281.486 406.66 246.377 441.769 246.377 484.924C246.377 528.079 281.486 563.188 324.641 563.188C367.796 563.188 402.905 528.079 402.905 484.924C402.905 441.769 367.796 406.66 324.641 406.66ZM324.641 565.052C280.458 565.052 244.514 529.107 244.514 484.924C244.514 440.742 280.458 404.797 324.641 404.797C368.824 404.797 404.769 440.742 404.769 484.924C404.769 529.107 368.824 565.052 324.641 565.052Z" fill="#404040"/>
<path d="M223.377 452.852L221.602 452.288C223.283 446.989 225.398 441.774 227.888 436.792L229.555 437.624C227.109 442.522 225.03 447.644 223.377 452.852Z" fill="#DDD6FF"/>
<path d="M241.549 457.621L239.748 457.141C239.984 456.257 240.23 455.377 240.488 454.501L242.276 455.025C242.022 455.887 241.78 456.752 241.549 457.621Z" fill="#DDD6FF"/>
<path d="M226.301 475.762L224.445 475.591C225.781 461.136 230.137 447.424 237.392 434.835L239.005 435.766C231.886 448.12 227.612 461.576 226.301 475.762Z" fill="#DDD6FF"/>
<path d="M324.642 400.139C277.891 400.139 239.856 438.175 239.856 484.925C239.856 531.677 277.891 569.711 324.642 569.711C371.394 569.711 409.428 531.677 409.428 484.925C409.428 438.175 371.394 400.139 324.642 400.139ZM324.642 577.165C273.781 577.165 232.402 535.787 232.402 484.925C232.402 434.064 273.781 392.686 324.642 392.686C375.503 392.686 416.882 434.064 416.882 484.925C416.882 535.787 375.503 577.165 324.642 577.165Z" fill="#404040"/>
<path d="M321.848 490.8H327.438V361.545H321.848V490.8Z" fill="#222222"/>
<path d="M330.222 485.229C330.056 488.312 327.423 490.677 324.34 490.511C321.257 490.345 318.891 487.712 319.057 484.628C319.223 481.545 321.857 479.181 324.94 479.347C328.023 479.512 330.388 482.146 330.222 485.229Z" fill="white"/>
<path d="M324.638 481.201C322.674 481.201 321.025 482.744 320.919 484.729C320.865 485.723 321.202 486.678 321.867 487.419C322.531 488.159 323.445 488.597 324.44 488.65C325.437 488.703 326.39 488.367 327.13 487.702C327.87 487.037 328.308 486.123 328.361 485.129C328.472 483.077 326.892 481.318 324.84 481.207C324.772 481.203 324.704 481.201 324.638 481.201ZM324.649 492.383C324.513 492.383 324.376 492.379 324.239 492.372C322.251 492.264 320.424 491.391 319.093 489.908C317.764 488.428 317.09 486.517 317.196 484.528C317.417 480.424 320.941 477.255 325.04 477.486C329.145 477.706 332.303 481.226 332.082 485.329C331.976 487.317 331.101 489.145 329.62 490.475C328.24 491.713 326.489 492.383 324.649 492.383Z" fill="#222222"/>
<path d="M254.339 267.318C257.47 263.904 260.589 260.579 261.264 255.159C262.925 241.803 257.034 240.547 259.231 227.257C261.427 213.967 271.27 215.725 273.467 202.436C273.75 200.72 273.78 199.185 273.621 197.796C272.799 195.914 272.147 193.95 271.674 191.93C271.587 191.576 271.511 191.215 271.444 190.865C270.721 187.293 270.563 183.551 271.037 179.746C273.397 160.772 290.698 147.298 309.672 149.658C328.657 152.02 342.13 169.321 339.77 188.295C339.297 192.1 338.226 195.689 336.651 198.975C336.5 199.298 336.341 199.611 336.179 199.932C336.168 199.941 336.168 199.941 336.168 199.941C335.213 201.794 334.09 203.546 332.83 205.18C332.345 206.488 332 207.975 331.856 209.698C330.73 223.121 340.694 223.827 339.567 237.25C338.441 250.672 332.422 250.447 330.761 263.804C330.087 269.224 332.297 273.211 334.506 277.289C336.695 281.374 338.882 285.551 338.165 291.317C336.107 307.864 321.034 319.602 304.486 317.544L273.573 313.699C257.026 311.641 245.297 296.568 247.355 280.022C248.073 274.256 251.216 270.742 254.339 267.318Z" fill="#432823"/>
<path d="M423.7 267.945C424.221 265.426 422.601 262.96 420.082 262.438C417.562 261.918 415.097 263.537 414.576 266.056C414.054 268.576 415.674 271.041 418.193 271.563C420.713 272.084 423.178 270.464 423.7 267.945Z" fill="#FF95A9"/>
<path d="M429.642 260.97V260.976C430.338 260.888 431.059 260.905 431.786 261.055C435.314 261.785 437.58 265.236 436.851 268.763C436.12 272.291 432.669 274.558 429.142 273.828L418.193 271.562L418.551 262.378L429.642 260.97Z" fill="#F8A694"/>
<path d="M355.07 272.061L418.443 262.391L420.429 271.474L358.824 289.222L355.07 272.061Z" fill="#F8A694"/>
<path d="M340.118 307.149L338.006 239.354C337.791 232.448 331.852 227.121 324.964 227.655L280.059 231.136C275.221 231.512 272.025 236.339 273.57 240.94L296.92 310.498C297.845 322.426 308.265 331.348 320.194 330.422C332.122 329.497 341.043 319.078 340.118 307.149Z" fill="#FFD4CC"/>
<path d="M340.179 308.823H296.852L287.605 318.517C283.914 322.387 281.658 327.402 281.211 332.73C280.074 346.28 290.671 357.95 304.268 358.12L332.721 358.476C339.925 358.476 345.765 352.636 345.765 345.432V332.671C345.764 324.397 343.853 316.236 340.179 308.823Z" fill="#753D42"/>
<path d="M348.873 261.984C348.756 260.48 348.357 259.068 347.752 257.779L347.764 257.772L336.872 234.583L336.768 234.631C336.321 233.69 335.759 232.786 335.05 231.955C330.711 226.864 323.066 226.255 317.975 230.594C313.349 234.537 312.437 241.202 315.562 246.209L325.829 268.069L325.842 268.064C327.922 272.49 332.568 275.397 337.733 274.998C344.402 274.48 349.39 268.654 348.873 261.984Z" fill="#FFD4CC"/>
<path d="M412.095 273.876L409.871 263.696L360.69 271.199L335.998 233.222L316.615 247.669L349.783 286.585L349.793 286.579C351.974 289.048 355.449 290.193 358.825 289.22L358.826 289.222L412.095 273.876Z" fill="#FFD4CC"/>
<path d="M299.247 229.648L319.683 228.065L317.057 194.203L296.621 195.787L299.247 229.648Z" fill="#F8A694"/>
<path d="M296.393 202.534L300.632 200.603L296.768 192.124L292.529 194.057C290.187 195.124 289.154 197.886 290.222 200.228C291.289 202.569 294.051 203.601 296.393 202.534Z" fill="#F8A694"/>
<path d="M317.893 163.032L286.031 177.552L304.775 218.682L324.563 209.664C332.486 206.053 335.721 196.509 331.629 188.824L317.893 163.032Z" fill="#F8A694"/>
<path d="M313.808 212.115L312.411 211.766C305.772 208.971 302.628 207.573 298.784 204.079C298.086 203.444 298.086 203.73 297.387 203.031L297.736 211.132C303.092 215.869 311.61 219.559 319.049 219.802V217.705V215.486V212.115C317.652 212.465 315.905 212.814 313.808 212.115Z" fill="#E29686"/>
<path d="M293.377 193.67L292.529 194.057L281.369 169.567L306.606 158.066C313.271 155.029 321.137 157.969 324.173 164.634L324.392 165.114L323.543 165.501C316.324 168.79 310.375 174.345 306.6 181.323C303.653 186.768 299.01 191.102 293.377 193.67Z" fill="#432823"/>
<path d="M324.391 249.318L322.725 227.829L289.961 230.369L324.391 249.318Z" fill="#F8A694"/>
<path d="M346.028 392.385L346.103 392.331L309.098 335.941L285.855 348.804L325.199 399.698L282.239 504.859L282.244 504.861C281.057 507.767 282.29 511.139 285.144 512.563C288.136 514.056 291.774 512.84 293.266 509.847L346.642 402.858L346.636 402.854C348.364 399.392 348.01 395.422 346.028 392.385Z" fill="#753D42"/>
<path d="M190.978 230.022C190.651 227.469 192.457 225.137 195.009 224.811C197.561 224.486 199.894 226.291 200.219 228.843C200.545 231.396 198.74 233.728 196.188 234.054C193.636 234.379 191.303 232.574 190.978 230.022Z" fill="#FF95A9"/>
<path d="M183.447 222.531C184.183 222.437 184.904 222.476 185.591 222.617V222.611L196.541 224.87L196.189 234.055L185.098 235.469C181.524 235.925 178.259 233.398 177.803 229.825C177.347 226.252 179.874 222.986 183.447 222.531Z" fill="#F8A694"/>
<path d="M246.861 268.197L198.666 225.926L192.102 232.511L234.458 280.638L246.861 268.197Z" fill="#F8A694"/>
<path d="M291.362 236.335C287.579 230.817 280.04 229.411 274.523 233.194C274.082 233.497 273.676 233.831 273.288 234.18L273.28 234.169L241.013 263.066L205.188 231.645L197.832 239.026L234.458 280.641L234.459 280.639C237.434 284.017 242.42 284.564 246.039 282.076L246.048 282.088L288.22 253.175C288.221 253.174 288.221 253.174 288.221 253.174C293.739 249.391 295.145 241.851 291.362 236.335Z" fill="#FFD4CC"/>
<path d="M319.79 198.838C318.645 196.249 319.815 193.223 322.403 192.078C324.992 190.932 328.018 192.103 329.163 194.691L319.79 198.838Z" fill="white"/>
<path d="M293.269 509.847L282.43 504.44L278.688 511.944L293.873 519.519C295.156 520.159 296.715 519.639 297.355 518.355C297.77 517.524 297.709 516.533 297.195 515.759L293.269 509.847Z" fill="#222222"/>
</g>
<defs>
<clipPath id="clip0">
<rect width="597" height="597" fill="white"/>
</clipPath>
</defs>
</svg>
