<svg width="44" height="50" viewBox="0 0 44 50" fill="none" xmlns="http://www.w3.org/2000/svg">
<path opacity="0.1" d="M2 27C2 25.3431 3.34315 24 5 24H39C40.6569 24 42 25.3431 42 27V47C42 48.6569 40.6569 50 39 50H5C3.34315 50 2 48.6569 2 47V27Z" fill="black"/>
<path opacity="0.1" d="M0 15C0 13.3431 1.34315 12 3 12H41C42.6569 12 44 13.3431 44 15V19C44 20.6569 42.6569 22 41 22H3C1.34315 22 0 20.6569 0 19V15Z" fill="black"/>
<path opacity="0.1" d="M9 6C9 2.68629 11.6863 0 15 0H15.5C19.0899 0 22 2.91015 22 6.5V12H15C11.6863 12 9 9.31371 9 6Z" fill="black"/>
<path opacity="0.1" d="M22 6.5C22 2.91015 24.9101 0 28.5 0H29C32.3137 0 35 2.68629 35 6C35 9.31371 32.3137 12 29 12H22V6.5Z" fill="black"/>
<rect x="21" y="12" width="2" height="38" fill="#F1F2F3"/>
</svg>
