<svg width="597" height="597" viewBox="0 0 597 597" fill="none" xmlns="http://www.w3.org/2000/svg">
<path d="M381.146 438.594C383.169 473.305 388.902 502.703 390.924 537.41C396.796 537.487 399.308 537.175 405.141 536.475" fill="#21466F"/>
<path d="M399.788 536.905C400.993 536.547 402.251 536.185 403.493 536.388C404.524 536.555 405.446 537.096 406.435 537.431C408.17 538.017 410.051 537.955 411.885 537.915C415.694 537.833 419.503 537.878 423.313 538.047C425.472 545.216 427.341 551.778 430.594 558.532C431.324 560.047 432.107 561.546 432.649 563.135C433.354 565.196 433.643 567.37 433.926 569.525C434.222 571.754 434.515 574.019 434.177 576.243C434.088 576.811 433.926 577.429 433.444 577.76C433.121 577.983 432.711 578.03 432.318 578.075C421.899 579.176 411.365 579.224 400.939 578.211C398.044 577.928 395.151 577.566 392.244 577.461C387.396 577.29 382.543 577.836 377.705 577.57C376.969 577.529 376.005 577.233 376.045 576.511C376.059 576.218 376.256 575.967 376.442 575.739C377.334 574.649 378.224 573.564 379.113 572.474C377.339 571.797 375.344 572.034 373.47 571.695C371.597 571.352 369.591 569.994 369.725 568.125C369.827 566.705 371.119 565.667 372.377 564.954C378.164 561.673 385.216 561.447 391.459 559.101C392.902 558.56 394.319 557.892 395.492 556.907C396.794 555.814 397.745 554.372 398.481 552.857C400.792 548.113 401.614 541.847 399.788 536.905Z" fill="#FFCFAA"/>
<path d="M394.699 563.034C394.98 563.665 395.363 564.328 396.019 564.563C397.291 565.017 398.764 563.628 399.96 564.245C400.34 564.444 400.596 564.809 400.854 565.146C403.096 568.052 406.744 569.62 410.389 570.275C416.186 571.323 422.346 570.302 427.475 567.45C429.446 566.351 431.319 564.976 433.529 564.481C434.724 568.108 434.93 572.046 434.118 575.772C434.026 576.201 433.901 576.656 433.566 576.941C433.283 577.18 432.9 577.259 432.535 577.326C423.323 579.069 414.5 578.667 404.522 578.666C397.5 578.666 392.5 578.666 386 578.668C382.5 578.666 379.459 578.59 376.234 578.224C375.848 576.047 377.098 573.691 379.131 572.756C377.066 572.723 375.001 572.567 372.951 572.296C372.206 572.199 371.42 572.062 370.854 571.577C370.029 570.867 369.947 569.575 370.392 568.59C370.834 567.602 371.694 566.86 372.566 566.204C375.553 563.948 378.965 562.307 382.481 561.009C384.228 560.363 386.004 559.802 387.796 559.28C389.051 558.911 391.419 557.746 392.729 558.133C393.601 558.392 393.549 559.209 393.708 559.971C393.926 561.023 394.259 562.054 394.699 563.034Z" fill="#1A1A1A"/>
<path d="M429.793 286.282C437.63 297.138 438.286 328.281 427.146 341.845C427.146 341.845 421.043 388.03 412.582 419.428C418.692 462.373 427.623 538.1 427.623 538.1H404.632C404.632 538.1 377.336 427.74 377.336 419.428C377.336 416.345 373.693 348.846 372.329 323.629C370.773 295.713 369.461 279.14 369.461 279.14" fill="#21466F"/>
<path d="M391.755 99.3727C393.453 98.2307 395.689 99.5961 397.254 100.907C401.153 104.171 405.348 107.984 405.716 113.002C406.128 118.647 401.454 123.907 402.403 129.488C402.846 132.097 404.466 134.336 405.579 136.744C406.471 138.673 407.048 140.741 407.276 142.849C407.326 143.273 407.356 143.713 407.224 144.12C407.057 144.636 406.647 145.038 406.245 145.418C402.393 149.055 398.234 152.379 393.825 155.346C391.196 149.601 388.376 143.616 383.297 139.77C382.198 138.939 380.976 138.211 379.614 137.956C378.727 137.789 377.817 137.829 376.915 137.871C374.858 137.963 372.795 138.058 370.735 138.149C369.346 138.214 367.932 138.276 366.58 137.958C362.659 137.037 360.199 133.244 358.681 129.575C357.16 125.908 356.054 121.884 353.192 119.099C351.785 117.731 349.889 116.519 349.633 114.595C349.447 113.173 350.25 111.812 350.426 110.388C350.752 107.741 348.903 105.226 349.032 102.563C349.144 100.204 350.846 98.1289 352.931 96.9522C355.018 95.7805 357.453 95.3658 359.844 95.1027C367.018 94.3133 374.331 94.7154 381.373 96.2869" fill="#FFCFAA"/>
<path d="M382.515 60.5316C384.25 60.1146 386.064 60.8643 387.535 61.8623C389.006 62.8603 390.296 64.1214 391.876 64.9406C395.623 66.8769 400.181 65.9832 404.353 66.6858C410.014 67.6416 414.979 71.847 416.773 77.2067C418.057 81.057 417.782 85.2426 418.649 89.2022C419.842 94.6587 423.117 99.4077 426.071 104.172C427.194 105.981 428.29 107.838 428.916 109.869C430.179 113.958 429.421 118.446 427.696 122.371C425.974 126.296 423.348 129.759 420.741 133.182C420.826 141.367 420.639 148.939 420.724 157.123C420.731 157.791 420.53 158.687 419.849 158.7C419.849 158.7 419.436 160.902 419.198 160.614C417.292 158.293 415.759 154.394 413.858 152.07C412.822 150.802 411.703 148.829 410.654 147.571C409.3 145.945 407.979 144.729 407.094 142.815C404.883 138.046 403.287 131.901 401.205 127.078C400.206 124.762 398.508 123.565 397.482 121.261C399.373 119.898 400.317 117.49 400.198 115.191C400.079 112.89 398.998 110.711 397.497 108.94C395.723 106.848 392.92 105.182 390.263 105.952C387.9 106.639 386.454 109.025 385.865 111.376C385.279 113.727 385.316 116.197 384.695 118.543C384.322 119.945 383.718 121.289 382.911 122.502C382.043 123.803 380.572 125.067 379.059 124.618C377.742 124.223 377.146 122.748 376.783 121.44C375.911 118.319 375.269 114.98 373.155 112.498C371.696 110.787 369.676 109.655 367.7 108.556C363.314 106.125 358.931 103.69 354.55 101.26C353.904 100.902 353.149 100.535 352.458 100.793C351.615 101.106 351.369 102.141 351.25 103.022C350.756 106.52 350.264 110.02 349.774 113.521C349.645 114.432 349.523 115.398 349.896 116.244C350.433 117.468 351.807 118.064 352.888 118.871C354.992 120.444 356.081 122.964 357.249 125.295C358.834 128.47 360.733 131.497 362.899 134.322C364.863 136.879 367.621 139.498 370.854 139.083C372.775 138.835 374.385 137.541 376.244 137.015C379.307 136.146 382.662 137.517 384.953 139.696C387.242 141.873 388.678 144.753 390.07 147.571C391.302 150.068 392.535 152.566 393.767 155.063C392.366 156.704 390.591 158.082 389.19 159.723C383.047 166.929 376.88 174.158 371.726 182.08C367.777 180.146 364.89 176.527 363.063 172.58C361.235 168.632 360.362 164.335 359.55 160.073C359.194 158.203 358.847 156.304 359.045 154.413C359.219 152.774 359.87 151.232 360.089 149.606C360.263 148.318 359.96 147.188 359.945 145.905C359.905 142.809 360.236 139.858 359.773 136.752C358.906 130.928 357.932 124.213 353.516 120.129C352.353 119.057 350.346 118.352 349.458 117.051C347.667 114.424 348.561 111.766 348.596 108.603C348.633 105.44 346.802 101.903 344.362 99.8372C341.666 97.5557 342.396 93.832 342.21 90.3391C342.026 86.8462 342.861 83.2292 344.983 80.424C346.817 78.0011 349.478 76.3155 351.566 74.0986C352.562 73.041 353.424 71.8643 354.369 70.7571C360.859 63.1557 372.707 62.895 382.515 60.5316Z" fill="#74413F"/>
<path d="M380.859 280.475C379.453 280.602 372.535 280.562 369.458 279.14C369.664 263.527 363.293 206.909 364.337 200.866C366.036 191.031 369.031 184.198 374.7 175.921C378.345 170.601 400.237 145.753 407.806 143.526C421.265 160.015 430.12 181.945 434.345 202.669C438.571 223.393 435.709 279.405 432.809 286.699C432.7 286.975 432.573 287.265 432.322 287.434C432.073 287.598 431.753 287.605 431.455 287.608C428.746 287.62 428.448 287.6 425.739 287.565" fill="#3093CD"/>
<path d="M363.422 128.27C365.261 127.852 367.152 127.689 369.038 127.793L369.17 125.315C367.06 125.204 364.936 125.382 362.873 125.849L363.422 128.27Z" fill="white"/>
<path d="M389.16 362.668C389.366 364.972 388.496 369.244 386.844 370.892C386.309 371.421 385.693 371.883 384.982 372.146C383.879 372.548 382.634 372.429 381.536 372.027C380.435 371.622 379.458 370.949 378.532 370.242C378.38 370.123 378.216 370.004 378.025 369.981C377.769 369.951 377.535 370.105 377.304 370.215C376.546 370.57 375.622 370.478 374.871 370.105C374.123 369.728 373.529 369.102 373.06 368.42C372.868 368.144 372.689 367.851 372.431 367.64C372.004 367.295 371.422 367.221 370.89 367.069C368.895 366.503 367.416 364.778 366.649 362.884C365.881 360.992 366.03 358.157 365.873 356.126C373.641 359.13 381.404 361.312 389.16 362.668Z" fill="#FFCFAA"/>
<path d="M398.661 199.824C394.814 208.737 392.404 218.24 391.516 227.877C391.146 231.859 391.621 236.044 390.301 239.845C388.957 243.727 387.548 247.414 386.576 251.468C382.494 268.57 380.573 286.069 377.104 303.288C373.682 320.278 368.509 336.983 364.448 353.851C364.366 354.201 364.282 354.569 364.379 354.916C364.555 355.552 365.251 355.88 365.872 356.125C373.252 359.015 380.926 361.177 388.738 362.567C389.25 362.659 389.797 362.744 390.276 362.543C391.014 362.232 391.315 361.371 391.529 360.606C392.953 355.587 395.256 350.728 396.675 345.709C401.131 342.951 405.693 340.098 408.819 335.938C411.93 331.807 413.369 326.728 414.929 321.822C418.833 309.556 423.868 297.615 426.817 285.093C429.456 273.887 430.386 262.371 431.308 250.904C432.908 231.017 427.97 207.063 422.466 187.861" fill="#3093CD"/>
<path d="M213.991 544.521C214.153 544.469 214.336 544.419 214.496 544.486C214.666 544.561 214.753 544.745 214.826 544.913C216.664 549.245 218.657 553.86 222.628 556.462C226.467 558.979 231.384 559.106 235.732 560.613C234.705 562.353 233.676 564.091 232.648 565.828C232.141 566.685 231.624 567.552 230.896 568.236C230.433 568.671 229.891 569.024 229.391 569.42C227.783 570.699 226.594 572.482 226.039 574.442C225.964 574.706 225.884 574.999 225.659 575.163C225.45 575.31 225.169 575.307 224.911 575.297C217.641 575.026 210.526 573.249 203.321 572.263C195.781 571.233 188.149 571.064 180.54 570.9C180.742 564.331 180.946 557.765 181.147 551.197C181.164 550.61 181.249 549.91 181.781 549.64C181.954 549.553 182.153 549.528 182.347 549.506C188.219 548.779 194.215 547.617 200.128 547.366C201.892 547.294 203.59 547.55 205.336 547.165C208.257 546.525 211.135 545.41 213.991 544.521Z" fill="#1A1A1A"/>
<path d="M209.959 518.583C209.566 526.631 208.475 538.781 207.429 546.772L186.382 549.324C187.457 539.292 187.838 527.267 187.398 517.188" fill="#FFCFAA"/>
<path d="M241.421 288.607C239.51 288.607 241.14 295.211 241.421 296.057C245.323 307.842 246.497 318.958 247.234 331.331C243.066 370.718 236.817 405.657 230.126 444.71C227.112 462.301 224.096 479.899 220.471 497.378C218.988 504.525 217.334 511.822 213.343 517.968C203.248 518.298 193.589 518.584 183.491 518.914C188.833 463.616 188.49 404.947 185.24 349.491C177.594 336.296 173.347 310.917 180.034 292.651" fill="#193350"/>
<path d="M200.358 292.879C190.119 293.323 179.879 293.77 169.641 294.217C168.001 276.889 166.364 259.561 164.721 242.233C163.131 225.389 161.463 208.22 162.164 191.28C162.701 178.366 165.601 165.072 173.572 154.797C175.841 151.87 178.492 149.224 180.49 146.108C181.648 144.303 182.615 142.307 184.287 140.952C185.962 139.596 194.781 141.093 197.344 142.119C202.879 144.02 207.483 147.866 211.712 151.86C215.695 155.623 219.521 159.658 222.117 164.449C224.555 168.945 225.825 173.949 226.893 178.934C228.765 187.675 230.08 196.53 230.827 205.432C231.485 213.29 231.706 221.209 233.227 228.949C235.074 238.326 238.789 247.238 241.419 256.433C244.528 267.299 246.117 278.584 246.127 289.872C237.92 290.131 229.476 290.493 221.266 290.754" fill="#B6B3B4"/>
<path d="M241.758 92.0207C245.913 95.5551 249.094 100.073 252.022 104.66C253.283 106.638 254.547 109.073 253.575 111.172C252.818 112.811 250.882 113.717 250.291 115.422C249.947 116.405 250.118 117.49 250.29 118.525C250.847 121.843 251.4 125.16 251.956 128.478C252.235 130.138 251.171 131.166 249.722 132.008C248.27 132.851 246.558 133.173 245.106 134.016C241.978 135.831 240.71 139.574 239.163 142.826C237.915 145.449 236.347 147.918 234.504 150.164C233.755 151.078 232.871 152.006 231.697 152.197C230.663 152.367 229.628 151.925 228.663 151.493C225.62 150.13 222.577 148.769 219.534 147.406C218.892 147.12 218.204 146.825 217.512 146.921C216.83 147.015 216.266 147.468 215.747 147.906C210.24 152.542 211.783 154.786 206.985 160.137C204.872 151.704 194.87 145.243 186.636 141.041C192.171 136.008 195.671 128.823 196.222 121.348C196.388 119.077 196.298 116.788 196.537 114.529C196.884 111.27 197.916 108.115 199.348 105.176C201.335 101.096 204.101 97.3983 207.456 94.3343C211.475 90.6691 216.497 87.8704 221.961 87.3896C227.428 86.9102 233.321 89.0569 236.496 93.55" fill="#FFCFAA"/>
<path d="M252.834 105.625C251.704 103.023 247.527 99.584 245.603 97.4872C241.577 99.5341 240.72 101.813 236.695 103.86C235.346 104.548 233.994 105.234 232.748 106.08C227.294 109.775 224.193 116.603 224.986 123.165C223.244 121.78 221.958 119.841 221.363 117.715C221.072 116.663 220.939 115.556 220.45 114.578C219.351 112.353 216.326 111.289 214.096 112.344C212.784 112.964 211.851 114.14 210.903 115.229C209.953 116.317 208.865 117.406 207.451 117.743C206.037 118.079 204.253 117.325 203.995 115.896C202.27 119.827 199.511 123.082 195.574 124.845C191.638 126.607 186.252 125.694 183.991 121.982C185.982 122.714 188.29 121.49 189.27 119.645C190.246 117.8 190.123 115.539 189.53 113.516C188.938 111.495 187.913 109.623 187.12 107.669C185.792 104.407 185.112 100.933 184.438 97.4872C183.443 92.3957 182.464 87.021 184.177 82.1568C185.111 79.5069 186.788 77.2003 188.441 74.929C191.182 71.1756 195.76 70.0621 200.395 69.3544C205.034 68.6514 209.82 68.6709 214.296 67.3008C220.377 65.4376 225.874 61.0353 232.261 61.4038C237.564 61.708 242.158 65.3165 245.603 69.378C246.581 70.5332 247.508 71.7506 248.138 73.1203C248.69 74.3298 249.003 75.6378 249.618 76.8145C251.528 80.4778 255.894 82.1952 258.444 85.4552C260.773 88.4344 261.346 92.5767 260.228 96.1386C259.11 99.7009 256.126 103.84 252.834 105.625Z" fill="#1A2338"/>
<path d="M224.922 136.008C227.479 136.522 229.918 137.458 232.143 139.001L233.52 136.934C231.086 135.284 228.282 134.151 225.413 133.575L224.922 136.008Z" fill="white"/>
<path d="M165.383 188.351C171.69 228.235 183.2 267.764 206.902 300.709C206.479 301.231 206.054 301.752 205.63 302.273C210.507 297.264 215.383 292.254 220.26 287.244C221.745 285.718 215.583 272.118 214.771 269.629C212.66 263.181 210.604 256.715 208.67 250.213C204.729 236.969 203.892 213.266 201.479 199.667C200.033 191.512 198.893 183.083 194.805 175.849C190.712 168.615 182.8 162.752 174.448 163.76" fill="#B6B3B4"/>
<path d="M213.538 306.097C212.174 303.527 210.813 300.553 210.013 297.766L219.369 288.109C225.055 294.613 227.831 303.036 230.472 311.211C231.117 313.209 231.763 315.208 232.408 317.206C228.608 324.907 222.735 329.427 215.256 331.48C215.535 326.17 215.814 320.858 216.093 315.548C216.159 314.272 216.225 312.981 215.991 311.725C215.617 309.709 214.501 307.914 213.538 306.097Z" fill="#FFCFAA"/>
<path d="M230.261 570.306C231.06 570.306 231.972 570.577 233.134 570.949C233.483 571.062 233.836 571.175 234.187 571.277C236.221 571.87 242.873 574.172 243.171 578.993C243.197 579.435 243.139 579.636 243.083 579.728C242.841 580.125 241.72 580.179 241.348 580.2C221.057 581.21 200.682 579.79 180.745 575.942C181.742 570.933 182.045 565.662 182.335 560.553C182.517 557.448 182.701 554.245 183.039 551.179C183.215 551.132 183.392 551.089 183.568 551.05C184.654 550.807 185.772 550.648 187.116 550.481C193.699 549.679 200.376 549.302 207.037 549.342C208.027 555.225 210.644 560.091 214.819 563.815C218.181 566.811 222.449 568.251 226.53 569.318C224.83 570.865 224.045 573.139 223.687 574.783C212.371 572.29 200.769 570.868 189.184 570.554L189.117 573.037C200.975 573.358 212.852 574.857 224.415 577.491L225.757 577.796L225.925 576.433C226.048 575.438 226.616 572.079 228.768 570.726C229.241 570.428 229.725 570.306 230.261 570.306ZM228.65 583C232.925 583 237.201 582.893 241.475 582.677C242.312 582.634 244.277 582.539 245.204 581.019C245.56 580.438 245.706 579.725 245.651 578.837C245.263 572.578 237.992 569.8 234.883 568.894C234.553 568.799 234.223 568.693 233.893 568.586C232.585 568.167 231.156 567.71 229.712 567.846L229.78 567.575C225.25 566.466 220.112 565.207 216.474 561.963C212.449 558.373 210.114 553.791 209.34 547.952L209.197 546.886L208.125 546.872C201.041 546.773 193.863 547.155 186.816 548.019C185.399 548.19 184.209 548.361 183.021 548.627C182.519 548.742 182.027 548.871 181.543 549.017L180.765 549.25L180.668 550.054C180.256 553.448 180.052 556.985 179.856 560.409C179.545 565.846 179.222 571.466 178.056 576.647L177.776 577.889L179.026 578.137C195.359 581.374 212.001 583 228.65 583Z" fill="#1A1A1A"/>
<path d="M245.91 579.594C246.05 579.594 246.201 579.579 246.363 579.552C247.599 579.331 249.136 578.222 249.589 577.224C250.147 575.997 249.831 574.696 249.625 573.838C249.125 571.745 248.559 569.369 247.436 567.243C246.106 564.732 244.068 562.73 241.699 561.613C239.996 560.809 238.18 560.467 236.427 560.131L235.506 559.955C231.546 559.165 227.681 557.92 224.016 556.252C222.506 555.561 220.941 554.767 219.74 553.595C217.827 551.736 216.734 548.883 216.29 544.616L216.146 543.221L214.775 543.533C212.196 544.127 210.364 545.711 207.827 546.478L207.784 547.959C209.827 547.342 211.909 546.775 213.989 546.271C214.409 549.183 215.36 552.8 218.008 555.375C219.485 556.812 221.354 557.765 222.988 558.51C226.824 560.259 230.873 561.564 235.021 562.388L235.963 562.569C237.64 562.887 239.222 563.187 240.636 563.858C242.524 564.746 244.157 566.363 245.237 568.403C246.215 570.25 246.721 572.367 247.208 574.415C247.378 575.119 247.514 575.784 247.326 576.201C247.147 576.501 246.237 577.092 245.902 577.111C245.958 577.114 246.15 577.14 246.325 577.315L244.553 579.056C244.766 579.274 245.203 579.594 245.91 579.594Z" fill="#1A1A1A"/>
<path d="M231.045 570.143L233.53 570.076C233.496 568.865 233.462 567.609 233.845 566.549C234.119 565.793 234.646 565.047 235.109 564.386C235.774 563.435 236.389 562.628 237.18 562.365L236.393 560.009C234.76 560.556 233.746 562.003 233.074 562.964C232.55 563.705 231.895 564.636 231.508 565.704C230.966 567.206 231.008 568.768 231.045 570.143Z" fill="#1A1A1A"/>
<path d="M289.176 22.2405C288.668 22.8281 288.19 23.4457 287.759 24.0933C290.067 22.3906 292.428 20.9839 294.822 19.8816C292.785 20.2676 290.856 21.0954 289.176 22.2405ZM307.385 17.66C313.531 18.6722 322.503 21.9789 329.717 26.9497C329.114 24.0847 327.787 21.3828 325.526 18.951C320.857 13.9459 310.142 13.3155 301.196 15.6615C303.307 16.026 305.391 16.7036 307.385 17.66ZM316.314 24.6681C316.559 24.964 316.796 25.2641 317.033 25.5644C321.305 31.1442 323.859 38.6668 324.41 47.3217C324.436 47.7806 324.458 48.2353 324.475 48.6856C327.408 43.479 329.652 37.8863 330.052 32.5466C326.034 29.2013 321.004 26.5337 316.314 24.6681ZM278.663 8.28886C278.633 8.28886 278.607 8.28886 278.577 8.28886C274.476 8.30172 270.889 11.9301 268.606 14.9795C260.733 25.4572 262.9 40.5539 267.572 51.2289C270.208 44.3239 274.05 37.9206 278.917 32.3408C278.925 31.869 278.956 31.393 279.007 30.9084C279.503 26.1906 282.281 21.8974 286.256 19.0196C287.5 17.6686 288.948 16.4549 290.644 15.4127C291.079 15.1425 291.54 14.8808 292.018 14.6278C289.546 11.4412 285.394 8.28886 278.663 8.28886ZM283.439 34.8797C284.494 40.4209 289.223 45.0272 293.534 47.549C296.317 49.1831 302.368 52.0009 309.125 54.1411C310.206 51.7951 309.978 48.7799 309.741 45.6276L309.603 43.6076C309.341 38.937 307.153 34.5109 305.275 31.1699C304.142 29.1413 302.725 26.8211 300.869 24.9726C300.266 24.3764 299.542 23.8274 298.819 23.2699C298.703 23.1798 298.591 23.0897 298.47 22.9996C293.75 24.8052 289.137 27.9618 284.714 32.4222C284.417 32.7182 284.128 33.0184 283.844 33.3186C283.697 33.8333 283.568 34.3565 283.439 34.8797ZM313.29 55.3462C315.319 55.8695 317.364 56.3026 319.363 56.6029C319.462 56.4613 319.565 56.3198 319.664 56.1783C320.168 53.6821 320.315 50.8343 320.112 47.592C319.613 39.7905 317.364 33.0699 313.609 28.172C311.49 25.4014 308.841 23.2141 305.968 21.743C305.03 21.6144 304.215 21.58 303.578 21.6144C303.69 21.7216 303.802 21.8288 303.91 21.936C306.145 24.1576 307.756 26.7911 309.035 29.0813C311.137 32.8169 313.587 37.8176 313.902 43.3674L314.035 45.306C314.281 48.5526 314.552 52.1382 313.29 55.3462ZM324.385 57.0317C326.84 57.139 329.083 56.7958 331.026 56.1182C333.864 55.1231 335.738 53.3476 336.754 50.6885C338.619 45.7992 337.684 41.0129 333.963 36.4409C332.555 43.5776 328.704 50.7743 324.385 57.0317ZM281.906 42.2866C281.893 42.3681 281.876 42.4582 281.858 42.5397L281.264 45.6405C279.886 52.6742 283.112 63.0362 289.348 65.8454C294.064 67.9726 300.077 65.1291 306.416 57.7866C299.431 55.432 293.569 52.5499 291.346 51.2461C287.957 49.2603 284.356 46.1509 281.906 42.2866ZM270.282 56.6029C271.134 58.0611 272.03 59.3734 272.96 60.5572C280.407 69.9712 293.664 74.1571 305.206 70.7518C306.253 70.4387 307.256 70.0784 308.217 69.6624C308.708 69.1992 309.186 68.7231 309.659 68.2299C311.322 66.4843 313.781 63.7824 316.421 60.4628C314.561 60.1111 312.696 59.6608 310.87 59.1547C300.559 71.8969 292.531 71.9955 287.574 69.7524C279.455 66.094 275.316 53.5749 277.043 44.8214L277.625 41.7505C277.681 41.446 277.741 41.1415 277.797 40.8327C274.524 45.6748 271.983 50.9887 270.282 56.6029ZM268.912 62.3413C268.18 66.9647 268.679 70.6016 270.415 73.4023C273.516 78.4245 280.325 79.9214 285.648 79.6898C290.166 79.4753 294.702 78.2487 298.931 76.1515C287.918 76.8163 276.514 71.9784 269.58 63.2119C269.351 62.9246 269.132 62.6329 268.912 62.3413ZM284.555 84C278.219 84 270.574 81.8341 266.746 75.6539C263.933 71.112 263.528 65.2105 265.522 57.615C265.565 57.452 265.604 57.2934 265.647 57.1347C264.971 55.8609 264.312 54.5056 263.67 53.0517C256.956 37.7834 257.507 22.5879 265.156 12.4062C269.274 6.92504 273.908 4.01715 278.559 4C278.594 4 278.633 4 278.667 4C287.811 4 293.147 8.7907 296.028 12.8437C306.33 8.99656 321.516 8.33606 328.683 16.0388C332.83 20.4907 334.506 25.543 334.527 30.784C335.393 31.5946 336.203 32.4308 336.939 33.2972C341.935 39.1729 343.266 45.7135 340.781 52.2111C339.308 56.0753 336.504 58.7473 332.451 60.1669C329.54 61.1791 326.176 61.4664 322.64 61.2605C322.231 62.2812 321.753 63.2462 321.21 64.1555C318.919 68.0069 315.245 71.1592 310.628 73.2865C303.613 79.6983 294.727 83.554 285.851 83.9701C285.425 83.9872 284.994 84 284.555 84Z" fill="#222222" fill-opacity="0.59"/>
</svg>
