<svg width="597" height="597" viewBox="0 0 597 597" fill="none" xmlns="http://www.w3.org/2000/svg">
<g clip-path="url(#clip0)">
<g clip-path="url(#clip1)">
<path d="M306.634 25.228V393.872C306.634 398.966 302.528 403.124 297.441 403.124H126.245C121.158 403.124 117 398.966 117 393.872V25.228C117 20.1344 121.158 15.9712 126.245 15.9712H297.441C302.528 15.9712 306.634 20.1344 306.634 25.228Z" fill="#D6EEFF"/>
<path d="M428.661 131.109C428.661 131.109 435.487 126.682 430.893 115.336C426.298 103.996 424.159 108.856 416.429 106.156C408.317 103.316 412.51 94.1584 407.506 92.92C401.798 91.5047 407.911 87.9013 407.1 80.0707C406.294 72.2354 406.504 57.0583 415.926 54.656C427.659 51.6625 453.687 41.0758 458.198 130.69L428.661 131.109Z" fill="#F6DAC6"/>
<path d="M448.968 259.093C448.968 259.093 426.002 256.982 441.03 327.035C456.671 399.981 444.255 417.281 452.782 472.268C460.584 522.622 452.782 556.462 472.991 556.843C493.209 557.228 514.944 562.787 514.944 558.188C514.944 553.589 482.45 550.264 480.811 539.41C474.39 496.829 491.258 476.89 489.39 431.346C487.85 393.595 512.122 323.052 500.917 287.346C491.258 256.535 491.777 250.666 448.968 259.093Z" fill="#F6DAC6"/>
<path d="M403.539 230.65C406.5 209.434 395.725 154.621 408.712 125.991C430.047 122.261 451.867 122.261 473.197 125.991C486.185 154.621 479.88 209.284 478.371 230.65C476.866 252.015 491.957 262.799 491.957 262.799H389.957C389.957 262.799 400.572 251.889 403.539 230.65Z" fill="#F6DAC6"/>
<path d="M432.982 259.093C432.982 259.093 460.896 258.195 440.967 327.035C414.545 418.306 432.596 415.043 416.998 468.468C398.199 532.874 406.518 556.462 386.189 556.843C365.85 557.228 343.986 562.787 343.986 558.188C343.986 553.589 376.674 550.264 378.322 539.41C384.781 496.829 380.233 478.071 381.773 432.517C384.183 361.138 369.452 323.052 380.718 287.346C390.445 256.535 389.918 250.666 432.982 259.093Z" fill="#F6DAC6"/>
<path d="M390.898 262.799H491.966C505.827 285.147 504.099 310.423 504.099 310.423L441.432 327.564L377.027 310.228C377.027 310.228 377.032 285.147 390.898 262.799Z" fill="#AD3232"/>
<path d="M473.483 126.214L468.105 125.352C465.588 135.163 462.229 161.237 441.316 162.554C423.089 161.406 417.462 135.81 414.009 125.437L409.148 126.214C390.875 146.375 401.842 210.986 401.842 210.986H480.794C480.794 210.986 491.761 146.375 473.483 126.214Z" fill="#AD3232"/>
<path d="M473.156 126.072C473.156 126.072 521.153 141.479 524.928 219.64C527.442 271.776 464.3 198.619 458.1 195.614C451.895 192.61 449.963 196.506 443.152 196.549C439.941 196.572 439.626 194.943 445.314 192.986C449.394 191.582 454.48 187.634 453.117 182.658C452.182 179.255 447.288 178.996 442.776 183.503C438.075 188.202 440.543 178.339 445.037 175.429C447.335 173.941 452.548 171.556 459.698 179.611C471.821 193.267 491.699 201.248 497.533 202.938C497.533 202.938 470.815 165.232 473.156 126.072Z" fill="#F6DAC6"/>
<path d="M409.039 126.072C409.039 126.072 361.441 141.479 357.707 219.64C355.214 271.776 417.816 198.619 423.969 195.614C430.121 192.61 432.037 196.506 438.791 196.549C441.979 196.572 442.287 194.943 436.647 192.986C432.601 191.582 427.558 187.634 428.909 182.658C429.832 179.255 434.689 178.996 439.159 183.503C443.825 188.202 441.378 178.339 436.926 175.429C434.642 173.941 429.473 171.556 422.389 179.611C410.363 193.267 390.647 201.248 384.872 202.938C384.872 202.938 411.361 165.232 409.039 126.072Z" fill="#F6DAC6"/>
<path d="M416.432 52.841C410.466 54.9105 408.241 62.1187 411.727 67.3556C415.218 72.6111 420.935 79.016 429.267 82.0432C444.694 87.6491 426.308 94.507 431.271 111.535C436.23 128.563 473.564 129.133 472.543 112.395C471.898 101.79 463.133 101.883 459.75 95.119C455.252 86.1308 457.44 77.5304 453.074 63.4175C447.781 46.2867 428.665 48.5899 416.432 52.841Z" fill="#27284E"/>
<path d="M222.358 131.109C222.358 131.109 215.439 126.682 220.096 115.336C224.757 103.996 226.924 108.856 234.754 106.156C242.972 103.316 238.731 94.1584 243.798 92.92C249.588 91.5047 243.382 87.9013 244.209 80.0707C245.03 72.2354 244.818 57.0583 235.264 54.656C223.378 51.6625 196.993 41.0758 192.422 130.69L222.358 131.109Z" fill="#F6DAC6"/>
<path d="M210.264 326.961V327.003C210.217 327.144 210.217 327.243 210.175 327.379C202.838 361.749 201.714 383.706 201.714 403.124H159.736C158.984 397.675 158.096 391.986 157.109 386.198C154.711 372.003 151.887 357.047 149.87 342.66C149.583 340.45 149.301 338.287 149.019 336.171C148.784 334.055 148.507 331.987 148.319 329.965C148.22 329.448 148.173 328.931 148.126 328.418C147.52 322.259 147.186 316.33 147.186 310.688C147.144 309.089 147.186 307.397 147.285 305.709C147.421 303.588 147.562 301.425 147.797 299.263C147.844 298.839 147.896 298.416 147.938 297.993C148.408 294.185 149.113 290.611 150.147 287.32C153.207 277.682 155.271 270.446 157.95 265.41C158.138 264.987 158.42 264.611 158.66 264.192C158.66 264.141 158.702 264.141 158.702 264.094C158.937 263.722 159.125 263.341 159.36 262.965C159.36 262.965 159.36 262.918 159.412 262.918C159.412 262.824 159.459 262.777 159.548 262.73C159.877 262.26 160.211 261.884 160.535 261.461L160.587 261.418C160.911 260.99 161.287 260.614 161.621 260.285C161.997 259.909 162.373 259.58 162.749 259.298C163.073 258.969 163.449 258.691 163.825 258.451L163.872 258.404C163.971 258.357 164.06 258.315 164.159 258.263C168.859 255.348 175.764 254.925 187.237 256.524C191.562 257.088 196.539 257.986 202.325 259.11C202.325 259.11 206.086 258.734 209.611 262.965C209.611 262.965 209.653 263.017 209.653 263.059C214.776 269.27 219.242 285.439 210.264 326.961Z" fill="#F6DAC6"/>
<path d="M247.794 230.65C249.303 209.284 255.609 154.621 242.621 125.991C221.291 122.261 199.471 122.261 178.136 125.991C165.148 154.621 171.454 209.284 172.963 230.65C174.472 252.015 159.381 262.799 159.381 262.799H261.381C261.381 262.799 246.285 252.015 247.794 230.65Z" fill="#F6DAC6"/>
<path d="M268.851 403.124H225.246C224.019 387.052 220.774 365.483 209.761 327.406C209.761 327.26 209.714 327.161 209.662 327.015C197.616 285.406 203.026 269.278 209.219 263.057C209.27 263.005 209.318 263.005 209.318 262.958C213.346 258.938 217.675 259.084 217.675 259.084C238.518 255.021 249.187 254.283 255.729 258.106C259.361 260.212 261.724 263.692 263.79 268.789C265.804 273.543 267.62 279.674 270.03 287.315C270.671 289.276 271.209 291.237 271.605 293.198C278.487 322.017 270.228 353.427 268.851 403.124Z" fill="#F6DAC6"/>
<path d="M260.423 262.799H159.371C145.507 285.147 147.239 310.423 147.239 310.423L209.897 327.564L274.311 309.943C274.311 309.943 274.287 285.147 260.423 262.799Z" fill="#AD3232"/>
<path d="M242.186 126L237.787 125.352C234.757 135.658 229.507 161.201 210.02 162.432C189.573 161.14 184.492 135.385 181.815 125.352L177.853 126C159.575 146.212 170.547 210.986 170.547 210.986H249.497C249.497 210.986 260.464 146.212 242.186 126Z" fill="#AD3232"/>
<path d="M178.181 126.072C178.181 126.072 130.177 141.479 126.411 219.64C123.892 271.776 187.038 198.619 193.238 195.614C199.443 192.61 201.375 196.506 208.187 196.549C211.402 196.572 211.712 194.943 206.024 192.986C201.944 191.582 196.858 187.634 198.221 182.658C199.152 179.255 204.05 178.996 208.563 183.503C213.263 188.202 210.795 178.339 206.306 175.429C203.998 173.941 198.79 171.556 191.644 179.611C179.512 193.267 159.632 201.248 153.808 202.938C153.808 202.938 180.522 165.232 178.181 126.072Z" fill="#F6DAC6"/>
<path d="M242.298 126.072C242.298 126.072 289.889 141.479 293.632 219.64C296.125 271.776 233.518 198.619 227.37 195.614C221.218 192.61 219.298 196.506 212.549 196.549C209.366 196.572 209.053 194.943 214.693 192.986C218.738 191.582 223.777 187.634 222.43 182.658C221.507 179.255 216.65 178.996 212.176 183.503C207.515 188.202 209.962 178.339 214.418 175.429C216.697 173.941 221.866 171.556 228.955 179.611C240.975 193.267 260.685 201.248 266.469 202.938C266.469 202.938 239.977 165.232 242.298 126.072Z" fill="#F6DAC6"/>
<path d="M234.905 52.7178C240.88 54.7908 243.096 62.0114 239.609 67.2573C236.119 72.5218 230.402 78.9377 222.075 81.9701C206.643 87.5856 225.029 94.4553 220.071 111.512C215.112 128.57 177.775 129.141 178.796 112.374C179.445 101.751 188.205 101.844 191.593 95.0683C196.086 86.0647 192.36 76.5604 197.62 62.7274C203.693 46.7372 222.672 48.4593 234.905 52.7178Z" fill="#27284E"/>
<path d="M238.395 82.5327C238.395 83.9247 237.752 85.0537 236.958 85.0537C236.164 85.0537 235.521 83.9247 235.521 82.5327C235.521 81.1406 236.164 80.0164 236.958 80.0164C237.752 80.0164 238.395 81.1406 238.395 82.5327Z" fill="#27284E"/>
<path d="M415.099 82.5327C415.099 83.9247 414.296 85.0537 413.304 85.0537C412.311 85.0537 411.508 83.9247 411.508 82.5327C411.508 81.1406 412.311 80.0164 413.304 80.0164C414.296 80.0164 415.099 81.1406 415.099 82.5327Z" fill="#27284E"/>
<path d="M411.228 98.7266C410.615 98.7266 410.105 98.2081 410.072 97.5386C410.035 96.844 410.527 96.2502 411.163 96.2149C411.186 96.2099 413.257 96.0438 413.516 94.6948C413.651 94.0153 414.245 93.5573 414.895 93.7234C415.522 93.8644 415.926 94.5338 415.791 95.2082C415.285 97.8256 412.718 98.6511 411.284 98.7266C411.265 98.7266 411.247 98.7266 411.228 98.7266Z" fill="#E69596"/>
<path d="M240.107 93.6895C240.088 93.6895 240.07 93.6895 240.051 93.6895C238.618 93.765 236.053 94.5915 235.548 97.207C235.413 97.8873 235.807 98.5575 236.438 98.6986C237.097 98.8448 237.686 98.4064 237.811 97.7311C238.08 96.3755 240.144 96.2092 240.163 96.2041C240.807 96.1739 241.299 95.5793 241.266 94.8889C241.234 94.2136 240.724 93.6895 240.107 93.6895Z" fill="#E69596"/>
<path d="M234.795 79.0502C236.415 77.857 236.07 77.0819 239.046 76.4955C242.724 75.7765 238.917 72.8087 235.445 75.134C232.283 77.2502 233.284 80.167 234.795 79.0502Z" fill="#27284E"/>
<path d="M414.525 79.0502C413.067 77.857 413.383 77.0819 410.704 76.4955C407.393 75.7765 410.82 72.8087 413.945 75.134C416.791 77.2502 415.89 80.167 414.525 79.0502Z" fill="#27284E"/>
</g>
</g>
<defs>
<clipPath id="clip0">
<rect width="597" height="597" fill="white"/>
</clipPath>
<clipPath id="clip1">
<rect width="408" height="598" fill="white" transform="translate(117 -38)"/>
</clipPath>
</defs>
</svg>
