<svg width="597" height="597" viewBox="0 0 597 597" fill="none" xmlns="http://www.w3.org/2000/svg">
<path d="M343.116 151.078H439.803C458.851 151.078 474.436 135.472 474.436 116.398V52.8224C474.436 36.9699 461.485 23.9999 445.655 23.9999H343.116C324.067 23.9999 308.482 39.6067 308.482 58.6814V116.398C308.482 135.472 324.067 151.078 343.116 151.078Z" fill="#D2E1FD"/>
<path d="M135.971 150.627H249.72C269.706 150.627 286.059 134.252 286.059 114.238V56.1226C286.059 39.3311 272.339 25.5928 255.571 25.5928H135.971C115.985 25.5928 99.6328 41.968 99.6328 61.9816V114.238C99.6328 134.252 115.985 150.627 135.971 150.627Z" fill="#D2E1FD"/>
<path d="M162.836 44.4744C154.427 54.08 155.575 72.0468 140.908 74.4655C133.967 75.6103 125.339 72.558 118.611 74.087C112.021 75.5847 108.691 81.2303 107.755 87.2714C106.819 93.3115 107.826 99.9198 107.642 106.194C107.581 108.279 107.364 110.391 106.194 111.959C103.23 115.929 95.7549 114.951 90.269 116.304C81.7198 118.415 78.1092 126.668 79.1848 135.177C80.2611 143.685 85.1852 152.437 90.4243 160.796C94.737 167.678 99.5171 174.686 106.362 180.154C117.857 189.338 133.154 192.471 146.15 191.939C166.832 191.092 184.225 182.006 192.977 167.478C199.423 156.778 201.539 143.158 211.55 135.13C217.859 130.071 226.765 127.727 233.74 123.315C245.107 116.125 250.814 103.251 248.918 89.0745C248.245 84.0445 245.897 80.4914 243.444 75.6919C239.82 68.6027 240.49 68.3846 240.879 61.7146C241.388 52.9741 234.847 49.144 224.021 44.224C203.49 34.8925 174.305 31.3754 162.836 44.4744Z" fill="#6B3844"/>
<path d="M200.111 163.779C197.435 150.934 185.13 146.066 173.836 152.722C169.597 155.221 165.403 157.696 161.553 159.972C155.78 163.384 147.652 167.144 142.525 170.195C154.159 139.824 166.09 122.767 168.234 109.914H154.414C143.532 129.671 125.109 163.423 114.565 188.15C111.387 195.603 123.664 204.812 131.317 202.178C151.266 195.316 181.494 185.156 190.184 181.627C197.804 178.532 201.814 171.949 200.111 163.779Z" fill="#F8A694"/>
<path d="M338.724 516.142C333.05 525.246 325.156 548.315 325.156 548.315C322.381 555.815 329.812 558.162 335.131 551.466L355.372 525.98C356.342 524.757 356.376 523.274 355.441 522.884C354.728 522.586 339.421 516.065 338.724 516.142Z" fill="#F8A694"/>
<path d="M232.502 424.301C232.255 423.772 209.648 361.111 207.689 329.642C208.182 329.688 211.165 308.53 207.95 301.754L244.597 303.073L251.604 300.216C254.252 363.538 261.908 397.722 266.756 413.551C273.939 437 310.911 467.74 343.7 516.629C353.31 530.943 348.196 545.204 334.075 535.904C329.43 532.845 339.275 538.245 332.834 531.043C297.792 491.858 257.758 458.948 242.257 440.929C239.479 437.701 233.685 428.073 232.502 424.301Z" fill="#F8A694"/>
<path d="M233.749 532.629C229.212 542.352 224.152 566.207 224.152 566.207C222.301 573.986 229.961 575.419 234.434 568.129L251.458 540.386C252.276 539.055 252.131 537.578 251.156 537.304C250.411 537.095 234.431 532.469 233.749 532.629Z" fill="#F8A694"/>
<path d="M156.158 414.966C156.044 414.392 148.872 348.157 154.398 317.116C154.865 317.276 162.759 297.425 161.235 290.08L196.532 300.037L204.014 298.92C191.638 361.073 191.006 396.101 191.98 412.629C193.423 437.114 222.089 475.736 242.406 531.002C248.365 547.184 242.247 559.813 230.723 547.435C226.931 543.362 233.004 550.958 228.446 542.433C203.648 496.064 172.52 454.608 161.712 433.43C159.775 429.637 156.418 418.91 156.158 414.966Z" fill="#F8A694"/>
<path d="M154.586 297.1C155.931 277.853 159.373 258.9 161.585 239.27C162.91 227.517 163.996 204.09 161.67 192.355C159.377 180.783 161.952 168.672 168.46 159.003C180.923 140.485 203.417 131.876 219.517 135.363C250.77 141.328 235.326 182.577 235.326 182.577C232.763 195.597 227.991 208.053 227.631 221.45C226.941 247.203 250.293 265.35 253.886 288.332C223.553 301.157 185.969 305.571 154.586 297.1Z" fill="#D2E1FD"/>
<path d="M253.885 288.331C254.826 294.356 254.428 300.71 251.86 307.626C230.474 330.714 195.293 338.996 154.223 317.943C154.009 310.941 154.105 303.981 154.585 297.099C185.968 305.57 223.552 301.156 253.885 288.331Z" fill="#CD8A9A"/>
<path d="M251.86 307.626C251.86 307.626 225.923 311.499 207.689 329.642C207.689 329.642 232.527 332.13 251.86 307.626Z" fill="#F8A694"/>
<path d="M198.491 329.925C198.491 329.925 173.75 312.674 154.397 317.117C154.397 317.117 148.364 337.387 198.491 329.925Z" fill="#F8A694"/>
<path d="M452.512 499.309C455.649 510.54 450.508 519.093 439.332 511.671L428.098 522.128C422.609 527.416 428.02 532.52 435.363 528.977L463.304 515.49C464.644 514.842 465.288 513.583 464.646 512.86L452.632 498.862C452.493 498.707 452.721 499.384 452.512 499.309Z" fill="#F8A694"/>
<path d="M410.104 297.97L402.587 298.202L362.637 284.237C362.943 288.246 357.2 316.476 352.658 344.891L393.518 351.789C400.234 330.26 408.295 310.403 410.104 297.97Z" fill="#123456"/>
<path d="M455.671 503.43C455.127 501.482 415.117 447.332 397.404 425.936C394.478 422.401 391.845 419.174 389.449 416.15C387.413 413.58 385.635 410.756 384.054 407.749C382.904 390.323 387.705 370.43 393.517 351.789L352.657 344.891C349.464 364.871 346.863 384.945 347.38 396.755C347.574 401.179 348.184 405.483 349.171 409.846L349.24 409.848C350.332 415.041 351.414 417.56 352.252 418.789C354.257 421.726 355.688 424.855 358.171 427.871C372.036 444.699 396.069 462.641 427.522 499.25C429.317 501.338 441.354 514.661 443.505 516.091C454.68 523.512 458.807 514.661 455.671 503.43Z" fill="#F8A694"/>
<path d="M431.75 554.201L415.876 526.747C415.094 525.394 413.374 524.613 412.459 525.192L397.895 534.439C397.046 534.977 397.328 536.42 398.481 537.451L422.531 558.956C428.85 564.605 435.72 561.063 431.75 554.201Z" fill="#F8A694"/>
<path d="M456.11 296.942C456.111 296.515 451.373 295.772 451.348 295.359L405.947 295.494C405.987 295.905 406.003 296.305 406.072 296.732C408.554 312.276 410.31 329.939 411.481 348.036L453.121 349.127C455.003 329.578 456.104 311.863 456.11 296.942Z" fill="#123456"/>
<path d="M422.873 539.022C433.808 476.379 447.944 402.949 453.123 349.128L411.483 348.037C413.202 374.652 412.732 402.211 413.144 425.414C413.808 462.704 403.551 531.02 403.551 531.02C401.643 544.875 420.279 553.887 422.873 539.022Z" fill="#F8A694"/>
<path d="M357.13 127.347C350.447 128.895 346.817 131.252 346.817 131.252L349.418 140.315L349.785 140.302C342.696 151.201 341.24 168.114 343.768 191.64C357.472 174.019 362.767 148.364 357.13 127.347Z" fill="#FFA69E"/>
<path d="M399.724 170.566C412.722 160.031 419.461 146.375 422.934 126.561C399.737 121.125 384.568 123.015 370.011 124.998C369.75 147.883 376.776 175.161 399.724 170.566Z" fill="#F8A694"/>
<path d="M422.935 126.56C420.025 143.162 415.165 153.557 405.723 164.267C399.898 169.236 390.345 173.383 379.109 162.875C372.284 153.787 369.857 138.615 370.012 124.997C364.978 125.683 360.658 126.531 357.131 127.347C362.769 148.364 357.475 174.019 343.77 191.64C344.71 200.392 346.185 210.033 348.152 220.66C351.662 239.633 357.619 257.667 358.011 276.682C358.204 286.116 356.644 291.686 359.299 300.949C455.947 299.323 453.096 300.189 456.33 297.26C458.529 295.268 459.009 292.046 459.326 289.094C461.943 264.769 456.078 237.897 455.402 211.964C435.871 189.301 433.883 159.376 433.878 129.303C431.942 128.774 424.835 127.005 422.935 126.56Z" fill="#D2E1FD"/>
<path d="M504.301 130.828C498.478 117.515 492.104 104.744 487.555 95.9785H470.176C471.996 102.503 473.777 109.61 474.19 111.064C477.43 122.467 484.731 146.344 486.89 159.063C487.004 159.73 486.97 160.211 486.827 160.554C471.561 152.314 456.798 143.139 442.671 133.066C441.398 132.159 440.04 131.21 438.481 131.108C438.15 131.086 437.834 131.112 437.526 131.16V130.331C436.302 129.966 435.091 129.633 433.879 129.303C433.885 159.375 435.873 189.301 455.404 211.964C455.108 200.633 456.998 189.577 457.897 178.746C474.613 185.575 493.609 192.434 499.99 192.541C504.021 192.609 510.791 190.713 515.007 187.233C517.336 185.607 518.874 182.98 518.983 180.091C519.408 168.841 512.389 149.317 504.301 130.828Z" fill="#F8A694"/>
<path d="M400.432 136.663C403.423 134.989 409.324 130.019 410.04 124.854L410.18 118.342C400.698 118.024 392.191 112.793 385.365 106.6L384.992 123.998C391.73 128.802 392.492 136.724 400.432 136.663Z" fill="#F8A694"/>
<path d="M405.294 111.539L404.753 111.486C397.033 106.778 391.322 101.488 387.957 96.4141C387.202 96.581 386.413 96.6958 385.576 96.729L385.365 106.6C392.192 112.794 400.698 118.026 410.179 118.344L410.302 112.642C408.709 112.564 407.042 112.226 405.294 111.539Z" fill="#E29686"/>
<path d="M427.185 51.7755C420.985 50.6496 414.485 52.651 408.147 52.9403L411.11 54.7045L407.183 55.7801L406.603 61.7729C406.615 61.8914 405.111 77.4347 405.111 77.4347C405.025 78.3206 404.234 78.9713 403.341 78.8841C402.81 78.8328 402.386 78.5151 402.13 78.0892L401.863 80.8456L401.542 84.1625C401.052 84.154 400.612 84.0904 400.18 84.0193C400.004 84.5618 396.661 94.4928 387.955 96.4126C391.32 101.486 397.031 106.777 404.751 111.484L405.292 111.538C407.04 112.224 408.708 112.563 410.3 112.641C423.054 113.263 430.716 96.1205 431.363 89.4306L431.394 89.1071L433.407 68.3053L433.483 67.5284C434.04 61.2417 431.515 55.5259 427.185 51.7755Z" fill="#F8A694"/>
<path d="M400.182 84.0202C391.947 82.6648 393.627 70.464 393.627 70.464C396.132 63.003 401.436 66.671 402.79 67.7636L401.885 77.1217C401.849 77.4783 401.96 77.8046 402.132 78.0901C402.388 78.516 402.812 78.8338 403.343 78.885C404.237 78.9722 405.028 78.3215 405.113 77.4356L406.618 61.8923C406.605 61.7738 407.186 55.781 407.186 55.781L411.113 54.7055L408.15 52.9412C414.487 52.6519 420.988 50.6505 427.187 51.7764C431.517 55.5268 434.042 61.2426 433.491 67.3956L434.785 54.0216C435.226 49.4687 432.991 45.1283 429.092 41.8625C430.533 38.1756 411.716 28.7797 409.05 28.5217C408.382 28.4572 407.597 28.1669 406.877 28.0967C406.273 28.0389 405.717 28.1356 405.317 28.6535C405.243 28.7493 405.205 28.8432 405.196 28.9362C405.033 30.6207 396.841 27.5039 391.87 27.024C389.604 26.8039 385.291 26.7669 385.073 29.0196C384.926 30.5278 386.825 31.4374 387.815 32.6326C387.749 32.6269 387.683 32.6202 387.617 32.6136C383.348 32.201 377.741 31.8889 377.329 36.1402C377.197 37.5041 377.502 38.9601 377.377 40.25C376.763 46.5899 368.925 39.9589 368.158 47.8828C367.589 53.7569 371.235 52.669 370.503 60.3017C370.55 63.4821 373.045 72.2008 375.456 72.8666C376.523 81.3483 379.514 87.4254 383.261 87.8C384.221 93.4219 385.224 96.7588 385.224 96.7588C385.346 96.7569 385.456 96.7332 385.577 96.7285C386.414 96.6953 387.203 96.5805 387.958 96.4135C396.664 94.4937 400.007 84.5628 400.182 84.0202Z" fill="#193350"/>
<path d="M402.789 67.7633C401.435 66.6706 396.13 63.0027 393.625 70.4637C393.625 70.4637 391.946 82.6644 400.181 84.0198C400.613 84.091 401.053 84.1545 401.543 84.1631L401.864 80.8461L402.131 78.0898C401.959 77.8043 401.848 77.4779 401.883 77.1213L402.789 67.7633Z" fill="#F8A694"/>
<path d="M427.071 74.2938C425.814 74.1952 424.175 75.2319 424.019 77.0815C423.993 77.4106 424.12 77.6904 424.342 77.9219L428.6 77.1726C428.694 75.488 428.266 74.3953 427.071 74.2938Z" fill="#092666"/>
<path d="M431.907 78.3338L434.092 91.207L429.559 90.7689L431.907 78.3338Z" fill="#F8A694"/>
<path d="M434.94 90.8436C435.036 91.518 434.589 92.1449 433.941 92.2521C433.295 92.3555 432.7 91.8964 432.601 91.222L430.806 78.4569C430.71 77.7863 431.164 77.1565 431.804 77.0474C432.451 76.9459 433.05 77.4059 433.142 78.0775L434.94 90.8436Z" fill="#F8A694"/>
<path d="M434.907 91.5863C434.854 92.1412 434.434 92.5538 433.96 92.5083L427.792 91.9117C427.321 91.8661 426.986 91.3805 427.039 90.8256C427.093 90.2707 427.516 89.8572 427.986 89.9027L434.154 90.4993C434.629 90.5448 434.961 91.0305 434.907 91.5863Z" fill="#F8A694"/>
<path d="M418.438 71.3517C418.579 66.795 422.567 62.6984 427.143 62.4091L427.351 65.5904C424.4 65.7763 421.733 68.5175 421.642 71.4551L418.438 71.3517Z" fill="#092666"/>
<path d="M418.966 97.8241L415.995 96.0969C415.127 95.5932 414.831 94.4749 415.337 93.6127C415.844 92.7505 416.968 92.4574 417.836 92.962L420.808 94.6883C421.676 95.1939 421.971 96.3112 421.465 97.1734C420.958 98.0356 419.834 98.3287 418.966 97.8241Z" fill="white"/>
<path d="M141.615 93.3173C141.615 93.3173 137.923 114.939 153.597 120.692L158.706 102.875L141.615 93.3173Z" fill="#F8A694"/>
<path d="M166.21 113.46L150.162 111.478C148.646 111.29 147.163 109.858 146.85 108.277L139.752 72.5174C139.438 70.9372 140.413 69.8084 141.929 69.9953L157.977 71.9796C159.493 72.1664 160.976 73.5996 161.289 75.1789L168.387 110.939C168.701 112.519 167.726 113.648 166.21 113.46Z" fill="#1D5399"/>
<path d="M166.524 112.157L150.296 110.151C149.279 110.026 148.284 109.065 148.074 108.006L141.039 72.5614C140.829 71.5019 141.482 70.745 142.499 70.8702L158.728 72.8763C159.745 73.0015 160.739 73.9624 160.95 75.0228L167.985 110.466C168.194 111.525 167.541 112.283 166.524 112.157Z" fill="#D7F4FD"/>
<path d="M142.217 98.8666L153.436 92.4822C154.378 91.9472 155.552 92.1729 156.046 92.9839L156.3 93.4003C156.793 94.2122 156.426 95.3144 155.483 95.8494L144.272 102.23C143.329 102.765 144.437 101.231 143.942 100.421L143.687 100.005C143.193 99.1938 141.276 99.4016 142.217 98.8666Z" fill="#F8A694"/>
<path d="M144.129 103.853L152.803 98.5024C153.718 97.938 154.894 98.1258 155.414 98.9188L155.682 99.3276C156.203 100.122 155.879 101.232 154.964 101.798L146.282 107.152C145.367 107.716 144.193 107.528 143.675 106.733L143.407 106.325C142.889 105.53 143.213 104.417 144.129 103.853Z" fill="#F8A694"/>
<path d="M142.681 92.4139L148.609 88.9044C149.778 88.2129 151.214 88.3922 151.802 89.3047C152.388 90.2172 151.91 91.5289 150.74 92.2214L144.812 95.7299C143.643 96.4223 142.418 95.4235 141.832 94.511C141.246 93.5995 141.511 93.1054 142.681 92.4139Z" fill="#F8A694"/>
<path d="M147.177 108.06L151.863 104.226C152.786 103.47 154.109 103.531 154.8 104.363C155.491 105.196 155.3 106.495 154.375 107.252L149.69 111.087C148.767 111.843 147.444 111.782 146.754 110.95C146.062 110.117 146.253 108.816 147.177 108.06Z" fill="#F8A694"/>
<path d="M176.297 131.129C179.46 126.85 181.448 121.664 181.981 116.306C182.261 113.48 181.934 110.177 179.672 108.509C177.333 106.783 174.085 107.632 171.468 108.819C168.616 110.112 165.905 111.725 163.399 113.623C162.426 114.361 161.459 115.168 160.871 116.252C160.112 117.654 159.751 119.418 160.224 120.953C161.633 125.526 167.276 130.333 169.427 133.071C173.608 138.392 172.335 136.486 176.297 131.129Z" fill="#F8A694"/>
<path d="M172.531 116.635L163.021 101.816C162.376 100.813 162.785 99.4054 163.929 98.6902C165.073 97.9741 166.537 98.2102 167.181 99.2138L176.693 114.032C177.337 115.037 176.928 116.444 175.783 117.16C174.639 117.875 173.176 117.639 172.531 116.635Z" fill="#F8A694"/>
<path d="M170.672 122.793L159.648 109.026C158.902 108.094 159.085 106.718 160.056 105.967C161.027 105.218 162.432 105.367 163.179 106.299L174.201 120.065C174.948 120.998 174.764 122.375 173.794 123.125C172.824 123.874 171.418 123.725 170.672 122.793Z" fill="#F8A694"/>
<path d="M168.64 129.688L157.617 115.923C156.871 114.99 157.054 113.612 158.025 112.863C158.996 112.113 160.401 112.263 161.149 113.195L172.17 126.961C172.918 127.894 172.734 129.27 171.763 130.021C170.792 130.77 169.388 130.621 168.64 129.688Z" fill="#F8A694"/>
<path d="M169.429 99.2551C170.474 98.6082 171.852 98.9022 172.492 99.9095L180.753 112.307C179.246 112.465 174.564 108.722 173.469 109.777L168.693 102.262C168.054 101.255 168.384 99.9029 169.429 99.2551Z" fill="#F8A694"/>
<path d="M198.331 125.111L197.625 131.861L196.889 138.887C196.889 138.887 200.59 140.206 204.806 139.63C210.054 138.914 212.95 137.817 213.804 134.922L213.93 133.993L215.959 118.347C210.453 122.461 204.348 125.111 198.331 125.111Z" fill="#F8A694"/>
<path d="M198.606 122.687L198.498 123.723L198.633 122.685C198.624 122.686 198.615 122.687 198.606 122.687Z" fill="#FFA69E"/>
<path d="M216.178 116.6C213.924 115.048 212.203 113.246 210.883 111.306C210.717 111.138 210.561 110.967 210.396 110.798C207.277 113.592 202.523 115.444 199.446 116.423L198.634 122.686L198.5 123.724L198.289 125.352C204.346 125.35 210.452 122.7 215.957 118.586C215.986 118.566 216.253 116.496 216.253 116.496L216.178 116.6Z" fill="#E29686"/>
<path d="M183.575 57.5014C183.575 57.5014 180.864 58.4461 180.371 62.5503L179.65 68.5563C182.747 67.6922 186.076 68.1655 188.744 69.9971C187.356 64.1248 186.685 59.0038 186.369 55.3027L183.575 57.5014Z" fill="#F8A694"/>
<path d="M190.859 101.562C189.357 102.232 187.457 101.867 186.308 100.689C185.84 100.209 185.558 99.2966 186.134 98.9551L185.725 98.92C187.204 98.6023 188.559 97.7363 189.468 96.525C189.783 96.1067 190.065 95.6315 190.525 95.383C191.139 95.0539 191.942 95.2398 192.452 95.714C192.963 96.1873 193.207 96.894 193.252 97.5892C193.36 99.2321 192.36 100.891 190.859 101.562ZM185.468 75.5638C185.806 75.3779 186.17 75.2811 186.547 75.32C187.856 75.4594 188.757 77.0615 188.564 78.8969C188.558 78.949 188.536 78.9927 188.523 79.041C188.116 80.5805 184.218 80.2362 183.853 78.7385C183.827 78.6322 183.817 78.5203 183.83 78.4027C183.903 77.7273 184.112 77.1184 184.41 76.6214C184.404 76.6214 183.168 76.6062 182.765 74.6845C182.765 74.6845 183.183 75.4585 185.468 75.5638ZM210.396 110.797C198.486 98.6326 192.401 84.1412 189.304 72.244C189.195 72.1197 189.12 71.9841 188.977 71.876C186.245 69.7902 182.72 69.2381 179.46 70.1487L178.427 78.7584C178.766 78.5232 179.198 78.4349 179.615 78.5933C180.279 78.8456 180.614 79.5969 180.354 80.2675L175.852 92.0499L180.759 92.6399C181.269 92.7006 181.624 93.2232 181.555 93.8047C181.485 94.388 181.018 94.8053 180.507 94.7437L177.719 94.4089C178.931 106.524 185.075 115.784 196.437 117.254C196.468 117.258 197.684 116.982 199.447 116.422C202.524 115.443 207.278 113.591 210.396 110.797Z" fill="#F8A694"/>
<path d="M184.41 76.6209C184.113 77.1179 183.903 77.7269 183.83 78.4022C183.818 78.5198 183.827 78.6318 183.854 78.738C184.219 80.2357 188.116 80.58 188.523 79.0406C188.536 78.9922 188.558 78.9486 188.564 78.8964C188.757 77.061 187.856 75.459 186.547 75.3195C186.171 75.2807 185.807 75.3774 185.468 75.5633C183.183 75.458 182.766 74.684 182.766 74.684C183.169 76.6057 184.405 76.6209 184.41 76.6209Z" fill="#092666"/>
<path d="M181.555 93.8049C181.624 93.2235 181.269 92.7009 180.759 92.6402L175.851 92.0502L180.354 80.2678C180.614 79.5972 180.279 78.8459 179.615 78.5936C179.197 78.4352 178.766 78.5234 178.426 78.7587C178.22 78.9019 178.038 79.0878 177.94 79.342L173.099 91.999C173.025 92.1887 173.009 92.3812 173.025 92.5709C173.005 92.6383 172.972 92.699 172.964 92.772C172.894 93.3553 173.253 93.8723 173.763 93.933L177.719 94.4092L180.506 94.744C181.018 94.8056 181.484 94.3883 181.555 93.8049Z" fill="#F8A694"/>
<path d="M192.45 95.7152C191.94 95.241 191.137 95.0551 190.523 95.3842C190.063 95.6327 189.781 96.108 189.466 96.5263C188.557 97.7375 187.202 98.6035 185.723 98.9213L186.132 98.9564C185.556 99.2978 185.838 100.21 186.306 100.69C187.455 101.868 189.355 102.233 190.857 101.563C192.358 100.892 193.358 99.2333 193.25 97.5905C193.205 96.8952 192.961 96.1886 192.45 95.7152Z" fill="white"/>
<path d="M179.651 68.5564L180.372 62.5504C180.864 58.4462 183.576 57.5015 183.576 57.5015L186.37 55.3028C186.685 59.0039 187.357 64.125 188.745 69.9972C186.077 68.1656 182.748 67.6923 179.651 68.5564ZM235.93 48.1577C227.883 42.956 218.11 40.5572 208.593 41.4479C208.064 41.4972 207.526 41.5683 206.987 41.6556C202.824 38.6896 197.144 38.9115 190.445 42.5282C183.922 46.05 178.929 52.1462 175.952 58.8693C172.127 67.5093 171.291 77.1927 171.579 86.6389L173.64 96.4722C174.342 96.7814 175.035 97.1086 175.71 97.4643C176.601 97.8067 177.464 98.2383 178.345 98.6357C178.058 97.2955 177.863 95.8423 177.72 94.4091L173.765 93.933C173.254 93.8723 172.895 93.3553 172.965 92.772C172.974 92.6989 173.006 92.6383 173.027 92.5709C173.011 92.3812 173.026 92.1887 173.1 91.999L177.941 79.342C178.04 79.0878 178.221 78.9019 178.428 78.7586L179.461 70.149C182.721 69.2384 186.246 69.7904 188.978 71.8762C189.121 71.9844 189.196 72.12 189.305 72.2442C192.402 84.1415 198.487 98.6329 210.397 110.798C210.562 110.966 210.718 111.137 210.885 111.305C212.204 113.245 213.926 115.047 216.18 116.598L216.254 116.495L216.401 116.293C218.796 118.257 221.357 120.137 224.143 121.885C224.143 121.885 228.034 111.47 232.167 100.324C242.749 88.2713 244.896 70.4914 245.311 65.1257C245.386 64.7908 245.448 64.4418 245.494 64.0785C246.372 57.1799 241.194 51.56 235.93 48.1577Z" fill="#6B3844"/>
<path d="M365.714 176.732C363.715 185.389 357.375 213.055 356.562 216.936C372.562 228.092 391.611 239.484 407.86 246.355C430.99 256.137 433.069 270.51 408.521 266.086C392.25 263.153 330.677 246.844 328.708 230.127C327.342 218.531 329.164 163.045 331.936 148.482C332.66 144.673 334.163 141.719 336.161 139.524C336.956 141.615 338.109 143.706 339.709 145.761C347.995 156.408 356.908 166.522 365.714 176.732Z" fill="#F8A694"/>
<path d="M357.131 127.347C357.131 127.347 370.117 146.142 365.715 176.732L361.851 177.994L333.537 143.451C333.537 143.451 340.593 129.38 357.131 127.347Z" fill="#F8A694"/>
<path d="M443.813 257.69C444.733 257.702 445.489 256.96 445.499 256.042L445.509 255.048C445.519 254.131 444.775 253.37 443.857 253.358L434.123 253.235C434.118 253.169 434.108 253.104 434.104 253.039L434.299 257.57L443.813 257.69Z" fill="#F8A694"/>
<path d="M440.792 263.979C441.895 263.991 442.805 263.296 442.816 262.436L442.828 261.507C442.839 260.646 441.947 259.934 440.844 259.924L429.157 259.808C429.151 259.746 429.139 259.685 429.133 259.624L429.367 263.866L440.792 263.979Z" fill="#F8A694"/>
<path d="M446.366 246.872L433.074 246.703C432.93 246.185 432.759 245.67 432.557 245.163L444.63 245.317C445.548 245.327 446.306 244.586 446.316 243.668L446.325 242.675C446.335 241.757 445.59 240.995 444.673 240.984L426.101 240.749C425.587 240.742 424.82 241.172 424.82 241.172C424.82 241.172 423.59 241.933 423.002 242.317L423.164 242.107C424.07 240.911 427.648 235.254 426.449 234.344L424.482 233.09C423.284 232.181 420.427 233.448 417.512 237.814L405.916 253.111C405.153 254.116 405.242 255.464 405.988 256.418C406.11 256.895 406.28 257.399 406.557 257.962C407.469 259.817 409.043 261.267 410.732 262.457C411.798 263.209 413.168 264.241 414.501 264.978C414.54 265.001 414.577 265.024 414.613 265.046C415.114 265.317 415.609 265.549 416.096 265.699C417.309 266.092 418.778 266.294 420.496 266.301C423.967 266.314 427.423 265.148 430.393 263.319C430.763 263.091 431.126 262.845 431.476 262.584C431.476 262.584 434.339 257.82 434.354 257.58L434.104 253.039C434.046 252.372 433.985 251.708 433.894 251.046L446.323 251.204C447.241 251.215 447.999 250.474 448.007 249.556L448.017 248.562C448.026 247.644 447.283 246.884 446.366 246.872Z" fill="#F8A694"/>
<path d="M232.857 150.342C224.746 140.036 211.565 141.166 204.415 152.162C201.73 156.291 199.076 160.377 196.642 164.132C192.991 169.761 187.384 176.753 184.153 181.772C181.519 154.187 183.806 126.236 182.067 113.497L167.987 122.414C167.032 144.946 165.545 183.445 167.105 210.318C167.575 218.409 181.294 224.002 186.975 218.231C201.783 203.191 225.697 177.786 231.908 170.75C237.353 164.581 238.016 156.898 232.857 150.342Z" fill="#F8A694"/>
<path d="M474.503 108.634C476.117 108.255 477.129 106.624 476.75 105.007L473.026 89.0751C472.647 87.4589 471.018 86.4468 469.404 86.8243C467.791 87.2028 466.78 88.8352 467.157 90.4505L470.883 106.384C471.26 108 472.89 109.012 474.503 108.634Z" fill="#F8A694"/>
<path d="M496.97 79.4183C496.97 79.4183 503.485 102.408 487.177 110.472L479.568 91.766L496.97 79.4183Z" fill="#F8A694"/>
<path d="M472.672 104.109L489.824 100.087C491.445 99.7081 492.884 97.9827 493.039 96.2346L496.566 56.6702C496.721 54.9221 495.534 53.8123 493.914 54.1927L476.761 58.2144C475.141 58.5938 473.702 60.3191 473.545 62.0672L470.02 101.632C469.864 103.38 471.052 104.489 472.672 104.109Z" fill="#092666"/>
<path d="M472.18 102.734L489.526 98.6671C490.613 98.4129 491.578 97.2557 491.683 96.0834L495.177 56.868C495.282 55.6956 494.486 54.952 493.399 55.2072L476.053 59.2734C474.967 59.5286 474 60.6857 473.896 61.8581L470.402 101.073C470.297 102.245 471.094 102.989 472.18 102.734Z" fill="#D7F4FD"/>
<path d="M496.962 85.4991L484.067 79.8934C482.984 79.4229 481.738 79.8052 481.297 80.7413L481.072 81.2222C480.631 82.1584 481.157 83.3099 482.241 83.7795L495.128 89.3823C496.211 89.8518 494.833 88.3209 495.275 87.3847L495.502 86.9039C495.944 85.9686 498.045 85.9696 496.962 85.4991Z" fill="#F8A694"/>
<path d="M495.474 91.1239L485.453 86.3406C484.396 85.836 483.146 86.1765 482.674 87.0975L482.431 87.5699C481.96 88.4909 482.439 89.6575 483.497 90.1621L493.524 94.9493C494.581 95.4539 495.831 95.1125 496.301 94.1905L496.542 93.7172C497.011 92.7953 496.53 91.6286 495.474 91.1239Z" fill="#F8A694"/>
<path d="M495.709 78.5628L488.88 75.4545C487.533 74.8418 485.997 75.2031 485.468 76.2598C484.939 77.3174 485.609 78.6823 486.957 79.296L493.786 82.4052C495.134 83.0179 496.345 81.7934 496.873 80.7368C497.403 79.6801 497.057 79.1765 495.709 78.5628Z" fill="#F8A694"/>
<path d="M492.657 96.0372L487.137 92.43C486.047 91.7186 484.622 91.9396 483.971 92.9213C483.318 93.9039 483.676 95.2897 484.766 96.0011L490.287 99.6083C491.376 100.32 492.8 100.099 493.453 99.116C494.104 98.1343 493.746 96.7485 492.657 96.0372Z" fill="#F8A694"/>
<path d="M426.016 232.766C424.548 231.569 422.379 231.802 421.193 233.282L415.328 240.615C414.143 242.097 414.374 244.287 415.84 245.483C417.307 246.679 419.478 246.447 420.662 244.965L426.529 237.633C427.714 236.153 427.483 233.962 426.016 232.766Z" fill="#F8A694"/>
</svg>
