<svg width="40" height="50" viewBox="0 0 40 50" fill="none" xmlns="http://www.w3.org/2000/svg">
<path opacity="0.1" d="M37.7285 22.6667H35.9003V15.9444C35.9003 7.16667 28.7535 0 20 0C11.2465 0 4.09972 7.16667 4.09972 15.9444V22.6667H2.27147C1.05263 22.6667 0 23.6667 0 24.9444V47.7222C0 48.9444 0.99723 50 2.27147 50H37.7285C38.9474 50 40 49 40 47.7222V24.9444C40 23.7222 39.0028 22.6667 37.7285 22.6667ZM10.5263 15.9444C10.5263 10.7222 14.7922 6.44445 20 6.44445C25.2078 6.44445 29.4737 10.7222 29.4737 15.9444V22.6667H10.5263V15.9444ZM22.3269 37.2222V42.0556C22.3269 43.3333 21.2742 44.3889 20 44.3889C18.7258 44.3889 17.6731 43.3333 17.6731 42.0556V37.2222C16.6205 36.5 15.9003 35.2222 15.9003 33.8333C15.9003 31.5556 17.7285 29.7222 20 29.7222C22.2715 29.7222 24.0997 31.5556 24.0997 33.8333C24.0997 35.2778 23.3795 36.5 22.3269 37.2222Z" fill="black"/>
</svg>
