<svg width="254" height="280" viewBox="0 0 254 280" fill="none" xmlns="http://www.w3.org/2000/svg">
<mask id="mask0" mask-type="alpha" maskUnits="userSpaceOnUse" x="0" y="0" width="254" height="280">
<rect width="254" height="280" fill="#C4C4C4"/>
</mask>
<g mask="url(#mask0)">
<path fill-rule="evenodd" clip-rule="evenodd" d="M151.568 74.8C153.07 74.6049 154.557 74.3481 156.031 74.0258C157 73.8109 157.423 75.0025 156.441 75.2161C154.98 75.5372 153.493 75.7952 151.991 75.9903C150.995 76.1187 150.572 74.9284 151.568 74.8Z" fill="#C77524"/>
<path fill-rule="evenodd" clip-rule="evenodd" d="M109 265.312L120.655 333.503C120.655 333.503 125.272 336.966 129 333.358L122.564 261L109 265.312Z" fill="#4F2C2F"/>
<path fill-rule="evenodd" clip-rule="evenodd" d="M246 275.254L257.655 342.522C257.655 342.522 262.272 345.939 266 342.381L259.564 271L246 275.254Z" fill="#4F2C2F"/>
<path fill-rule="evenodd" clip-rule="evenodd" d="M120.466 236.525C119.444 235.209 107.633 91.4335 118.701 87.5875C129.755 83.743 173.984 100.115 230.607 97.7239C287.231 95.3316 299.174 93.8352 308.012 99.9317C316.863 106.03 293.866 150.674 284.125 182.733C274.398 214.793 262.018 254 262.018 254C262.018 254 247.42 253.018 223.534 251.978C199.648 250.936 130.644 249.562 120.466 236.525Z" fill="#F7EEE9"/>
<path fill-rule="evenodd" clip-rule="evenodd" d="M119.625 237.042C119.625 237.042 23.084 232.447 12.4062 237.042C1.72834 241.637 -4.50483 250.607 19.9607 277.069C44.4396 303.529 93.8245 321.47 146.76 317.433C199.708 313.397 262 254.625 262 254.625C262 254.625 245.089 247.468 211.721 248.642C191.7 249.345 133.866 247.697 119.625 237.042Z" fill="#EBE2DD"/>
<path fill-rule="evenodd" clip-rule="evenodd" d="M136.896 240.064C136.896 240.064 58.0688 242.866 48.4717 247.318C38.8612 251.771 3.99999 368.575 3.99999 368.575C3.99999 368.575 16.8849 380.535 33.5635 375.955C33.5635 375.955 49.2304 343.381 58.5746 322.005C67.9188 300.629 68.9305 289.942 70.7008 288.924C72.4712 287.905 134.367 280.78 138.413 280.017C142.46 279.254 170 264.824 170 264.824C170 264.824 142.713 238.538 136.896 240.064Z" fill="#202333"/>
<path fill-rule="evenodd" clip-rule="evenodd" d="M168.765 248C168.765 248 94.745 264.413 89.6697 271.17C84.5943 277.927 41 376.49 41 376.49C41 376.49 45.6079 381.038 55.064 384.665C67.8725 389.579 69.0078 387.61 69.0078 387.61C70.6506 388.368 96.0138 352.733 104.882 336.307C113.751 319.88 116.288 308.76 120.856 305.98C125.411 303.2 189.306 299.661 197.921 293.848C206.536 288.036 213 272.873 213 272.873L168.765 248Z" fill="#2E3345"/>
<path fill-rule="evenodd" clip-rule="evenodd" d="M154.493 48.8116C154.493 48.8116 153.384 55.486 154.493 62.7329C155.601 69.9799 156.603 74.563 155.829 79.0479C155.054 83.5316 157.939 91.261 157.939 91.261C157.939 91.261 172.192 97.3078 185.776 95.7406C199.348 94.1722 202.58 85.4361 202.58 85.4361C202.58 85.4361 206.481 61.3553 201.351 52.6192C196.235 43.8831 185.99 38.9559 179.098 40.187C172.192 41.4195 154.867 45.3642 154.493 48.8116Z" fill="#FFB9A4"/>
<path fill-rule="evenodd" clip-rule="evenodd" d="M158.246 72.518C158.41 72.0175 158.94 71.7891 159.245 72.2488C159.61 72.8023 159.845 73.445 159.939 74.1194C160.08 74.9783 159.975 75.8357 159.633 76.6583C159.469 77.0606 158.916 77.1271 158.704 76.7536C157.987 75.5136 157.787 73.9621 158.246 72.518Z" fill="#4F2C2F"/>
<path fill-rule="evenodd" clip-rule="evenodd" d="M177.365 70.4573C177.557 69.9767 178.109 69.8035 178.397 70.2901C178.733 70.8791 178.925 71.5404 178.973 72.2197C179.069 73.0859 178.913 73.928 178.505 74.7083C178.313 75.0909 177.749 75.103 177.557 74.7098C176.909 73.4053 176.802 71.8432 177.365 70.4573Z" fill="#4F2C2F"/>
<path fill-rule="evenodd" clip-rule="evenodd" d="M185.699 63.9527C183.181 62.8368 180.073 62.7254 177.372 63.4918C177.287 63.5153 177.231 63.5593 177.161 63.5914C176.514 63.7093 175.909 63.9269 175.501 64.316C174.84 64.9217 174.812 65.8092 175.543 66.3912C176.444 67.1051 177.949 66.9636 179.102 66.9615C180.846 66.9593 182.675 67.0751 184.419 66.9154C186.81 66.6956 188.146 65.0428 185.699 63.9527Z" fill="#753D42"/>
<path fill-rule="evenodd" clip-rule="evenodd" d="M202.708 95C202.708 95 201.859 107.211 203.504 110.204C205.15 113.196 213 117.352 213 117.352C213 117.352 194.727 128.325 181.248 127.993C167.769 127.66 165 117.851 165 117.851L202.708 95Z" fill="#FFB9A4"/>
<path fill-rule="evenodd" clip-rule="evenodd" d="M208.46 111.445C211.705 109.766 212.657 113.235 216.01 115.281C219.362 117.327 237.855 125.534 241.341 128.867C244.828 132.199 233.617 201.755 227.743 225.095C221.87 248.436 216.68 263.201 208.46 274.73C200.253 286.26 195.894 285.926 194.714 283.921C193.548 281.915 197.048 271.296 180.298 261.986C163.562 252.676 148.704 252.52 140.028 247.75C131.351 242.982 124.794 234.045 124.432 233.339C124.083 232.632 123.466 210.22 124.928 199.705C126.389 189.19 124.928 131.065 125.545 129.376C126.161 127.687 135.642 121.504 141.959 118.663C148.288 115.823 160.183 112.815 161.524 113.818C162.865 114.82 160.518 120.334 173.258 122.507C185.998 124.679 205.952 112.748 208.46 111.445Z" fill="#875E1C"/>
<path fill-rule="evenodd" clip-rule="evenodd" d="M163.675 65.5291C161.533 64.6231 159.193 64.9174 157.369 66.1311C157.316 66.17 157.276 66.2259 157.237 66.2709C156.774 66.4886 156.39 66.8109 156.166 67.301C155.822 68.0635 156.02 69.0534 156.694 69.6056C157.527 70.2793 158.625 69.9193 159.471 69.7637C160.78 69.5265 162.168 69.4098 163.424 68.9987C165.156 68.4332 165.764 66.4132 163.675 65.5291Z" fill="#753D42"/>
<path fill-rule="evenodd" clip-rule="evenodd" d="M166.808 75.4205C166.966 74.6847 168.131 74.9954 167.973 75.73C167.718 76.967 166.08 82.8175 169.271 81.7406C169.999 81.4907 170.315 82.619 169.587 82.8666C168.203 83.3338 166.82 82.5209 166.286 81.2536C165.546 79.4887 166.432 77.1702 166.808 75.4205Z" fill="#F29D8A"/>
<path fill-rule="evenodd" clip-rule="evenodd" d="M152.802 78.5991C154.398 78.8218 164.042 78.2658 165.325 77.5402C165.717 76.3376 165.534 72.0185 164.906 71.6133C163.532 71.2613 153.613 71.8791 152.475 72.757C152.161 73.5674 152.318 77.7916 152.802 78.5991ZM173.11 77.1336C174.34 77.4022 185.921 77.2226 187.373 76.5071C187.674 75.6996 187.91 72.4797 187.347 71.0027C187.23 70.6981 187.112 70.609 187.086 70.6018C185.489 70.1765 174.17 70.4165 172.914 71.2757C172.508 72.0875 172.548 76.5143 173.11 77.1336ZM151.454 71.8389C152.736 70.1478 164.265 69.9768 165.22 70.2211C165.652 70.3303 165.992 70.6823 166.254 71.2642C166.489 71.7987 166.633 72.5631 166.725 73.3892C167.3 73.1881 167.837 73.0113 168.504 72.997C169.46 72.974 170.415 73.0329 171.344 73.2269C171.383 71.9194 171.566 70.7124 171.972 70.2627C173.372 68.7253 186.248 68.9006 187.4 69.2038C187.897 69.336 188.276 69.7512 188.551 70.438C189.284 72.3274 189.022 76.2787 188.46 77.329C187.897 78.385 182.82 78.6163 178.567 78.6163C175.44 78.6163 172.757 78.4899 172.705 78.4755C171.985 78.2931 171.736 77.3433 171.658 77.0315C171.514 76.4741 171.409 75.5947 171.357 74.6508C171.318 74.6493 171.292 74.6594 171.239 74.6493C170.349 74.4367 169.42 74.4108 168.504 74.4338C167.876 74.4467 167.366 74.6507 166.829 74.8548C166.856 76.293 166.725 77.6738 166.463 78.2658C165.796 79.8146 156.832 80 153.574 80C152.867 80 152.435 79.9899 152.409 79.9842C151.781 79.8319 151.533 79.0416 151.454 78.7816C150.944 77.1192 150.761 72.7786 151.454 71.8389Z" fill="#C77524"/>
<path fill-rule="evenodd" clip-rule="evenodd" d="M154 48.6351C154 48.6351 155.884 45.7414 159.307 48.6351C162.73 51.5288 166.273 54.5333 176.887 48.6351C187.501 42.7368 194.904 47.1889 196.894 53.3088C198.885 59.4287 200.994 86.24 193.697 89.5824C186.4 92.9248 181.305 88.028 175.786 86.1358C170.253 84.245 168.104 86.248 168.104 86.248C168.104 86.248 164.72 84.4666 161.961 86.6927C159.201 88.9187 157.423 90.8109 157.423 90.8109C157.423 90.8109 154.332 105.721 156.879 111.954C159.413 118.184 170.81 124.083 187.607 119.186C204.417 114.29 201.764 98.6 202.759 85.1343C203.754 71.6699 207.84 62.2116 206.845 52.1965C205.85 42.1813 197.77 33.9462 186.227 31.6093C174.671 29.2724 157.755 33.3893 154 48.6351Z" fill="#753D42"/>
<path fill-rule="evenodd" clip-rule="evenodd" d="M170.953 89.1526C169.203 90.5612 166.115 90.915 164.306 89.3026C163.585 88.6505 162.511 89.7836 163.247 90.4406C165.57 92.516 169.321 92.4801 171.674 90.5694C172.439 89.9597 171.718 88.5331 170.953 89.1526Z" fill="#F29D8A"/>
<path fill-rule="evenodd" clip-rule="evenodd" d="M125.733 130C123.001 132.301 106.287 174.851 105.527 174.789C104.767 174.726 59.2097 136.517 59.2097 136.517C59.2097 136.517 59.6629 147.978 49 151.144C49 151.144 77.2034 194.936 90.4121 207.121C103.621 219.307 115.19 224.039 122.641 212.029C130.091 200.018 125.733 130 125.733 130Z" fill="#966C29"/>
<path fill-rule="evenodd" clip-rule="evenodd" d="M262 253.972C262 253.972 222.581 248.251 204.228 256.297C185.862 264.343 189.45 306.198 146 317C146 317 177.801 317.251 220.351 298.447C262.887 279.644 260.2 273.758 262 253.972Z" fill="#F7EEE9"/>
<path fill-rule="evenodd" clip-rule="evenodd" d="M142 217C142 217 148.846 220.721 151.973 225.198C155.115 229.675 157.914 230.342 159.807 232.15C161.769 234.02 164.869 240.869 164.992 241.576C165.116 242.283 163.785 249.115 157.763 248.999C151.74 248.88 143.742 237.721 143.742 237.721L142 217Z" fill="#FFB9A4"/>
<path fill-rule="evenodd" clip-rule="evenodd" d="M54.6542 188H115.375L151 249.745L149.346 252L92.1489 247.838L53 190.256L54.6542 188Z" fill="#B87863"/>
<path fill-rule="evenodd" clip-rule="evenodd" d="M53 190H113.503L149 252L92.0084 247.82L53 190Z" fill="#AB6C57"/>
<path fill-rule="evenodd" clip-rule="evenodd" d="M153 237.01C153 237.01 149.706 226.382 146.792 221.329C143.864 216.276 140.869 214.686 133.875 217.121C126.88 219.557 122.435 225.207 123.058 226.889C123.98 229.392 126.121 228.353 126.121 228.353C126.121 228.353 123.289 231.286 124.712 232.738C126.338 234.384 130.296 232.602 130.296 232.602C130.296 232.602 127.938 234.458 129.402 235.943C130.784 237.358 135.284 235.591 135.284 235.591C135.284 235.591 132.302 238.581 135.732 238.96C139.161 239.34 142.387 236.889 145.599 236.637C148.798 236.384 153 237.01 153 237.01Z" fill="#FFB9A4"/>
<path fill-rule="evenodd" clip-rule="evenodd" d="M138.317 221.024C133.468 222.33 129.066 224.757 125.192 228.189C124.637 228.687 125.409 229.314 125.964 228.82C129.675 225.526 133.942 223.248 138.588 221.999C139.292 221.81 139.022 220.836 138.317 221.024Z" fill="#F29D8A"/>
<path fill-rule="evenodd" clip-rule="evenodd" d="M142.317 225.027C137.468 226.496 133.066 229.226 129.192 233.089C128.637 233.648 129.409 234.353 129.964 233.798C133.675 230.09 137.942 227.53 142.588 226.124C143.292 225.91 143.022 224.816 142.317 225.027Z" fill="#F29D8A"/>
<path fill-rule="evenodd" clip-rule="evenodd" d="M145.381 231.008C141.451 231.726 138.024 233.5 135.125 236.234C134.712 236.631 135.421 237.269 135.833 236.878C138.604 234.253 141.941 232.601 145.703 231.914C146.27 231.81 145.948 230.905 145.381 231.008Z" fill="#F29D8A"/>
<path fill-rule="evenodd" clip-rule="evenodd" d="M73.7506 187.476C72.2332 188.776 71.7188 190.277 72.1431 190.778C72.5675 191.278 90.275 190.778 90.5322 190.778C90.7766 190.778 90.6994 188.709 91.9725 188.243C91.9725 188.243 92.6026 187.376 87.8317 187.075C83.0737 186.774 73.7506 187.476 73.7506 187.476Z" fill="#EBE2DD"/>
<path fill-rule="evenodd" clip-rule="evenodd" d="M233.185 126.227C226.663 125.189 220.477 127.246 216.486 142.265C212.482 157.284 208.719 200.221 206.362 203.972C204.005 207.725 159.814 232.091 159.814 232.091C159.814 232.091 154.873 247.779 161.301 253C161.301 253 207.996 247.181 223.516 236.759C239.05 226.337 244.862 214.297 247.085 198.61C253.433 154.062 254.129 129.562 233.185 126.227Z" fill="#966C29"/>
<path fill-rule="evenodd" clip-rule="evenodd" d="M61.8374 142.569C60.1747 134.609 60.8697 136.675 53.3329 128.99C46.9546 122.498 46.3686 114.445 45.142 115.03C41.6939 116.676 43.4792 122.363 44.5423 125.866C45.9052 130.409 38.1231 131.079 38.1231 131.079C38.1231 131.079 28.2012 132.113 19.5605 133.426C3.87362 135.81 10.3746 139.616 10.3746 139.616C10.3746 139.616 7.43077 141.119 8.09858 142.514C9.02535 144.458 13.1413 143.897 13.1413 143.897C13.1413 143.897 9.82947 146.565 13.1413 147.334C14.8177 147.724 19.0699 146.909 19.0699 146.909C19.0699 146.909 14.9403 148.908 19.2879 150.379C21.8365 151.243 49.7349 150.536 50.8116 150.922C51.8883 151.307 63.5001 150.529 61.8374 142.569Z" fill="#FFB9A4"/>
<path fill-rule="evenodd" clip-rule="evenodd" d="M30.0036 136.001C23.3813 136.302 18.232 136.955 12.0007 138.538C11.0099 138.79 10.5667 140.221 11.5575 139.971C17.6323 138.424 23.9027 137.525 30.3817 137.231C31.4246 137.183 31.0465 135.954 30.0036 136.001Z" fill="#F29D8A"/>
<path fill-rule="evenodd" clip-rule="evenodd" d="M32.9567 140.002C25.9898 140.378 20.5834 141.193 14.0409 143.171C13.0144 143.485 12.549 145.276 13.5755 144.964C19.9675 143.031 26.551 141.91 33.3399 141.543C34.4486 141.483 34.0516 139.944 32.9567 140.002Z" fill="#F29D8A"/>
<path fill-rule="evenodd" clip-rule="evenodd" d="M34.2208 145C28.6352 145.042 24.2744 145.457 18.931 146.686C18.0831 146.881 17.5986 148.173 18.433 147.98C23.6552 146.78 28.9851 146.18 34.4361 146.139C35.3244 146.133 35.0956 144.994 34.2208 145Z" fill="#F29D8A"/>
<path fill-rule="evenodd" clip-rule="evenodd" d="M188.478 69.8796C191.652 69.3337 194.825 68.8188 198.012 68.3523C200.023 68.0569 201.773 67.6765 203.666 68.4867C204.424 68.8108 203.758 69.8026 203 69.4785C200.898 68.5741 197.202 69.6244 194.995 69.9703C192.932 70.2921 190.868 70.6334 188.818 70.9874C187.995 71.1299 187.643 70.0221 188.478 69.8796Z" fill="#C77524"/>
<path fill-rule="evenodd" clip-rule="evenodd" d="M202.602 71.3321C202.602 71.3321 203.666 65.9307 208.158 68.882C212.661 71.832 208.17 88.9365 202.614 85.561C199.943 83.9408 201.054 78.5049 202.602 71.3321Z" fill="#FFB9A4"/>
</g>
</svg>
