<svg width="254" height="280" viewBox="0 0 254 280" fill="none" xmlns="http://www.w3.org/2000/svg">
<path fill-rule="evenodd" clip-rule="evenodd" d="M144.501 247C183.988 247 216 254.388 216 263.499C216 272.612 183.988 280 144.501 280C105.011 280 73 272.612 73 263.499C73 254.388 105.011 247 144.501 247Z" fill="#F7ED19"/>
<path fill-rule="evenodd" clip-rule="evenodd" d="M144.501 264H73L123.944 100L144.501 104.879L165.056 100L216 264H144.501Z" fill="#F7ED19"/>
<path fill-rule="evenodd" clip-rule="evenodd" d="M145.001 69C177.034 69 203 77.0583 203 87C203 96.9417 177.034 105 145.001 105C112.968 105 87 96.9417 87 87C87 77.0583 112.968 69 145.001 69Z" fill="#858C92"/>
<path fill-rule="evenodd" clip-rule="evenodd" d="M145.001 61C188.63 61 224 69.0584 224 78.9994C224 88.9404 188.63 97 145.001 97C101.369 97 66 88.9404 66 78.9994C66 69.0584 101.369 61 145.001 61" fill="#9CA2A9"/>
<path fill-rule="evenodd" clip-rule="evenodd" d="M145.001 55C188.63 55 224 62.8357 224 72.5006C224 82.1643 188.63 90 145.001 90C101.369 90 66 82.1643 66 72.5006C66 62.8357 101.369 55 145.001 55" fill="#B4B8BF"/>
<path fill-rule="evenodd" clip-rule="evenodd" d="M145.001 39C159.911 39 172 51.1314 172 66.0943C172 68.4829 171.69 70.7972 171.113 73.0031C162.942 73.6488 154.154 74 145.001 74C135.847 74 127.057 73.6488 118.885 73.0031C118.308 70.7972 118 68.4829 118 66.0943C118 51.1314 130.088 39 145.001 39" fill="#B7DEF5"/>
<path fill-rule="evenodd" clip-rule="evenodd" d="M124 54.172C126.408 47.65 132.662 43 140 43C140 43 131.572 47.0831 129.356 55.3777C129.356 55.3777 125.519 57.3923 124 54.172" fill="white"/>
<path fill-rule="evenodd" clip-rule="evenodd" d="M125 57C126.657 57 128 58.3428 128 60C128 61.656 126.657 63 125 63C123.344 63 122 61.656 122 60C122 58.3428 123.344 57 125 57Z" fill="white"/>
<path fill-rule="evenodd" clip-rule="evenodd" d="M145.002 91C146.106 91 147 92.1191 147 93.5006C147 94.8809 146.106 96 145.002 96C143.896 96 143 94.8809 143 93.5006C143 92.1191 143.896 91 145.002 91Z" fill="#F9F262"/>
<path fill-rule="evenodd" clip-rule="evenodd" d="M175 90C176.105 90 177 91.1183 177 92.4993C177 93.8816 176.105 95 175 95C173.895 95 173 93.8816 173 92.4993C173 91.1183 173.895 90 175 90Z" fill="#F9F262"/>
<path fill-rule="evenodd" clip-rule="evenodd" d="M116.5 90C117.882 90 119 91.1194 119 92.5C119 93.8806 117.882 95 116.5 95C115.119 95 114 93.8806 114 92.5C114 91.1194 115.119 90 116.5 90Z" fill="#F9F262"/>
<g clip-path="url(#clip0)">
<path d="M158.09 191.857L122.456 209.755C119.872 211.053 118.825 214.214 120.123 216.798L130.485 237.428C131.783 240.013 134.944 241.06 137.528 239.762L173.162 221.864C175.746 220.566 176.794 217.405 175.496 214.821L165.134 194.191C163.836 191.606 160.675 190.559 158.09 191.857ZM173.62 215.763C174.399 217.314 173.771 219.21 172.22 219.989L136.586 237.886C135.035 238.666 133.139 238.037 132.36 236.486L121.998 215.856C121.219 214.305 121.847 212.409 123.398 211.63L159.032 193.732C160.583 192.953 162.479 193.582 163.258 195.133L173.62 215.763L173.62 215.763Z" fill="#858C92"/>
<path d="M164.667 195.599L121.532 217.265C121.014 217.525 120.805 218.156 121.065 218.674L123.891 224.3C124.151 224.818 124.782 225.027 125.299 224.767L168.435 203.101C168.953 202.841 169.162 202.21 168.902 201.692L166.076 196.066C165.816 195.548 165.185 195.339 164.667 195.599ZM166.555 201.697L125.295 222.42L123.411 218.669L164.671 197.946L166.555 201.697L166.555 201.697Z" fill="#858C92"/>
<path d="M145.005 221.915L133.752 227.567C133.234 227.827 133.025 228.458 133.285 228.976C133.545 229.494 134.176 229.703 134.694 229.443L145.947 223.791C146.464 223.531 146.673 222.9 146.413 222.382C146.153 221.864 145.522 221.655 145.005 221.915Z" fill="#858C92"/>
<path d="M146.889 225.666L135.636 231.318C135.118 231.578 134.909 232.209 135.169 232.727C135.429 233.244 136.06 233.454 136.578 233.194L147.831 227.542C148.348 227.282 148.558 226.651 148.298 226.133C148.037 225.615 147.406 225.406 146.889 225.666Z" fill="#858C92"/>
<path d="M162.817 210.62L160.942 211.562C159.391 212.341 158.763 214.237 159.542 215.788L160.484 217.663C161.263 219.215 163.159 219.843 164.71 219.064L166.585 218.122C168.136 217.343 168.764 215.447 167.985 213.896L167.043 212.02C166.264 210.469 164.368 209.841 162.817 210.62ZM166.11 214.838C166.37 215.355 166.161 215.986 165.643 216.246L163.768 217.188C163.25 217.448 162.619 217.239 162.359 216.722L161.417 214.846C161.157 214.329 161.366 213.697 161.884 213.437L163.759 212.495C164.277 212.235 164.908 212.445 165.168 212.962L166.11 214.838Z" fill="#858C92"/>
</g>
<defs>
<clipPath id="clip0">
<rect width="50.3697" height="50.3697" fill="white" transform="translate(114 204.608) rotate(-26.669)"/>
</clipPath>
</defs>
</svg>
