<svg width="597" height="597" viewBox="0 0 597 597" fill="none" xmlns="http://www.w3.org/2000/svg">
<path d="M58.0415 185.733C76.329 135.882 73.7751 68.8998 169.148 61.3585C302.772 56.539 304.532 44.4 429.505 66.3335C481.35 82.2858 541.989 144.215 541.989 174.125C548.611 261.863 549.38 311.791 541.989 400.355C538.687 441.321 530.823 481.895 504.089 507.538C488.52 522.573 479.585 534.811 460.871 537.18C459.576 537.18 427.985 543.162 418.015 543.162C418.015 543.162 389.086 543.165 379.116 543.163C351.341 543.156 327.086 547.25 295.181 547.25C250.205 547.91 235.714 544.584 190.706 543.163C157.666 542.154 127.435 537.381 95.3222 525.889C58.4761 512.686 45.8158 471.164 44.1174 425.297C40.2016 319.823 41.9224 289.044 58.0415 185.733Z" fill="#E7FDFF"/>
<path d="M501.54 411.933L274.662 518.424C272.971 519.215 270.963 518.884 269.618 517.59L177.163 428.543C174.81 426.278 175.578 422.332 178.619 421.113L384.879 338.393C386.163 337.878 387.612 337.982 388.809 338.675L501.88 403.948C505.035 405.77 504.836 410.385 501.54 411.933Z" fill="#F2E6D5"/>
<path d="M331.67 476.846C332.455 475.31 331.703 473.652 331.143 472.188C330.425 470.311 329.644 468.463 328.828 466.623C327.838 464.001 326.489 461.343 324.739 459.16C323.35 456.499 320.844 454.851 317.967 453.694C313.747 451.993 310.119 450.37 306.756 447.209C303.693 444.338 301.125 441.007 298.684 437.615C296.889 435.119 295.14 432.606 292.746 430.751C292.56 430.51 292.358 430.279 292.104 430.021C291.699 429.604 291.221 429.389 290.732 429.324C289.62 428.797 288.362 428.747 286.978 429.533C284.608 430.878 282.145 433.922 281.218 436.464C280.421 438.631 280.668 440.739 281.474 442.747C281.366 443.438 281.525 444.185 282.102 444.849C282.656 445.497 283.23 446.123 283.803 446.759C284.547 447.773 285.365 448.756 286.189 449.701C286.671 450.513 287.095 451.367 287.401 452.318C288.236 454.858 288.872 457.503 290.299 459.781C296.582 469.806 313.753 481.675 319.142 485.977C320.997 487.46 323.592 485.122 322.285 483.487C322.281 483.425 322.275 483.37 322.269 483.311C323.395 484.415 324.8 485.576 326.286 485.709C327.072 485.781 327.922 485.562 328.405 484.908C328.509 484.771 328.574 484.624 328.63 484.462C328.718 484.517 328.81 484.568 328.91 484.605C329.474 484.934 330.983 484.403 331.296 483.865C332.208 482.307 330.94 479.804 330.243 478.201C330.807 477.976 331.312 477.539 331.67 476.846Z" fill="#FFAC9D"/>
<path d="M405.676 308.576C404.93 299.874 405.523 295.875 402.18 287.802C398.998 280.121 394.241 273.155 391.282 265.385C389.658 261.11 389.262 256.648 388.013 252.287C386.931 248.512 384.923 245.28 382.108 242.561C377.969 238.571 370.901 235.525 369.672 229.424C368.916 225.686 364.777 225.657 362.653 227.776C362.17 227.98 361.71 228.256 361.287 228.594C357.924 231.29 353.912 234.087 351.464 237.702C349.007 241.336 349.017 245.542 350.121 249.651C350.702 251.843 351.223 253.814 351.526 255.816C350.262 254.702 346.214 250.543 345.461 249.551C343.441 246.899 341.286 244.366 338.976 241.968C334.433 237.265 329.372 233.098 324.126 229.205C312.667 220.697 300.172 213.702 288.528 205.458C286.882 204.293 285.273 204.769 284.259 205.91C280.818 205.442 276.9 207.544 277.219 211.697C277.289 212.617 277.24 213.514 277.113 214.395C275.567 214.463 274.019 214.461 272.476 214.381C266.71 214.083 260.987 212.529 255.822 209.967C255.35 209.734 254.861 209.57 254.368 209.468C254.577 206.767 250.751 204.115 247.893 206.43C241.489 211.613 235.089 216.796 228.685 221.977C223.132 226.477 217.475 230.922 212.645 236.226C203.986 245.744 198.012 257.347 194.196 269.583C185.736 296.725 186.635 327.002 191.487 354.714C194.219 370.326 198.318 386.132 208.535 398.626C209.578 399.894 220.701 406.331 224.087 408.263C227.457 410.183 231.155 411.812 234.212 414.231C237.126 416.537 238.647 419.281 240.463 422.645C244.167 429.492 248.294 436.528 256.399 438.62C260.58 439.699 264.915 439.239 269.037 440.634C272.602 441.846 275.451 444.249 277.806 447.129C279.869 449.661 284.615 449.491 286.706 447.129C288.935 444.613 291.321 442.635 294.245 440.983C296.03 439.979 297.578 437.669 297.369 435.547C296.5 426.777 290.965 421.179 285.054 415.204C282.284 412.399 280.352 410.013 278.618 406.423C276.565 402.166 274.864 397.77 272.703 393.556C271.374 390.959 269.891 388.195 268.264 385.406C273.081 384.099 277.861 382.696 282.568 381.028C287.43 379.304 292.1 377.053 296.995 375.43C301.457 373.954 325.686 365.405 325.608 363.587C324.768 344.535 321.564 333.553 319.922 312.784C319.208 303.779 319.038 293.585 318.578 284.529C318.562 284.11 318.529 283.693 318.501 283.274C319.67 284.48 320.844 285.682 322.024 286.876C330.118 295.065 338.548 302.914 347.778 309.825C354.791 315.076 363.193 322.036 371.933 326.876C378.83 330.689 389.385 331.036 397.285 328.407C400.595 327.305 403.493 325.219 404.903 321.96C406.654 317.932 406.044 312.843 405.676 308.576Z" fill="#8EBAD4"/>
<path d="M340.866 228.446C343.577 231.991 347.791 236.825 350.118 240.632C350.244 240.413 350.392 239.906 350.508 239.673C352.747 235.052 356.154 232.684 359.523 229.987C359.946 229.65 361.367 228.554 361.772 228.335C358.985 224.422 354.902 220.613 351.845 216.973C347.012 211.215 344.327 208.181 345.64 202.804C346.546 199.076 361.987 190.849 363.216 184.024C363.574 182.071 363.304 177.957 363.502 175.99C365.05 173.758 365.943 171.284 365.494 168.536C365.275 167.2 363.479 166.973 362.629 167.779C355.101 174.921 351.011 180.472 342.583 186.502C338.884 189.146 334.198 191.143 330.258 194.239C327.991 196.02 326.543 198.113 325.79 203.378C325.138 207.95 327.175 212.275 329.89 215.636C333.429 220.016 337.437 223.964 340.866 228.446Z" fill="#FFAB9D"/>
<path d="M349.831 147.176C347.541 137.626 342.487 127.37 335.085 120.768C334.651 120.267 332.856 118.827 331.288 117.6C330.519 116.952 329.718 116.341 328.9 115.758C328.806 115.687 328.757 115.65 328.757 115.65L328.753 115.654C324.158 112.415 318.869 110.094 313.667 108.027C297.478 101.593 277.806 99.2803 263.943 111.998C260.59 115.075 258.077 118.954 256.552 123.231C254.933 127.764 254.896 132.661 253.929 137.352C252.052 139.535 247.163 139.687 244.846 140.496C240.649 141.962 235.629 143.854 232.801 147.264C226.283 155.13 223.5 165.605 228.056 175.503C228.943 177.435 230.207 179.267 230.771 181.332C231.309 183.289 231.008 185.315 230.706 187.292C229.976 192.058 229.307 196.665 231.321 201.231C234.734 208.97 243.771 213.233 251.905 211C253.645 210.523 254.704 209.434 255.192 208.139C255.34 208.049 255.487 207.962 255.636 207.861C258.214 206.089 259.873 203.392 261.195 200.554C261.304 200.525 261.408 200.507 261.519 200.468C266.475 198.714 269.08 194.857 270.94 190.155C272.083 187.276 273.108 184.374 274.216 181.498C278.931 174.54 283.396 167.416 287.596 160.133C289.203 160.792 290.859 161.268 292.556 161.515C292.748 161.587 292.945 161.665 293.143 161.73C299.98 163.95 306.758 161.123 312.005 156.721C315.043 154.171 317.777 151.131 319.916 147.786C319.922 147.781 319.928 147.779 319.934 147.775C321.756 147.816 323.829 146.939 324.559 145.264C324.849 144.586 325.125 143.788 325.348 142.915C328.062 139.654 329.74 135.745 329.652 131.373C331.413 134.512 332.067 138.053 330.47 141.639C329.35 144.162 329.74 147.137 332.308 148.642C333.619 149.409 335.48 149.503 337.001 148.904C337.017 149.17 337.038 149.438 337.044 149.703C337.115 152.132 336.894 154.531 336.336 156.897C335.809 159.125 335.058 161.28 333.999 163.313C333.257 164.744 332.188 167.036 330.793 168.271C327.078 168.555 325.843 174.507 330.047 175.503C333.417 176.298 335.782 174.098 337.624 171.53C338.279 171.779 339.019 171.8 339.794 171.477C349.571 167.412 352.133 156.778 349.831 147.176Z" fill="#3D3648"/>
<path d="M342.573 144.121C342.54 140.277 342.117 136.321 339.207 133.388C334.918 129.068 328.961 130.438 324.831 133.961C322.997 135.523 321.208 137.132 319.327 138.639C317.17 141.264 314.837 143.738 312.21 145.887C305.943 151.009 298.985 152.659 291.422 154.994C291.011 155.119 290.604 155.254 290.205 155.395C289.946 155.831 289.716 156.284 289.512 156.761C289.387 157.055 289.281 157.36 289.173 157.662C288.234 157.489 287.269 157.468 286.353 157.64C282.061 158.437 279.8 162.296 280.354 166.23C281.391 173.586 283.531 180.787 286.598 187.623C289.281 193.591 292.777 200.373 298.656 204.054C305.334 208.233 313.762 207.748 320.315 203.743C326.78 199.794 331.043 193.55 334.347 187.077C340.986 174.091 342.714 158.462 342.573 144.121Z" fill="#FFAB9D"/>
<path d="M328.315 167.942C327.135 172.984 326.515 184.614 318.701 181.93C317.664 181.572 317.329 183.242 318.349 183.6C327.611 186.855 328.654 174.111 329.977 168.294C330.224 167.225 328.562 166.877 328.315 167.942Z" fill="#E28566"/>
<path d="M361.589 176.098C359.859 178.707 358.219 181.383 356.43 183.949C354.478 186.754 351.975 188.785 349.231 190.786C348.348 191.428 349.202 192.913 350.092 192.263C352.562 190.463 354.999 188.639 356.89 186.208C359.164 183.305 361.051 180.044 363.049 176.95C363.642 176.032 362.186 175.194 361.589 176.098Z" fill="#E28566"/>
<path d="M295.879 181.941C297.114 179.219 298.261 176.459 299.304 173.65C300.439 170.579 297.948 167.959 295.1 167.475C295.37 167.019 295.56 166.479 295.648 165.847C295.941 163.807 295.879 161.803 296.039 159.775C299.157 161.48 302.449 164.128 302.201 159.664C301.888 154.033 293.119 149.556 287.748 151.911C285.092 153.074 282.979 155.647 281.207 158.593C279.548 161.355 275.159 169.1 272.349 173.343C265.721 183.37 259.36 193.581 252.878 203.702C249.729 208.631 248.523 210.016 249.104 212.662C250.811 220.433 264.267 230.1 276.02 226.878C279.571 225.905 282.139 223.308 288.197 215.438C296.505 204.655 302.201 197.022 305.203 185.842C306.695 180.276 299.014 177.242 295.879 181.941Z" fill="#FFAB9D"/>
<path d="M291.179 160.598C289.589 160.156 288.178 161.148 287.579 162.606C286.926 164.193 287.2 166.01 288.155 167.411C288.775 168.315 290.257 167.458 289.638 166.546C289.104 165.773 288.83 164.92 288.963 163.978C289.094 163.084 289.654 161.984 290.73 162.228C291.789 162.467 292.232 160.888 291.179 160.598Z" fill="#E28566"/>
<path d="M286.407 152.646C288.713 150.301 281.694 150.168 279.355 152.489C276.102 155.72 268.238 158.134 267.684 162.426C266.954 168.094 266.071 171.275 262.47 175.706C255.079 184.799 252.576 197.013 244.379 205.368C242.062 207.727 248.421 212.344 248.965 211.526C253.267 205.032 262.861 194.605 268.694 189.52C269.774 188.575 270.855 187.63 271.937 186.678C274.895 184.435 277.621 181.844 279.948 179.17C281.759 177.096 282.702 174.911 282.434 172.132C281.994 167.579 281.704 163.538 282.274 158.995C282.845 156.016 285.276 153.787 286.407 152.646Z" fill="#3D3648"/>
<path d="M325.695 156.312C323.34 154.936 316.202 155.013 312.458 155.437C312.317 155.451 309.759 155.856 309.391 156.79C308.716 158.489 318.33 159.771 321.205 159.655C323.91 159.546 325.601 159.15 326.041 158.076C326.194 157.698 326.051 156.52 325.695 156.312Z" fill="#3D3648"/>
<path d="M336.829 159.672C336.001 159.49 335.506 160.33 335.359 160.71C334.942 161.79 335.89 163.244 337.774 165.188C338.36 165.793 339.446 166.709 340.71 167.66C341.023 165.996 341.29 164.323 341.515 162.645C339.771 161.154 338.048 159.94 336.829 159.672Z" fill="#3D3648"/>
<path d="M318.315 165.709C315.731 165.64 311.833 164.91 309.359 164.182C308.3 163.871 307.857 165.509 308.903 165.826C310.22 166.222 312.948 166.842 314.293 167.055C314.275 167.102 314.26 167.153 314.248 167.206C314.173 167.758 314.034 168.365 314.26 168.899C314.616 169.735 315.786 169.94 316.379 169.224C316.481 169.103 316.548 168.96 316.614 168.819C316.822 168.38 316.959 167.875 316.953 167.406C316.949 167.386 316.949 167.369 316.943 167.353C317.399 167.384 317.859 167.408 318.315 167.421C319.417 167.449 319.417 165.74 318.315 165.709Z" fill="#3D3648"/>
<path d="M339.767 172.097C337.923 171.306 336.013 170.351 334.664 169.472C333.741 168.873 332.77 170.279 333.692 170.88C334.077 171.132 334.467 171.371 334.862 171.604C334.856 171.608 335.273 171.843 335.749 172.107C335.712 172.385 335.668 172.69 335.663 172.719C335.586 173.271 335.449 173.878 335.674 174.412C336.031 175.248 337.199 175.452 337.792 174.737C337.89 174.616 337.962 174.473 338.027 174.332C338.17 174.029 338.274 173.696 338.33 173.365C338.649 173.502 338.988 173.643 339.34 173.788C339.487 173.226 339.63 172.663 339.767 172.097Z" fill="#3D3648"/>
<path d="M319.157 191.875C316.791 191.76 314.102 191.566 311.798 192.175C310.733 192.455 311.183 194.101 312.248 193.819C314.399 193.253 316.957 193.474 319.157 193.582C320.255 193.635 320.249 191.928 319.157 191.875Z" fill="#E28566"/>
<path d="M330.121 476.424C327.185 470.327 323.557 464.643 319.311 459.38C318.624 458.523 317.434 459.736 318.109 460.58C322.257 465.751 325.751 471.325 328.649 477.285C329.127 478.266 330.591 477.405 330.121 476.424Z" fill="#E28566"/>
<path d="M322.135 481.146C317.645 476.08 312.609 471.608 307.083 467.701C306.193 467.069 305.375 468.558 306.259 469.183C311.659 473.025 316.543 477.435 320.956 482.375C321.69 483.193 322.859 481.962 322.135 481.146Z" fill="#E28566"/>
<path d="M328.752 481.288C324.564 474.995 319.669 469.223 314.09 464.113C313.288 463.377 312.217 464.674 313.008 465.414C318.447 470.491 323.248 476.087 327.37 482.282C327.973 483.194 329.361 482.206 328.752 481.288Z" fill="#E28566"/>
<path d="M268.224 385.723C264.027 382.37 262.538 378.068 261.765 372.932C261.101 368.559 259.876 365.287 256.535 362.296C252.918 359.053 250.252 355.998 249.089 351.13C248.013 346.636 248.173 341.9 248.561 337.323C250.35 316.257 254.691 294.326 248.144 273.613C246.67 268.954 244.386 264.742 240.434 261.744C236.614 258.849 231.989 257.271 227.495 255.76C226.459 255.412 226.013 257.048 227.045 257.397C231.517 258.908 236.183 260.466 239.902 263.474C244.1 266.872 246.005 271.884 247.316 276.967C250.054 287.578 250.23 298.638 249.545 309.515C248.896 319.812 247.14 330.035 246.641 340.33C246.263 348.151 247.31 356.256 253.364 361.797C255.433 363.696 257.67 365.287 258.807 367.949C259.844 370.374 259.997 373.03 260.449 375.598C261.248 380.158 263.373 384.033 267.01 386.93C267.867 387.611 269.085 386.408 268.224 385.723Z" fill="#C25353"/>
<path d="M366.855 319.233C361.938 315.416 363.418 308.464 361.664 303.135C360.089 298.357 357.053 294.274 354.814 289.806C351.901 283.983 352.021 278.242 352.976 271.944C353.777 266.675 354.667 261.463 353.438 256.186C353.191 255.121 351.549 255.573 351.796 256.638C353.268 262.985 351.44 269.262 350.766 275.584C350.173 281.121 350.995 286.099 353.536 291.06C356.072 296.012 359.595 300.578 360.68 306.149C361.703 311.377 361.153 316.986 365.823 320.574C366.581 321.157 367.618 319.828 366.855 319.233Z" fill="#C25353"/>
<path d="M282.442 221.652C277.964 227.635 269.688 228.07 263.026 226.114C256.365 224.157 250.889 219.236 249.697 212.21C249.517 211.131 247.869 211.589 248.051 212.666C250.593 227.756 274.292 235.392 283.929 222.521C284.593 221.634 283.1 220.775 282.442 221.652Z" fill="#C25353"/>
<path d="M373.363 237.083C371.437 240.706 368.352 243.327 365.314 245.998C362.048 248.864 358.716 251.604 354.974 253.831C354.035 254.389 354.886 255.853 355.835 255.299C359.715 253.025 363.15 250.167 366.52 247.206C369.675 244.436 372.842 241.706 374.844 237.948C375.361 236.975 373.879 236.11 373.363 237.083Z" fill="#C25353"/>
<path d="M287.821 419.14C286.058 419.199 284.028 420.786 282.607 421.737C280.521 423.129 278.602 424.775 276.888 426.609C273.514 430.22 270.985 434.477 269.174 439.065C268.767 440.085 270.409 440.519 270.816 439.515C272.494 435.356 274.77 431.459 277.806 428.134C279.299 426.494 280.955 424.99 282.766 423.699C283.907 422.888 285.921 421.197 287.453 420.9C287.596 420.962 287.766 420.988 287.958 420.951C287.984 420.945 288.017 420.939 288.046 420.933C288.414 420.868 288.678 420.463 288.678 420.111C288.678 420.072 288.678 420.035 288.678 419.997C288.678 419.545 288.281 419.123 287.821 419.14Z" fill="#C25353"/>
<path d="M371.883 448.657L354.117 458.887C352.369 459.847 351.643 459.216 350.133 458.029L325.861 438.758C324.351 437.571 315.887 430.888 318.578 429.273L333.494 422.044C336.346 420.658 336.736 420.159 338.247 421.346L364.526 442.106C366.035 443.291 373.498 448.118 371.883 448.657Z" fill="#3D3648"/>
<path d="M368.117 448.118L355.161 455.403C353.04 456.733 351.9 457.294 350.39 456.107L327.941 437.782C326.431 436.597 319.657 431.965 321.811 430.888L334.733 424.26C338.083 422.644 337.875 423.075 339.384 424.26L360.935 441.291C362.444 442.476 370.27 447.58 368.117 448.118Z" fill="#C4C6E8"/>
</svg>
