<svg width="597" height="597" viewBox="0 0 597 597" fill="none" xmlns="http://www.w3.org/2000/svg">
<path d="M378.133 530.989C377.708 531.863 382.585 551.453 380.687 554.866C377.512 560.598 376.251 560.352 369.378 564.696C376.006 560.506 361.965 568.939 361.261 572.949C360.786 575.764 362.079 577.75 364.665 578.703C367.578 579.77 369.591 579.77 372.111 578.176C374.369 576.731 382.52 572.971 387.969 570.797C392.895 568.838 395.726 567.147 397.723 561.784C398.639 559.355 398.459 534.829 397.51 530.292C396.725 526.466 378.395 530.489 378.133 530.989Z" fill="#FFAC9D"/>
<path d="M398.729 550.772C397.96 550.188 397.224 550.087 396.34 550.508C392.33 552.432 382.789 552.678 382.298 552.766C380.253 553.13 378.976 554.536 377.683 556.069C376.243 557.804 374.705 559.425 373.035 560.94C369.55 564.089 369.239 564.383 365.589 567.318C362.758 569.584 357.243 574.622 359.698 578.004C363.003 582.594 368.715 581.162 371.219 580.235C374.918 578.865 374.95 579.264 378.518 577.578C382.331 575.777 386.128 573.981 389.941 572.18C393.329 570.577 397.338 569.267 400.3 566.926C405.913 562.521 403.819 554.576 398.729 550.772Z" fill="#3D3648"/>
<path d="M252.961 527.032C252.307 527.765 246.628 552.937 243.911 555.748C239.378 560.475 239.804 559.052 232.046 561.485C229.003 562.438 223.586 564.165 222.096 567.375C220.902 569.971 221.654 572.224 223.913 573.814C226.433 575.588 228.397 576.107 231.228 575.211C233.798 574.398 242.635 572.861 248.461 572.162C253.714 571.53 256.905 570.625 260.211 565.961C261.701 563.844 267.838 540.1 268.099 535.47C268.312 531.568 253.321 526.615 252.961 527.032Z" fill="#FFAC9D"/>
<path d="M263.703 555.519C263.114 554.746 262.427 554.443 261.477 554.61C257.092 555.366 247.845 552.994 247.354 552.941C245.276 552.73 243.656 553.732 242.019 554.86C240.153 556.134 238.222 557.268 236.193 558.269C231.987 560.347 227.552 561.897 223.231 563.716C219.893 565.121 213.216 568.459 214.64 572.381C216.571 577.705 222.462 577.889 225.13 577.683C229.058 577.375 233.034 576.418 236.929 575.772C241.086 575.082 245.227 574.393 249.384 573.703C253.082 573.088 257.304 572.926 260.79 571.49C267.385 568.784 267.549 560.57 263.703 555.519Z" fill="#3D3648"/>
<path d="M287.313 197.991C287.33 197.411 287.313 196.827 287.248 196.243C287.019 193.888 285.186 192.299 282.78 192.831C281.994 193.001 281.225 193.23 280.489 193.498C280.129 191.35 277.821 189.443 275.334 190.844C265.891 196.172 259.967 206.327 253.715 214.831C248.527 221.871 243.29 228.882 238.119 235.935C238.053 234.996 238.004 234.055 237.939 233.116C237.284 222.02 236.63 210.921 235.959 199.827C235.942 199.594 235.893 199.378 235.844 199.177C236.646 197.262 237.48 195.356 238.102 193.402C239.657 188.433 239.968 183.026 237.317 178.38C237.039 177.879 236.613 177.522 236.139 177.303C236.139 177.277 236.139 177.246 236.122 177.22C235.975 172.38 234.993 165.893 230.362 165.119C228.823 164.86 227.301 165.505 226.843 167.114C224.814 174.202 223.079 181.367 221.671 188.6C221.017 191.895 220.264 195.184 221.41 198.46C221.982 200.085 222.572 201.584 223.03 203.098C221.606 213.297 220.362 223.522 219.364 233.77C218.382 243.991 217.76 254.317 219.74 264.433C219.757 264.798 219.838 265.158 219.953 265.495C220.051 265.982 220.117 266.475 220.28 266.95C224.715 280.649 247.022 261.793 254.877 253.482C264.254 243.534 272.846 232.805 280.522 221.48C284.76 215.24 288.786 208.839 289.392 201.139C289.523 199.542 288.573 198.457 287.313 197.991Z" fill="#FFAB9D"/>
<path d="M317.033 111.037C315.871 106.483 314.103 102.028 311.092 98.3706C308.293 94.978 304.48 92.6378 300.471 90.9685C290.946 87.0015 279.687 86.8968 270.457 91.7589C262.012 96.2038 256.333 104.668 255.45 114.126C255.237 116.356 257.495 118.266 259.59 118.266C259.934 118.266 260.261 118.222 260.572 118.148C260.965 119.181 261.554 120.204 262.405 121.197C265.252 124.513 269.851 126.238 273.435 128.614C276.61 130.71 279.228 133.288 281.569 136.271C286.315 142.336 290.406 149.136 297.852 152.175C302.205 153.957 307.393 153.91 310.977 150.524C314.136 147.54 315.625 142.678 316.754 138.616C319.258 129.678 319.34 120.024 317.033 111.037Z" fill="#FFE396"/>
<path d="M320.271 167.302C317.112 159.941 311.744 153.125 311.024 144.927C310.779 142.336 307.293 141.919 306.426 143.777C306.246 143.588 306.049 143.403 305.836 143.228C304.134 141.836 301.974 141.629 299.879 141.317C294.724 140.549 290.077 138.243 286.362 134.605C285.396 133.661 284.218 133.74 283.383 134.321C282.958 131.799 282.319 129.336 281.305 127.095C280.47 125.215 279.161 123.485 277.328 122.461C276.362 121.916 275.151 121.602 274.038 121.592C272.729 121.583 271.502 122.272 270.258 122.299C268.49 122.33 267.23 120.371 266.396 119.048C265.005 116.875 263.859 114.559 262.975 112.139C262.615 111.151 261.961 110.501 261.191 110.133C259.457 108.881 256.446 109.136 255.562 111.81C253.86 116.905 253.5 122.282 254.416 127.57C255.349 132.915 258.082 137.522 260.357 142.363C262.533 146.988 262.844 152.288 265.414 156.748C267.901 161.078 272.091 163.994 276.15 166.726C277.131 167.385 278.719 167.38 279.701 166.726C281.125 165.773 282.417 164.803 284.61 164.109C286.476 163.52 288.391 165.278 289.471 166.616C293.546 171.663 297.474 176.841 301.467 181.951C302.727 183.566 304.642 182.617 305.247 181.09C305.509 181.116 305.771 181.098 306.065 181.032C310.468 180.026 315.083 178.858 319.174 176.93C323.495 174.897 321.727 170.701 320.271 167.302Z" fill="#FFAB9D"/>
<path d="M372.841 241.303C372.939 239.887 372.939 238.447 372.906 236.976C372.743 230.687 372.432 224.396 372.186 218.112C371.761 206.661 372.399 194.481 365.133 184.862C351.353 166.665 325.25 165.418 305.284 172.352C292.88 176.671 281.735 184.08 271.735 192.483C271.424 192.747 271.146 193.04 270.901 193.36C269.444 194.596 268.691 196.72 269.968 198.812C273.519 204.587 276.187 210.899 278.412 217.405C278.985 220.642 279.263 223.944 279.263 227.275C279.247 232.346 278.56 237.714 281.702 241.833C289.41 251.954 303.55 274.644 303.828 285.625C304.073 294.518 303.321 291.73 302.371 306.761C302.273 308.46 307.379 314.316 309.032 314.399C310.063 315.206 311.372 315.44 312.96 315.08C316.298 314.311 319.653 313.542 323.008 312.777C339.75 311.209 356.492 309.593 373.234 307.999C375.525 307.779 378.847 306.454 378.389 303.871C375.361 287.298 373.937 248.049 372.841 241.303Z" fill="#439F98"/>
<path d="M251.474 187.245L241.41 193.057C240.068 193.839 238.333 193.374 237.547 192.021L223.915 168.391C223.129 167.037 223.588 165.311 224.946 164.53L235.011 158.719C236.353 157.936 238.087 158.401 238.873 159.755L252.505 183.381C253.291 184.733 252.833 186.465 251.474 187.245Z" fill="#3D3648"/>
<path d="M248.974 185.48L241.151 190.005C239.792 190.788 238.058 190.321 237.272 188.968L226.095 169.589C225.309 168.238 225.767 166.506 227.126 165.726L234.948 161.205C236.307 160.423 238.041 160.89 238.827 162.241L250.005 181.621C250.79 182.973 250.332 184.703 248.974 185.48Z" fill="#C4C6E8"/>
<path d="M402.432 322.133C397.358 308.345 390.698 295.125 383.006 282.615C367.541 257.435 347.918 235.06 327.216 214.078C315.499 202.194 303.372 190.725 291.212 179.282C288.348 176.6 284.044 180.891 286.908 183.583C307.267 202.768 327.609 222.063 346.004 243.168C361.829 261.317 376.182 280.925 387.114 302.411C386.426 302.661 384.151 303.083 383.448 303.321C375.592 305.955 380.567 317.93 381.14 323.956C381.991 333.179 382.842 342.403 383.71 351.626C383.873 353.481 385.608 355.119 387.425 354.675C387.883 355.044 388.488 355.276 389.241 355.299C396.016 355.497 401.581 350.617 404.068 344.594C407.063 337.33 405.017 329.186 402.432 322.133Z" fill="#F2D0BD"/>
<path d="M177.99 54.6841C178.363 52.861 180.275 51.6581 182.026 51.6091C195.931 51.2261 211.479 50.8448 225.34 51.8905C227.222 52.0313 229.431 54.9869 229.317 56.5334C228.793 63.5951 228.466 70.7058 227.697 77.743C227.353 80.9981 226.535 84.2221 223.753 86.2595C222.132 87.4542 220.234 87.9026 218.287 88.0908C218.63 89.0302 218.974 89.9843 219.285 90.9417C219.694 92.2411 220.463 93.8924 220.381 95.2949C220.283 97.0558 218.908 97.478 217.436 96.9069C213.033 95.1885 208.827 92.2673 205.98 88.4296C201.299 88.482 196.619 88.464 191.935 88.3511C188.497 88.2709 184.556 88.6309 181.214 87.7177C177.38 86.6687 176.062 83.3694 175.885 79.7248C175.478 71.3441 176.312 62.893 177.99 54.6841Z" fill="#B3DDFC"/>
<path d="M402.615 526.851C396.87 469.238 391.126 411.624 385.382 354.008C383.745 337.716 380.308 321.329 378.639 305.037C378.623 304.787 378.574 304.551 378.525 304.317C378.426 303.206 378.377 302.319 378.394 301.73C378.508 298.463 378.786 295.414 377.395 294.413C376.217 293.557 371.095 293.635 367.871 293.781C363.698 293.964 359.508 294.185 355.335 294.439C351.358 294.681 347.381 294.958 343.421 295.265C343.192 295.177 328.888 296.139 327.53 296.63C320.607 297.224 313.587 297.747 306.811 299.012C305.011 299.345 303.489 300.17 302.638 301.831C301.722 303.623 302.278 305.481 302.442 307.374C302.605 308.978 302.589 310.559 302.425 312.122C290.43 336.398 281.674 362.063 274.13 388.064C265.538 417.646 257.486 447.452 250.171 477.372C245.916 494.73 242.103 512.194 238.96 529.79C238.42 532.79 241.628 536.127 244.557 536.061C247.274 536.004 249.991 535.947 252.707 535.886C259.646 536.795 266.602 537.7 273.54 538.614C276.208 538.965 278.614 536.891 279.53 534.572C296.288 492.349 314.978 450.901 335.696 410.457C339.542 424.942 343.339 439.44 346.907 454.005C352.667 477.591 357.872 501.288 363.125 524.998C364.401 530.795 365.612 543.881 378.934 541.2C385.087 539.961 391.453 540.169 397.623 539.053C406.002 537.538 402.745 528.217 402.615 526.851Z" fill="#3D3648"/>
<path d="M285.89 203.398C284.875 199 282.207 193.835 277.429 192.747C272.241 191.561 267.348 195.043 266.087 200.064C265.629 201.913 266.317 203.375 267.479 204.267C267.446 204.319 267.413 204.373 267.397 204.425C265.564 208.176 264.925 212.613 264.958 216.745C264.991 219.478 267.118 220.83 269.246 220.804C269.148 221.45 269.115 222.09 269.197 222.719C269.59 225.851 272.486 227.99 275.514 226.347C283.746 221.912 287.968 212.494 285.89 203.398Z" fill="#FFAB9D"/>
<path d="M234.72 174.509C233.165 172.862 231.594 174.237 231.021 175.893C229.908 179.116 229.008 182.438 228.043 185.701C227.65 187.023 228.943 187.804 229.974 187.524C229.728 189.64 229.598 191.761 229.581 193.9C229.565 195.89 232.641 195.89 232.674 193.9C232.674 193.769 232.674 193.637 232.674 193.506C233.411 193.607 234.196 193.281 234.327 192.416C234.835 189.134 235.342 185.85 235.62 182.542C235.816 180.294 236.471 176.371 234.72 174.509Z" fill="#FFAB9D"/>
<path d="M303.632 133.7C303.501 135.463 303.451 137.229 303.582 138.971C303.402 138.909 303.19 138.87 302.96 138.875C300.817 138.906 301.929 136.319 303.664 133.288C303.648 133.425 303.632 133.564 303.632 133.7ZM361.843 170.943C360.108 165.57 355.886 162.374 351.402 159.479C353.955 153.206 354.25 146.215 351.271 139.67C349.111 134.952 345.085 131.645 340.601 129.26C338.653 128.233 336.657 127.314 334.791 126.133C334.709 126.076 334.071 125.632 333.826 125.465C333.613 125.269 332.958 124.688 332.975 124.701C332.926 124.653 332.86 124.591 332.795 124.526C332.811 123.806 332.844 123.089 332.811 122.364C332.713 119.857 332.205 117.441 330.978 115.227C326.379 106.921 314.531 103.215 305.612 103.851C304.401 103.935 303.271 104.3 302.29 104.874C300.669 104.848 299.049 105.414 297.74 106.728C295.383 109.092 295.04 113.703 297.74 116.022C298.427 116.607 299.082 117.209 299.704 117.863C299.786 117.95 299.867 118.047 299.949 118.14C297.282 118.723 294.041 119.466 294.058 119.124C294.532 113.602 271.932 122.523 268.478 119.651C268.429 119.61 283.027 114.332 282.978 114.291C282.553 113.26 267.382 117.52 266.727 116.628C266.351 115.886 265.991 115.148 265.615 114.405C264.78 112.759 264.093 110.568 262.767 109.245C261.932 108.419 260.901 108.187 259.968 108.398C260.852 106.525 261.965 104.743 263.013 103.022C264.207 101.092 261.18 99.341 260.001 101.256C256.81 106.408 253.471 112.42 255.321 118.683C257.088 124.644 262.358 132.761 267.268 129.99C276.579 124.737 283.387 139.881 287.348 142.081C288.264 143.135 289.295 143.992 290.441 144.739C294.549 148.787 300.866 150.514 303.517 156.172C305.35 160.098 303.73 164.824 303.435 168.923C303.157 172.665 303.484 176.442 305.088 179.877C307.215 184.441 311.225 187.726 315.873 189.325C317.788 192.57 319.915 195.676 322.861 198.029C327.018 201.342 332.304 203.155 337.622 202.865C342.843 202.581 348.26 200.458 351.468 196.177C352.548 194.722 353.317 193.036 353.66 191.257C360.108 186.628 364.38 178.805 361.843 170.943Z" fill="#FFE396"/>
<path d="M368.571 67.4413C368.506 64.2467 368.293 61.0587 367.933 57.8871C367.622 55.3308 367.311 52.5995 365.331 50.7158C363.22 48.7078 360.421 48.4967 357.656 48.4443C351.584 48.3396 345.48 47.8993 339.408 48.1677C328.378 48.6505 326.119 50.9089 324.712 52.8761C323.075 55.1869 322.863 57.9231 322.928 60.6758C322.994 63.5103 323.108 66.3415 323.19 69.1711C323.288 72.0743 323.043 75.3114 324.434 77.9642C326.545 82.0048 330.62 82.3927 334.597 82.0932C333.811 84.1176 333.026 86.1829 332.486 88.2433C332.486 88.2515 332.485 88.2597 332.469 88.2728C332.436 88.3481 332.436 88.4184 332.42 88.4888C332.305 88.9323 332.207 89.3791 332.126 89.8243C331.864 91.1057 332.273 92.8453 333.991 92.3183C335.055 91.9927 336.053 90.8291 336.839 90.109C338.05 89.0109 339.179 87.8391 340.275 86.6183C341.814 84.8819 343.254 83.0506 344.661 81.1931C348.327 81.0213 352.009 81.0344 355.708 81.1408C360.585 81.2815 365.855 80.1425 367.786 75.079C368.719 72.6635 368.604 69.9877 368.571 67.4413Z" fill="#87CAFB"/>
<path d="M389.86 469.051C386.292 440.553 381.874 412.174 378.11 383.708C376.522 371.725 373.822 347.704 373.822 347.704L372.791 350.494C372.791 350.494 378.519 396.858 381.825 419.979C385.9 448.599 390.007 477.241 392.544 506.049C393.51 517.158 394.246 528.293 394.655 539.437C395.097 539.378 395.539 539.322 395.981 539.255C395.097 515.774 392.773 492.363 389.86 469.051Z" fill="#E9DEDE"/>
<path d="M250.999 535.861C251.425 532.887 252.03 529.908 252.472 527.005C253.208 522.081 253.945 517.158 254.698 512.239C256.269 502.113 257.889 492.003 259.656 481.918C263.191 461.794 267.299 441.751 272.569 422.005C277.789 402.445 284.401 383.426 292.027 364.69C299.392 346.629 307.1 328.44 310.487 309.123C311.126 305.481 311.584 301.814 311.895 298.133C311.453 298.195 311.011 298.266 310.569 298.331C309.047 316.076 303.254 333.055 296.757 349.54C289.753 367.272 282.339 384.757 276.677 402.986C265.139 440.084 258.511 478.47 252.685 516.806C251.965 521.457 251.277 526.105 250.59 530.756C250.328 532.442 250.001 534.16 249.723 535.887C250.148 535.877 250.574 535.869 250.999 535.861Z" fill="#E9DEDE"/>
<path d="M376.67 541.451C377.095 541.42 377.537 541.368 377.995 541.302C370.549 500.423 362.645 459.624 354.331 418.917C352.351 409.266 348.341 389.984 348.341 389.984L347.146 390.754C347.146 390.754 364.396 475.371 372.316 517.816C373.789 525.691 375.23 533.571 376.67 541.451Z" fill="#E9DEDE"/>
<path d="M297.742 396.525C302.914 379.737 308.969 363.296 315.22 346.891C321.652 330.051 327.74 313.814 331.373 296.129C330.898 296.244 330.424 296.371 329.949 296.504C326.742 311.784 321.766 325.813 316.268 340.417C310.098 356.799 303.781 373.099 298.462 389.79C287.726 423.421 279.789 457.875 272.932 492.486C269.97 507.415 267.221 522.384 264.504 537.362C264.946 537.418 265.388 537.475 265.813 537.532C271.263 507.363 276.942 477.227 284.012 447.39C288.07 430.299 292.571 413.311 297.742 396.525Z" fill="#E9DEDE"/>
<path d="M379.621 480.447C375.186 454.722 370.751 429.001 366.332 403.276C364.516 392.765 360.899 371.738 360.899 371.738L359.852 373.457C359.852 373.457 376.102 466.291 383.827 512.774C385.333 521.844 386.707 530.936 387.935 540.047C388.376 540.011 388.802 539.977 389.244 539.945C386.494 520.04 383.041 500.253 379.621 480.447Z" fill="#E9DEDE"/>
<path d="M308.951 423.782C317.363 394.087 327.64 364.98 338.098 335.956C343.073 322.146 348.064 308.337 353.056 294.528C352.565 294.559 352.09 294.589 351.599 294.62C342.091 320.832 332.501 347.024 323.467 373.405C313.517 402.468 304.712 431.886 297.855 461.842C294.009 478.603 290.72 495.491 287.987 512.471C287.938 512.758 288.069 512.98 288.249 513.126C288.789 511.84 289.313 510.552 289.853 509.27C294.664 480.452 300.998 451.901 308.951 423.782Z" fill="#E9DEDE"/>
<path d="M359.505 325.225C362.958 314.848 366.051 304.344 368.522 293.689C368.31 293.697 368.097 293.707 367.9 293.715C367.655 293.725 367.409 293.741 367.148 293.751C357.148 336.313 337.461 375.781 324.843 417.55C321.848 427.45 319.279 437.482 317.348 447.646C318.133 446.003 318.919 444.365 319.704 442.727C328.345 402.213 346.462 364.432 359.505 325.225Z" fill="#E9DEDE"/>
<path d="M378.419 326.478C376.897 341.763 370.253 355.788 362.119 368.622C361.186 370.101 360.221 371.573 359.255 373.041C351.449 384.839 342.726 396.082 333.971 407.169C333.447 407.835 334.56 408.557 335.084 407.892C345.23 395.033 355.393 381.962 364.05 368.033C371.922 355.366 378.256 341.544 379.729 326.553C379.81 325.71 378.501 325.64 378.419 326.478Z" fill="#3B3331"/>
<path d="M186.288 127.917C186.345 124.724 186.556 121.531 186.935 118.363C187.237 115.803 187.545 113.075 189.53 111.192C191.646 109.179 194.432 108.969 197.197 108.92C203.285 108.815 209.373 108.639 215.445 108.639C225.248 108.639 228.733 111.38 230.141 113.349C231.777 115.663 231.99 118.394 231.925 121.148C231.859 123.981 231.745 126.814 231.663 129.647C231.565 132.55 231.81 135.784 230.419 138.44C228.406 142.31 224.577 142.824 220.78 142.6C221.762 145.746 222.645 148.92 223.186 152.184C223.3 152.833 222.564 153.704 221.893 153.18C221.369 152.781 220.862 152.374 220.371 151.959C220.158 151.951 219.978 151.868 219.847 151.701C219.7 151.521 219.552 151.341 219.405 151.164C216.067 148.315 213.039 145.147 210.339 141.674C206.624 141.497 202.892 141.507 199.145 141.617C194.278 141.757 188.998 140.62 187.065 135.55C186.147 133.139 186.244 130.46 186.288 127.917Z" fill="#87CAFB"/>
<path d="M318.573 15.5601C318.213 13.7386 316.298 12.539 314.547 12.4915C300.653 12.1086 285.09 11.7224 271.228 12.7681C269.346 12.9121 267.137 15.8645 267.251 17.4094C267.775 24.4727 268.102 31.5835 268.872 38.6239C269.232 41.8757 270.05 45.0997 272.816 47.1372C273.405 47.5676 274.01 47.8965 274.665 48.1567C273.667 50.1108 272.668 52.1401 272.259 54.1694C272.21 54.4018 272.177 54.6211 272.161 54.8404C270.279 54.8551 268.381 54.8633 266.482 54.8764C261.327 54.9075 252.604 54.6603 247.449 55.3641C237.794 56.6815 240.232 73.8111 240.396 83.6549C240.445 86.3078 243.21 90.4401 245.485 90.3484C246.68 90.2944 247.891 90.2551 249.102 90.2158C249.348 90.2731 249.593 90.3222 249.855 90.3615C249.364 92.3597 248.955 94.371 248.66 96.4053C248.447 97.8241 248.202 100.367 250.706 99.5147C251.786 99.1465 252.866 98.0565 253.75 97.3659C255.092 96.3087 256.368 95.1877 257.596 94.0159C258.79 92.8654 259.92 91.656 260.983 90.4057C261.933 90.3533 262.882 90.2944 263.847 90.224C264.796 90.1537 265.778 90.098 266.793 90.0227C271.326 90.0669 275.843 90.1766 280.295 90.3484C283.044 90.4532 287.07 90.1324 289.836 90.242C292.405 90.3386 295.269 90.6773 297.56 89.2143C300.113 87.5892 300.588 84.8185 300.686 82.0151C300.768 79.2215 300.719 76.4247 300.604 73.6311C300.506 71.119 300.309 68.6069 300.048 66.1063C299.753 63.37 299.573 60.5862 297.904 58.2934C294.663 53.8519 288.526 54.7405 283.731 54.77C282.455 54.7749 281.195 54.7847 279.918 54.7929C280.589 54.1154 281.211 53.4346 281.784 52.8552C282.929 51.7129 283.928 50.515 284.779 49.2008C291.39 49.3727 298.018 49.3858 304.63 49.2319C308.067 49.1485 312.011 49.5085 315.349 48.5953C319.195 47.5463 320.504 44.2519 320.684 40.6057C321.093 32.2201 320.259 23.7706 318.573 15.5601Z" fill="#B3DDFC"/>
<path d="M407.942 114.362C407.942 110.673 407.713 106.982 407.288 103.32C406.911 100.228 406.551 97.276 403.442 95.7393C400.316 94.201 395.832 95.2255 392.477 95.4055C389.286 95.5724 386.095 95.7393 382.903 95.9095C379.45 96.0912 375.457 95.813 372.822 98.4838C370.629 100.706 370.351 103.857 370.286 106.802C370.269 107.845 370.253 108.889 370.253 109.93C370.122 112.319 370.073 114.718 370.106 117.098C370.155 120.463 369.975 125.027 371.873 127.948C373.084 129.788 374.868 130.57 376.799 130.904C376.324 133.077 375.915 135.268 375.604 137.478C375.408 139.021 375.163 141.787 377.65 140.86C378.747 140.456 379.827 139.27 380.71 138.523C382.052 137.373 383.329 136.157 384.556 134.879C385.751 133.627 386.88 132.313 387.944 130.951C388.893 130.894 389.842 130.833 390.791 130.758C396.683 130.288 404.424 130.275 406.944 123.775C408.073 120.854 407.942 117.45 407.942 114.362Z" fill="#B3DDFC"/>
<path d="M360.028 100.612C359.652 98.789 357.737 97.5861 355.986 97.537C342.092 97.159 326.545 96.7728 312.683 97.8185C310.801 97.9625 308.575 100.915 308.69 102.461C309.23 109.523 309.557 116.635 310.326 123.671C310.67 126.926 311.488 130.15 314.254 132.188C317.085 134.266 320.735 134.094 324.073 134.2C324.973 134.227 325.857 134.243 326.757 134.266C326.283 136.382 325.89 138.518 325.595 140.673C325.382 142.216 325.153 144.982 327.641 144.056C328.737 143.652 329.818 142.465 330.701 141.714C332.043 140.568 333.32 139.352 334.547 138.074C335.66 136.891 336.724 135.659 337.738 134.384C340.521 134.376 343.303 134.349 346.085 134.282C349.522 134.2 353.466 134.559 356.804 133.646C360.65 132.597 361.959 129.302 362.139 125.656C362.532 117.272 361.714 108.821 360.028 100.612Z" fill="#B3DDFC"/>
</svg>
