<svg width="597" height="597" viewBox="0 0 597 597" fill="none" xmlns="http://www.w3.org/2000/svg">
<path d="M425.545 529.794C425.297 524.001 423.485 518.556 421.921 513.029C420.536 508.104 419.274 503.141 418.155 498.149C415.81 487.887 414.016 477.512 412.577 467.086C412.328 465.368 412.453 466.189 412.506 466.571C412.417 465.968 412.346 465.373 412.257 464.776C412.115 463.581 411.955 462.383 411.813 461.188C411.493 458.498 411.191 455.8 410.907 453.101C410.338 447.699 409.859 442.282 409.432 436.865C408.597 426.457 407.993 416.034 407.443 405.611C406.377 385.2 405.595 364.763 403.907 344.386C400.656 304.789 394.207 264.991 377.526 228.626C375.536 224.312 373.404 220.072 371.148 215.9C369.123 212.198 363.704 210.709 360.133 213.015C356.367 215.445 355.106 220.052 357.238 224.024C357.362 224.243 357.469 224.461 357.593 224.682C357.238 224.674 356.9 224.687 356.563 224.728C354.484 223.646 351.979 223.468 349.652 224.447C349.528 224.506 349.386 224.575 349.261 224.641C346.898 221.544 343.132 220.098 339.366 221.69C337.518 222.465 335.955 224.001 335.067 225.838C333.823 225.255 332.455 224.985 331.069 225.065C330.448 223.88 329.506 222.896 328.405 222.18C328.405 220.887 328.422 219.595 328.422 218.304C328.458 214.097 324.71 210.07 320.393 210.263C315.987 210.459 312.398 213.795 312.345 218.304C312.167 233.673 312.043 249.04 311.901 264.408C310.16 265.885 309.147 268.121 308.881 270.649C306.287 296.519 303.569 322.378 301.099 348.259C300.016 359.581 299.039 370.92 298.31 382.278C294.757 390.439 291.382 398.67 288.149 406.966C288.149 405.392 288.113 403.824 288.042 402.255C289.339 391.056 290.618 379.851 291.915 368.645C292.394 364.63 288.45 361.112 284.844 360.627C281.042 360.117 276.725 362.487 275.873 366.476C275.091 370.123 274.309 373.766 273.528 377.408C270.809 375.703 267.15 375.593 264.432 377.357C264.556 371.997 264.538 366.628 264.29 361.269C264.13 357.801 261.874 354.212 258.303 353.397C255.602 352.784 251.96 353.47 250.024 355.681C248.798 353.352 245.956 352.375 243.522 353.025C243.327 348.19 241.834 343.789 236.784 341.897C234.923 341.203 232.777 342.066 231.409 343.318C226.369 347.929 224.934 354.63 223.9 361.089C222.641 368.956 221.553 376.847 220.601 384.756C218.707 400.514 217.416 416.345 216.538 432.193C214.916 461.449 214.678 490.753 214.573 520.043C210.136 530.412 215.828 544.006 227.901 546.056C235.581 547.358 243.717 547.387 251.481 547.239C252.742 547.216 254.003 547.168 255.265 547.11C255.442 547.124 255.602 547.14 255.762 547.158C266.972 548.202 278.164 547.668 289.285 546.028C294.722 545.228 300.069 544.006 305.487 543.024C306.838 542.782 308.188 542.548 309.538 542.343C309.822 542.304 309.947 542.281 310 542.27C310.142 542.253 310.32 542.233 310.533 542.214C311.137 542.148 311.723 542.08 312.327 542.024C315.027 541.78 317.746 541.69 320.446 541.857C322.329 541.97 321.814 541.89 323.537 542.214C324.887 542.477 326.237 542.805 327.588 543.182C330.252 543.935 332.882 544.894 335.458 545.919C340.592 547.945 345.637 550.292 350.931 551.883C359.032 554.324 368.537 555.149 376.691 552.265C381.345 552.823 386.284 552.484 390.885 552.589C395.966 552.708 401.225 553.237 406.288 552.665C412.612 551.951 417.764 549.49 421.566 544.269C424.515 540.226 425.759 534.738 425.545 529.794" fill="#EED2D2"/>
<path d="M342.282 418.724H243.737C238.61 418.724 234.453 414.567 234.453 409.441V355.387C234.453 350.258 238.61 346.101 243.737 346.101H342.282C347.416 346.101 351.573 350.258 351.573 355.387V409.441C351.573 414.567 347.416 418.724 342.282 418.724" fill="#3D3648"/>
<path d="M220.001 559.818C219.695 559.818 219.386 559.781 219.077 559.704C217.031 559.193 215.787 557.125 216.297 555.078L256.919 392.071C257.434 390.026 259.495 388.78 261.538 389.292C263.599 389.802 264.842 391.872 264.327 393.916L223.701 556.924C223.268 558.66 221.714 559.818 220.001 559.818" fill="#3D3648"/>
<path d="M368.504 561.114C366.799 561.114 365.236 559.942 364.809 558.197L325.654 396.996C325.157 394.95 326.418 392.885 328.461 392.39C330.504 391.894 332.565 393.148 333.063 395.193L372.217 556.399C372.715 558.444 371.453 560.503 369.41 561.004C369.108 561.077 368.806 561.114 368.504 561.114" fill="#3D3648"/>
<path d="M392.93 348.451C394.919 345.562 391.277 342.146 388.506 343.239C384.331 341.372 380.068 339.707 375.733 338.266C374.027 336.662 371.469 336.454 369.426 337.874C366.957 339.575 366.175 343.333 365.127 345.951C362.427 352.601 357.026 375.273 347.308 379.402C342.76 381.333 341.712 386.282 343.56 390.884C345.549 395.847 350.328 398.976 354.468 402.04C359.353 405.668 364.398 409.059 369.586 412.245C370.705 412.927 371.771 412.463 372.357 411.633C373.956 411.93 375.644 409.603 374.294 407.867C373.885 407.347 373.477 406.823 373.068 406.304C373.939 405.849 374.596 404.787 374.4 403.728C374.01 401.598 372.89 399.866 371.86 397.997C370.723 395.924 367.952 390.679 367.365 388.386C366.406 384.648 388.577 354.729 392.93 348.451" fill="#FFC183"/>
<path d="M379.589 402.19C378.008 398.903 376.284 394.168 372.802 392.458C369.338 390.745 367.402 391.461 364.168 393.126C360.971 394.769 358.217 397.34 356.316 400.386L341.908 389.1C341.287 388.61 340.381 388.718 339.901 389.343C339.421 389.963 339.528 390.864 340.15 391.351L357.471 404.929C359.745 406.919 362.143 408.759 364.595 410.509L366.247 411.801C366.425 411.944 366.62 412.03 366.833 412.072C367.668 412.639 368.503 413.208 369.338 413.765C373.3 416.373 378.185 420.607 383.088 417.798C383.231 417.722 383.355 417.631 383.479 417.523C385.06 416.325 381.543 406.199 379.589 402.19" fill="#753D42"/>
<path d="M365.98 344.159C367.97 341.27 364.328 337.856 361.557 338.947C357.382 337.08 353.118 335.417 348.784 333.976C347.078 332.372 344.52 332.164 342.477 333.583C340.008 335.283 339.226 339.043 338.178 341.659C335.477 348.309 330.077 370.981 320.359 375.112C315.811 377.043 314.745 381.99 316.593 386.593C318.6 391.555 323.379 394.684 327.501 397.75C332.404 401.378 337.449 404.767 342.637 407.953C343.756 408.635 344.822 408.171 345.408 407.343C347.007 407.638 348.695 405.311 347.345 403.575C346.936 403.056 346.527 402.531 346.119 402.012C346.989 401.559 347.629 400.496 347.451 399.438C347.06 397.306 345.941 395.575 344.911 393.707C343.774 391.632 341.002 386.387 340.416 384.094C339.457 380.356 361.628 350.437 365.98 344.159" fill="#FFC183"/>
<path d="M352.64 397.897C351.058 394.613 349.335 389.878 345.853 388.166C342.371 386.455 340.452 387.169 337.219 388.834C334.004 390.479 331.268 393.049 329.367 396.094L314.959 384.81C314.337 384.318 313.431 384.428 312.952 385.051C312.472 385.673 312.579 386.574 313.2 387.059L330.522 400.639C332.796 402.627 335.176 404.467 337.646 406.217L339.28 407.508C339.475 407.652 339.671 407.738 339.884 407.782C340.719 408.349 341.554 408.916 342.389 409.473C346.333 412.081 351.236 416.317 356.139 413.508C356.281 413.431 356.406 413.341 356.512 413.231C358.111 412.035 354.576 401.907 352.64 397.897" fill="#753D42"/>
<path d="M340.433 110.053C337.981 106.987 334.765 104.889 331.887 102.272C331.266 101.694 330.662 101.089 330.093 100.446C329.862 100.085 329.649 99.7172 329.418 99.3584C329.4 99.3193 329.365 99.2749 329.329 99.2287C329.312 99.1914 329.294 99.1416 329.276 99.0848C329.276 99.0048 329.24 98.9178 329.223 98.8396C329.311 98.4612 329.418 97.8448 329.436 97.7577C329.454 97.7489 329.507 97.5872 329.56 97.4167C329.738 97.0347 330.36 95.4802 330.218 95.8266C330.626 94.8424 331.053 93.8635 331.372 92.8456C332.065 90.7226 332.385 88.4434 332.545 86.2298C332.847 81.9821 331.781 77.2779 329.329 73.7639C323.964 66.091 314.904 64.5099 306.199 65.4603C306.217 65.1494 306.216 64.8385 306.216 64.5205C306.057 59.6137 304.227 54.954 300.887 51.3423C294.189 44.0922 281.967 44.1242 275.856 52.0351C273.671 54.8633 272.551 58.5833 272.445 62.3851C266.476 63.2148 260.826 65.9258 256.438 70.273C250.22 76.434 248.248 84.5243 248.426 92.7923C243.54 99.2837 239.152 106.221 236.974 114.033C236.059 117.333 235.763 120.776 236.397 124.152C236.884 126.747 238.099 128.943 239.437 131.14C239.383 131.18 239.33 131.217 239.277 131.256C237.866 132.269 236.454 133.356 235.244 134.612C227.696 142.453 224.054 156.865 232.339 165.573C242.368 176.115 258.339 172.422 263.242 161.986C266.138 155.838 266.031 142.811 266.174 136.038C266.191 135.561 266.191 135.076 266.209 134.589C268.696 136.26 272.143 135.79 274.594 134.193C274.559 135.004 274.559 135.815 274.594 136.623C274.754 139.824 276.46 142.592 279.462 143.859C281.132 144.562 283.317 144.697 285.218 144.106C285.218 144.107 285.218 144.109 285.218 144.109C284.827 148.016 288.522 151.405 292.075 151.885C293.212 152.036 292.768 159.855 293.799 159.549C293.959 159.92 294.154 160.285 294.403 160.634C299.537 167.97 307.549 172.614 316.609 172.793C326.824 172.994 338.016 166.17 337.91 147.92C337.892 145.644 337.626 143.251 337.004 141.066C336.684 139.966 336.275 138.906 335.831 137.85C335.6 137.294 335.369 136.74 335.121 136.186C335.849 135.843 336.595 135.539 336.951 135.312C341.445 132.567 344.288 128.668 344.856 123.381C345.371 118.495 343.417 113.81 340.433 110.053" fill="#764242"/>
<path d="M324.623 178.545C323.078 173.815 319.205 173.194 314.994 171.811C310.766 170.418 306.805 168.057 303.642 164.894C297.016 158.252 294.227 149.023 295.541 139.792C296.234 134.942 288.666 134.457 287.956 139.272C287.92 139.611 287.884 139.954 287.831 140.297C287.423 140.378 287.014 140.517 286.641 140.714C285.469 139.929 283.923 139.781 282.715 140.348C281.382 139.158 279.322 138.984 277.883 139.961C277.812 139.947 277.723 139.934 277.652 139.925L277.225 136.744C276.746 133.272 272.447 133.006 270.563 135.175C269.853 134.528 268.947 134.258 267.97 134.136C266.637 133.967 265.323 134.74 264.559 135.784C262.871 138.133 263.724 141.569 263.919 144.273C264.15 147.307 264.381 150.348 264.239 153.393C263.99 158.213 262.693 163.466 258.625 166.493C254.646 169.467 249.049 170.226 244.306 171.295C239.812 172.312 232.647 172.441 230.105 177.014C228.675 179.585 229.962 182.635 233.009 182.992C236.767 183.434 239.438 190.892 242.743 191.901C248.445 193.637 272.429 199.194 274.578 198.492C276.835 197.76 299.468 192.488 307.249 189.619C310.393 188.462 316.682 183.672 321.621 183.07C323.522 182.839 325.227 180.407 324.623 178.545" fill="#FFC183"/>
<path d="M381.685 224.037C381.241 222.868 370.511 218.761 369.605 217.807C365.803 213.774 361.113 210.427 356.814 206.936C347.984 199.747 339.155 192.559 330.308 185.369C329.473 184.63 328.585 183.929 327.661 183.261C327.092 182.854 326.506 182.573 325.92 182.401C324.41 179.834 321.354 178.736 318.352 179.327C314.284 180.129 311.725 183.44 308.616 185.538C305.863 187.386 302.985 189.031 300 190.459C294.795 192.95 287.262 195.165 281.347 195.926C275.36 196.693 267.845 196.492 262.249 195.38C254.93 193.93 249.334 191.132 244.022 186.322C241.375 183.92 237.276 183.707 234.659 186.322C232.542 188.441 232.304 191.388 233.471 193.863C231.268 196.185 230.438 199.606 230.115 202.964C229.289 211.472 228.521 219.985 227.768 228.498C225.055 259.165 222.906 289.95 223.291 320.752C222.9 320.736 222.501 320.755 222.099 320.816C218.71 321.326 216.473 323.989 216.283 327.403C216.269 327.675 216.269 327.947 216.26 328.219C215.715 328.508 215.221 328.863 214.799 329.284C212.97 331.113 212.554 333.477 213.165 335.671C211.721 337.931 211.191 340.78 210.918 343.626C210.166 351.441 211.191 360.29 217.656 365.615C224.574 371.307 234.334 370.315 241.321 365.238C247.841 360.493 252.745 353.603 258.003 347.567C268.769 335.232 279.943 323.285 290.833 311.08C301.244 299.437 309.931 286.861 313.768 271.522C316.948 258.786 319.915 246.932 319.329 233.856C328.602 240.437 336.011 244.496 347.292 246.331C355.055 247.594 370.919 247.306 376.48 240.548C380.584 235.569 385.345 230.033 381.685 224.037" fill="#D77400"/>
<path d="M304.993 114.307C304.513 107.082 303.003 98.4358 297.851 93.0458C293.161 88.1195 285.38 86.1883 278.878 87.1139C271.629 88.1461 267.312 92.5856 264.736 98.3505C264.239 98.0165 263.688 97.7553 263.066 97.5812C260.064 96.732 256.333 98.6223 255.641 101.907C252.656 116.185 254.113 131.719 259.815 145.118C262.569 151.54 268.663 157.5 275.431 159.366C282.715 161.373 288.755 157.671 294.138 152.771C304.477 143.331 305.863 127.683 304.993 114.307" fill="#FFC183"/>
<path d="M309.328 110.52C311.46 109.733 312.544 106.662 309.968 105.475C309.133 105.113 308.316 104.713 307.516 104.294C309.133 103.617 310.217 102.05 309.648 99.8131C308.707 96.1197 304.159 93.7907 301.139 92.0657C297.461 89.9782 293.588 88.2656 289.698 86.6454C285.825 85.0341 281.792 83.62 277.564 83.5046C275.912 83.4584 273.975 83.5276 272.767 84.8494C272.554 85.0661 272.394 85.3024 272.27 85.5511C271.737 85.4623 271.204 85.377 270.671 85.3023C268.966 85.0661 267.384 86.3808 267.029 87.8233C264.755 87.9672 262.765 89.2285 263.334 92.0728C263.529 93.0587 264.062 93.9701 264.773 94.8086C264.204 94.734 263.636 94.6896 263.067 94.6825C259.728 94.6381 256.423 95.8639 253.794 97.9069C250.614 100.396 249.086 103.846 247.807 107.591C246.617 111.089 252.124 112.558 253.332 109.111C254.345 106.23 255.446 103.489 258.164 101.831C260.456 100.424 263.21 100.044 265.768 100.907C268.575 101.845 269.996 103.817 271.506 106.177C273.3 108.946 275.645 110.481 278.701 111.327C281.757 112.171 284.954 111.869 288.134 111.933C291.527 112 294.938 111.68 298.314 112.071C304.283 112.759 309.133 116.294 308.671 122.75C308.405 126.457 314.107 126.395 314.427 122.75C314.853 117.841 312.793 113.489 309.328 110.52" fill="#764242"/>
<path d="M361.363 196.32C355.003 190.773 337.717 176.485 332.583 171.94C327.36 167.32 322.492 162.338 317.571 157.389C315.67 155.458 313.272 156.552 312.295 158.441C309.132 156.268 305.206 161.214 308.209 164.271C312.721 168.871 316.31 174.232 319.934 179.535C323.842 185.257 339.103 206.467 343.544 211.776C352.906 222.92 366.461 233.297 368.131 234.263C373.23 237.232 381.1 236.771 382.201 229.71C382.787 226.047 381.295 213.746 361.363 196.32Z" fill="#FFC183"/>
<path d="M308.331 145.406C308.064 144.344 307.709 143.32 307.265 142.34V142.306C307.247 142.279 307.229 142.249 307.229 142.221C304.316 135.799 297.849 131.327 290.352 131.327C280.119 131.327 271.841 139.618 271.841 149.842C271.841 156.63 275.483 162.562 280.937 165.785C280.937 165.786 293.248 175.961 293.248 175.961C295.042 177.121 297.156 177.799 299.448 177.799C305.755 177.799 310.854 172.692 310.854 166.394C310.854 164.37 308.331 145.406 308.331 145.406" fill="white"/>
<path d="M435.3 264.725C432.066 258.308 425.973 254.695 419.009 253.849C412.329 253.039 405.312 255.061 399.272 257.772C392.592 260.771 387.546 265.706 384.828 272.508C383.371 276.115 386.107 280.369 389.341 281.735C390.602 282.267 392.094 282.439 393.533 282.256C390.371 286.614 387.493 291.162 384.899 295.864C379.001 306.554 374.435 318.062 371.415 329.897C371.078 331.247 371.113 332.72 371.486 334.104C369.834 333.866 368.111 334.145 366.548 335.081C365.944 335.442 365.34 335.803 364.736 336.169C359.655 339.253 359.566 346.769 364.736 349.835C370.474 353.246 376.159 357.096 382.11 360.122C386.48 362.339 391.117 361.532 394.546 357.983C396.838 355.593 398.916 352.905 401.066 350.374C409.451 340.509 418.049 330.613 425.387 319.947C432.741 309.302 438.16 297.179 438.906 284.129C439.279 277.557 438.302 270.637 435.3 264.725" fill="#9B4C4C"/>
<path d="M273.601 118.055C270.012 116.076 265.855 116.079 262.284 118.067C261.485 118.515 262.196 119.751 263.013 119.304C266.14 117.563 269.746 117.557 272.873 119.29C273.69 119.735 274.4 118.501 273.601 118.055Z" fill="#764242"/>
<path d="M283.816 124.095C283.763 123.18 282.324 123.175 282.377 124.095C282.502 126.239 283.354 129.7 281.613 131.327C280.938 131.958 281.951 132.968 282.626 132.34C284.811 130.293 283.958 126.751 283.816 124.095" fill="#E28566"/>
<path d="M273.352 111.11C271.487 107.081 263.954 109.699 261.076 110.746C260.472 110.968 260.49 111.732 260.863 112.039C260.952 112.167 261.076 112.268 261.236 112.311C261.68 112.426 262.124 112.417 262.551 112.369C263.635 112.451 264.789 112.215 265.873 112.115C266.033 112.119 266.193 112.119 266.353 112.126C266.459 112.128 266.566 112.108 266.655 112.071C268.68 111.982 270.705 112.032 272.73 112.185C273.317 112.231 273.548 111.557 273.352 111.11" fill="#764242"/>
<path d="M273.332 157.946C270.01 157.253 267.221 155.361 265.373 152.51C264.894 151.746 263.668 152.455 264.165 153.224C266.191 156.374 269.282 158.545 272.959 159.314C273.848 159.501 274.221 158.134 273.332 157.946" fill="#E28566"/>
<path d="M269.141 119.046C269.141 119.929 268.679 120.646 268.11 120.646C267.559 120.646 267.098 119.929 267.098 119.046C267.098 118.163 267.559 117.447 268.11 117.447C268.679 117.447 269.141 118.163 269.141 119.046Z" fill="#3D3648"/>
<path d="M287.066 117.843C290.654 115.864 294.794 115.867 298.382 117.855C299.182 118.303 298.453 119.54 297.654 119.092C294.527 117.351 290.921 117.346 287.794 119.078C286.977 119.524 286.249 118.289 287.066 117.843Z" fill="#764242"/>
<path d="M291.525 118.835C291.525 119.718 291.987 120.434 292.538 120.434C293.106 120.434 293.568 119.718 293.568 118.835C293.568 117.952 293.106 117.236 292.538 117.236C291.987 117.236 291.525 117.952 291.525 118.835Z" fill="#3D3648"/>
<path d="M405.117 257.105C400.641 290.778 388.578 323.164 369.96 351.572C369.462 352.344 370.706 353.01 371.221 352.248C389.91 323.775 402.026 291.194 406.503 257.431C406.61 256.533 405.242 256.203 405.117 257.105" fill="#7D3D3D"/>
<path d="M353.919 286.127C348.607 296.644 343.74 307.368 339.227 318.246C336.953 323.725 334.786 329.245 332.69 334.796C331.624 337.634 329.687 343.731 334.804 343.777C335.727 343.786 335.727 342.357 334.804 342.347C330.504 342.304 334.111 335.049 334.715 333.469C335.585 331.194 336.456 328.925 337.362 326.662C339.174 322.052 341.075 317.466 343.029 312.91C346.795 304.103 350.846 295.414 355.127 286.841C355.536 286.031 354.328 285.313 353.919 286.127Z" fill="#7D3D3D"/>
<path d="M309.131 150.304C308.9 148.57 308.705 147.129 308.598 146.268C307.621 145.049 305.969 144.626 304.335 144.877C304.175 144.9 304.033 144.93 303.873 144.956C303.34 144.269 302.576 143.725 301.705 143.382C301.35 143.247 301.012 143.143 300.657 143.054C300.657 141.085 299.378 139.201 296.767 139.273C289.945 139.462 284.011 143.338 280.422 149.06C277.918 153.073 276.869 157.623 276.763 162.24C278.006 163.628 279.463 164.831 281.08 165.788C281.08 165.79 287.706 171.262 291.241 174.179V174.177C289.856 169.117 290.424 163.672 293.551 159.35C296.766 154.926 301.403 153.685 306.484 152.672C307.728 152.425 308.669 151.459 309.131 150.304" fill="#794E4E"/>
<path d="M320.199 160.776C319.631 158.135 318.529 155.603 317.215 153.256C316.913 152.725 316.593 152.174 316.255 151.618C315.491 150.167 314.621 148.765 313.715 147.404C311.992 144.83 310.251 142.43 307.319 141.206C305.312 140.376 303.056 139.755 300.817 139.668C298.774 139.154 296.607 139.159 294.528 139.568C291.402 140.181 288.541 141.783 286.054 143.716C283.727 145.507 282.821 147.34 282.768 149.996C282.288 150.378 281.773 150.737 281.115 151.153C280.192 151.743 279.783 152.405 279.676 153.494C279.57 154.502 280.618 154.965 281.435 154.88C281.773 155.022 282.181 155.043 282.59 154.864C286.356 153.255 289.447 150.679 293.551 149.842C296.358 149.272 298.792 149.67 301.084 150.654C301.83 155.978 305.596 161.421 308.865 165.5C309.771 166.651 311.388 168.016 313.164 168.902C314.123 169.581 315.136 169.991 316.131 169.814C317.73 169.949 319.222 169.361 320.146 167.515C321.141 165.552 320.643 162.839 320.199 160.776" fill="#FFC183"/>
<path d="M306.431 146.29C304.654 143.473 302.593 141.81 299.094 142.174C295.079 142.593 290.993 144.294 287.28 145.782C286.427 146.12 286.8 147.504 287.653 147.161C290.442 146.047 293.284 145.054 296.18 144.251C297.708 143.825 299.324 143.38 300.923 143.608C303.073 143.912 304.121 145.299 305.205 147.012C305.685 147.788 306.928 147.07 306.431 146.29" fill="#E28566"/>
<path d="M271.165 342.214C271.157 342.052 271.35 342.91 273.3 341.533C278.533 337.834 275.735 326.772 273.486 321.637C270.978 315.911 262.423 309.483 256.304 308.037C254.816 307.086 232.118 294.341 225.963 290.01C223.474 288.261 219.172 291.039 220.924 294.046C221.344 294.766 221.802 295.448 222.295 296.097C220.763 295.22 219.233 294.331 217.715 293.435C214.039 291.265 210.067 296.661 213.787 298.86C213.901 298.926 214.012 298.993 214.126 299.063C211.109 298.109 208.068 297.238 204.988 296.484C201.698 295.678 198.21 300.227 201.826 302.328C210.323 307.261 238.299 318.881 243.166 320.85C245.169 325.283 249.741 328.611 253.259 332.093C256.515 335.32 258.835 339.273 261.071 343.235C262.294 345.402 263.788 347.633 265.327 346.918C265.767 346.716 266.649 345.523 266.649 345.523C266.649 345.523 268.055 346.026 268.922 345.548C270.479 344.697 271.282 343.656 271.165 342.214Z" fill="#FFC183"/>
<path d="M243.986 170.022C218.667 170.421 200.095 194.257 190.507 215.33C179.708 239.063 176.007 265.409 173.886 291.178C171.479 320.43 171.898 349.816 172.342 379.135C172.79 408.748 173.243 438.369 173.696 467.987C173.948 484.622 174.206 501.252 174.458 517.888C174.582 526.122 174.707 534.362 174.835 542.601C174.897 546.719 174.959 550.834 175.021 554.955C175.078 558.736 174.892 562.797 177.896 565.591C178.997 566.613 180.237 566.95 181.401 566.823C185.362 569.086 190.049 569.258 194.531 569.244C199.829 569.23 205.059 568.8 209.912 566.531C213.613 564.804 216.764 562.044 219.125 558.707C220.865 558.645 222.538 557.672 223.155 555.502C226.409 543.927 225.97 531.891 225.395 520.009C224.794 507.604 224.336 495.196 224.041 482.782C223.449 457.921 223.492 433.046 224.155 408.191C225.485 358.474 229.323 308.826 235.651 259.497C239.19 231.838 244.004 204.381 248.676 176.89C249.831 170.022 246.58 169.981 243.986 170.022Z" fill="#DFC3C3"/>
<path d="M404.531 258.749C404.194 249.393 399.148 241.77 390.372 238.35C381.969 235.076 372.909 237.123 364.95 240.607C356.458 244.329 348.553 249.468 340.878 254.632C323.841 266.089 306.929 278.282 292.77 293.233C290.282 295.85 283.263 301.583 285.181 303.604C284.311 304.358 290.7 298.233 289.83 299.001C287.894 297.294 285.308 301.279 282.643 303.604C278.628 307.093 275.395 311.119 272.517 315.406C262.586 326.681 252.282 337.582 241.907 348.495C239.58 350.933 235.974 355.04 233.657 359.375C230.015 356.119 222.7 359.156 224.288 365.101C226.992 375.202 234.748 382.44 242.867 388.462C251.43 394.813 260.934 400.505 271.735 401.187C312.649 403.756 335.531 345.891 335.531 345.891C335.531 345.891 349.246 350.88 353.847 352.629C358.821 354.532 364.932 357.973 368.858 352.306C371.434 348.583 376.959 339.261 379.038 335.239C387.405 319.062 394.263 302.059 399.415 284.597C401.849 276.37 404.851 267.429 404.531 258.749Z" fill="#9B4C4C"/>
<g clip-path="url(#clip0)">
<path d="M442.244 473.692C442.045 472.528 440.941 471.747 439.779 471.944L434.486 472.847C433.323 473.046 432.541 474.149 432.74 475.312C432.917 476.354 433.821 477.089 434.842 477.089C434.962 477.089 435.082 477.079 435.204 477.058L440.497 476.156C441.66 475.958 442.442 474.855 442.244 473.692V473.692Z" fill="#FFAE8B"/>
<path d="M439.745 483.673L434.65 480.905C433.613 480.342 432.315 480.726 431.752 481.762C431.19 482.799 431.574 484.096 432.61 484.66L437.706 487.427C438.03 487.604 438.379 487.686 438.724 487.686C439.482 487.686 440.215 487.283 440.603 486.569C441.167 485.533 440.783 484.236 439.745 483.673Z" fill="#FFAE8B"/>
<path d="M361.873 477.058C361.994 477.079 362.115 477.089 362.234 477.089C363.256 477.089 364.161 476.353 364.337 475.312C364.536 474.149 363.754 473.046 362.591 472.847L357.299 471.944C356.136 471.746 355.032 472.527 354.834 473.691C354.635 474.854 355.417 475.957 356.58 476.156L361.873 477.058Z" fill="#FFAE8B"/>
<path d="M362.427 480.905L357.332 483.673C356.294 484.236 355.911 485.533 356.474 486.57C356.861 487.283 357.595 487.686 358.353 487.686C358.698 487.686 359.047 487.604 359.371 487.428L364.467 484.66C365.504 484.096 365.888 482.8 365.325 481.762C364.761 480.726 363.464 480.342 362.427 480.905Z" fill="#FFAE8B"/>
<path d="M446.567 478.17C446.94 485.551 456.406 497.013 455.305 511.636C454.321 524.718 448.154 540.606 435.532 548.644C435.582 549.366 435.609 550.036 435.609 550.643C435.609 558.604 431.424 563.276 422.923 565.778C422.93 565.776 468.074 555.946 468.085 507.759C468.096 458.606 446.075 468.47 446.567 478.17V478.17Z" fill="#FFDCA7"/>
<path d="M442.503 542.792C440.444 545.012 438.123 546.992 435.53 548.643C435.582 549.365 435.609 550.035 435.609 550.642C435.609 558.604 431.424 563.276 422.923 565.778C422.923 565.778 432.009 563.799 442.029 557.268C442.877 555.367 443.3 553.171 443.3 550.642C443.3 548.619 443.004 545.917 442.503 542.792V542.792Z" fill="#FFCF86"/>
<path d="M409.21 446.305C409.21 446.305 415.186 430.993 420.306 432.053C425.498 433.126 424.49 450.4 424.49 450.4C424.49 450.4 435.214 466.861 434.867 476.33C434.52 485.798 428.434 492.113 422.41 493.265C422.41 493.265 435.609 537.082 435.609 550.644C435.609 564.204 423.473 568.223 398.539 568.223C373.604 568.223 361.468 564.204 361.468 550.644C361.468 537.082 374.667 493.265 374.667 493.265C368.644 492.113 362.557 485.798 362.21 476.33C361.863 466.861 372.587 450.4 372.587 450.4C372.587 450.4 371.579 433.126 376.771 432.053C381.89 430.993 387.867 446.305 387.867 446.305H409.21Z" fill="#FFE9C8"/>
<path d="M398.539 560.532C375.838 560.532 363.748 557.199 361.762 546.371C361.574 547.997 361.468 549.441 361.468 550.643C361.468 564.204 373.603 568.223 398.538 568.223C423.473 568.223 435.609 564.202 435.609 550.643C435.609 549.441 435.503 547.997 435.315 546.371C433.329 557.199 421.238 560.532 398.539 560.532V560.532Z" fill="#FFDCA7"/>
<path d="M376.771 432.053C371.579 433.126 372.587 450.4 372.587 450.4C372.587 450.4 361.862 466.861 362.209 476.33C362.393 481.336 364.182 485.46 366.717 488.407C396.871 481.664 394.216 446.305 394.216 446.305H387.867C387.867 446.305 381.89 430.993 376.771 432.053Z" fill="#FFAE8B"/>
<path d="M420.305 432.053C425.496 433.126 424.489 450.4 424.489 450.4C424.489 450.4 435.214 466.861 434.867 476.33C434.684 481.336 432.895 485.46 430.359 488.407C400.206 481.664 402.859 446.305 402.859 446.305H409.21C409.21 446.305 415.185 430.993 420.305 432.053Z" fill="#FFAE8B"/>
<path d="M380.613 463.086C378.181 463.086 376.276 465.451 376.276 468.471C376.276 471.491 378.181 473.856 380.613 473.856C383.044 473.856 384.949 471.491 384.949 468.471C384.949 465.451 383.044 463.086 380.613 463.086Z" fill="#433F43"/>
<path d="M416.465 463.086C414.034 463.086 412.129 465.451 412.129 468.471C412.129 471.491 414.034 473.856 416.465 473.856C418.896 473.856 420.801 471.491 420.801 468.471C420.801 465.451 418.896 463.086 416.465 463.086Z" fill="#433F43"/>
<path d="M405.101 473.358C405.101 472.614 404.815 470.815 402.161 470.186C401.289 469.98 400.206 469.892 398.539 469.892C396.87 469.892 395.788 469.98 394.917 470.186C392.263 470.815 391.976 472.614 391.976 473.358C391.976 475.389 393.908 477.278 396.403 477.993V482.783C396.403 483.962 397.359 484.919 398.539 484.919C399.718 484.919 400.675 483.962 400.675 482.783V477.993C403.169 477.278 405.101 475.389 405.101 473.358Z" fill="#DD8858"/>
<path d="M376.04 517.606C376.04 517.606 378.123 572.864 386.075 572.864C394.027 572.864 394.216 523.048 394.216 523.048" fill="#FFE9C8"/>
<path d="M421.037 517.606C421.037 517.606 418.954 572.864 411.002 572.864C403.049 572.864 402.859 523.048 402.859 523.048" fill="#FFE9C8"/>
<path d="M386.075 575C382.179 575 380.291 569.524 379.082 564.755C377.895 560.076 376.842 553.587 375.952 545.468C374.446 531.736 373.91 517.826 373.905 517.686C373.86 516.508 374.78 515.516 375.959 515.472C377.138 515.42 378.13 516.347 378.175 517.526C378.179 517.655 378.676 530.533 380.054 543.649C380.858 551.305 381.799 557.532 382.852 562.158C384.373 568.843 385.716 570.365 386.101 570.677C386.681 570.247 389.48 567.131 391.096 546.581C392.025 534.759 392.08 523.157 392.08 523.04C392.084 521.863 393.04 520.913 394.216 520.913H394.225C395.404 520.917 396.357 521.877 396.352 523.056C396.352 523.182 396.293 535.739 395.257 548.134C394.643 555.474 393.808 561.346 392.777 565.585C391.794 569.627 390.03 575 386.075 575Z" fill="#FFDCA7"/>
<path d="M411.001 575C407.046 575 405.282 569.627 404.298 565.586C403.267 561.346 402.433 555.475 401.819 548.134C400.783 535.739 400.724 523.182 400.723 523.056C400.718 521.877 401.671 520.917 402.851 520.912H402.859C404.035 520.912 404.991 521.863 404.995 523.041C404.996 523.157 405.051 534.779 405.981 546.601C407.597 567.133 410.396 570.246 410.975 570.677C411.36 570.364 412.703 568.843 414.224 562.158C415.277 557.533 416.218 551.306 417.022 543.649C418.4 530.533 418.897 517.655 418.901 517.526C418.946 516.347 419.946 515.423 421.117 515.472C422.295 515.516 423.215 516.508 423.171 517.687C423.166 517.826 422.63 531.736 421.124 545.469C420.234 553.587 419.181 560.076 417.994 564.755C416.786 569.524 414.897 575 411.001 575Z" fill="#FFDCA7"/>
</g>
<defs>
<clipPath id="clip0">
<rect width="143" height="143" fill="white" transform="translate(340 432)"/>
</clipPath>
</defs>
</svg>
